<svg xmlns="http://www.w3.org/2000/svg" viewBox="0 0 694.67 1003.6"><defs><style>.cls-1{fill:#1c6687;}.cls-2,.cls-4{font-size:15px;font-family:NotoSansJP-Medium-83pv-RKSJ-H, Noto Sans JP;}.cls-2{fill:#fff;}.cls-3{fill:#f8f5e4;}.cls-4,.cls-5{fill:#d97f72;}.cls-6,.cls-9{fill:none;stroke:gray;stroke-miterlimit:10;}.cls-7{fill:gray;}.cls-8{letter-spacing:0.25em;}.cls-9{stroke-linecap:square;}</style></defs><g id="レイヤー_2" data-name="レイヤー 2"><g id="レイヤー_1-2" data-name="レイヤー 1"><rect class="cls-1" x="380.79" y="0.1" width="312" height="41"/><text class="cls-2" transform="translate(482.36 26.98)">ユーザーの心境</text><rect class="cls-1" x="24.9" width="335" height="41"/><text class="cls-2" transform="translate(148.1 26.29)">アプリの機能</text><rect class="cls-3" x="467.22" y="411.82" width="136.45" height="72.14"/><text class="cls-4" transform="translate(490.45 440.5)">安心感・喜び<tspan x="7.5" y="26.25">が得られる</tspan></text><rect class="cls-5" x="46.56" y="411.93" width="136.45" height="72.14"/><text class="cls-2" transform="translate(56.58 439.89)">匿名でフィードに<tspan x="22.5" y="26.25">投稿される</tspan></text><rect class="cls-5" x="43.27" y="667.93" width="136.45" height="72.14"/><text class="cls-2" transform="translate(51.5 695.82)">他の人の投稿には<tspan x="7.5" y="26.25">いいね数非表示</tspan></text><line class="cls-6" x1="195.67" y1="145.1" x2="195.67" y2="172.86"/><polygon class="cls-7" points="195.67 177.1 193.23 171.13 195.67 172.54 198.1 171.13 195.67 177.1"/><line class="cls-6" x1="195.67" y1="244.1" x2="195.67" y2="271.86"/><polygon class="cls-7" points="195.67 276.1 193.23 270.13 195.67 271.54 198.1 270.13 195.67 276.1"/><rect class="cls-5" x="129.56" y="74.47" width="136.45" height="72.14"/><text class="cls-2" transform="translate(144.27 113.42)">いいことを投稿</text><rect class="cls-5" x="129.56" y="176.93" width="136.45" height="72.14"/><text class="cls-2" transform="translate(166.43 204.89)">A<tspan class="cls-8" x="9.33" y="0">I</tspan><tspan x="17.71" y="0">による</tspan><tspan x="-28.64" y="26.25">ポジティブ度判定</tspan></text><rect class="cls-5" x="129.56" y="276.93" width="136.45" height="72.14"/><text class="cls-2" transform="translate(152.79 304.89)">データベース<tspan x="22.5" y="26.25">に保存</tspan></text><line class="cls-6" x1="115.17" y1="379.1" x2="115.17" y2="406.86"/><polygon class="cls-7" points="115.17 411.1 112.73 405.13 115.17 406.54 117.61 405.13 115.17 411.1"/><line class="cls-6" x1="276.17" y1="379.1" x2="276.17" y2="406.86"/><polygon class="cls-7" points="276.17 411.1 273.73 405.13 276.17 406.54 278.61 405.13 276.17 411.1"/><line class="cls-6" x1="197.17" y1="348.1" x2="197.17" y2="380.1"/><line class="cls-6" x1="115.17" y1="379.6" x2="276.17" y2="379.6"/><line class="cls-6" x1="112.5" y1="482.6" x2="112.18" y2="557.86"/><polygon class="cls-7" points="112.17 562.1 109.75 556.12 112.19 557.54 114.63 556.14 112.17 562.1"/><line class="cls-6" x1="273.17" y1="530.1" x2="273.17" y2="557.86"/><polygon class="cls-7" points="273.17 562.1 270.73 556.13 273.17 557.54 275.61 556.13 273.17 562.1"/><line class="cls-6" x1="112.17" y1="530.6" x2="273.17" y2="530.6"/><line class="cls-6" x1="112.17" y1="635.1" x2="112.17" y2="662.86"/><polygon class="cls-7" points="112.17 667.1 109.73 661.13 112.17 662.54 114.61 661.13 112.17 667.1"/><line class="cls-6" x1="273.5" y1="635.1" x2="273.5" y2="662.86"/><polygon class="cls-7" points="273.5 667.1 271.06 661.13 273.5 662.54 275.94 661.13 273.5 667.1"/><rect class="cls-5" x="43.45" y="563.37" width="136.45" height="72.14"/><text class="cls-2" transform="translate(59.18 593.05)">他の人の投稿に<tspan x="7.5" y="26.25">いいねをする</tspan></text><rect class="cls-5" x="216.45" y="563.37" width="136.45" height="72.14"/><text class="cls-2" transform="translate(247.18 591.2)">他の人から<tspan x="-15" y="26.25">いいねもらえる</tspan></text><line class="cls-6" x1="348" y1="448.1" x2="462.76" y2="448.1"/><polygon class="cls-7" points="467 448.1 461.03 450.54 462.45 448.1 461.03 445.66 467 448.1"/><line class="cls-6" x1="112.5" y1="787.6" x2="394.26" y2="787.6"/><polygon class="cls-7" points="398.5 787.6 392.53 790.03 393.95 787.6 392.53 785.16 398.5 787.6"/><rect class="cls-5" x="211.65" y="411.82" width="136.45" height="72.14"/><text class="cls-2" transform="translate(234.88 437.88)">投稿が可愛く<tspan x="22.5" y="26.25">集まる</tspan></text><rect class="cls-3" x="400.22" y="746.47" width="136.45" height="72.14"/><text class="cls-4" transform="translate(415.95 775.86)">競争心、劣等感<tspan x="15" y="26.25">を感じない</tspan></text><line class="cls-6" x1="112.5" y1="739.6" x2="112.5" y2="787.6"/><rect class="cls-5" x="216.27" y="667.93" width="136.45" height="72.14"/><text class="cls-2" transform="translate(232 695.82)">自分の投稿には<tspan x="7.5" y="26.25">いいね数表示</tspan></text><line class="cls-6" x1="623.5" y1="699.6" x2="623.5" y2="742.86"/><polygon class="cls-7" points="623.5 747.1 621.06 741.13 623.5 742.54 625.94 741.13 623.5 747.1"/><line class="cls-9" x1="353" y1="699.6" x2="623.5" y2="699.6"/><line class="cls-6" x1="623.5" y1="818.1" x2="623.5" y2="845.86"/><polygon class="cls-7" points="623.5 850.1 621.06 844.13 623.5 845.54 625.94 844.13 623.5 850.1"/><rect class="cls-3" x="558.22" y="746.47" width="136.45" height="72.14"/><text class="cls-4" transform="translate(576.22 786.86)">自己肯定<tspan class="cls-8" x="60" y="0">感</tspan><tspan x="78.75" y="0">UP</tspan></text><line class="cls-6" x1="623.5" y1="969.6" x2="270.85" y2="969.75"/><polygon class="cls-7" points="266.61 969.75 272.58 967.31 271.17 969.75 272.58 972.19 266.61 969.75"/><line class="cls-6" x1="623.5" y1="922.1" x2="623.5" y2="970.1"/><rect class="cls-3" x="558.22" y="850.47" width="136.45" height="72.14"/><text class="cls-4" transform="translate(573.95 878.36)">さらにいいこと<tspan x="7.5" y="26.25">集めたくなる</tspan></text><line class="cls-6" x1="122.94" y1="110.1" y2="110.1"/><polygon class="cls-7" points="130 110.1 120.05 106.03 122.41 110.1 120.05 114.16 130 110.1"/><line class="cls-6" x1="0.5" y1="969.6" x2="0.5" y2="110.6"/><line class="cls-6" x1="130" y1="969.6" y2="969.6"/><rect class="cls-5" x="129.56" y="931.47" width="136.45" height="72.14"/><text class="cls-2" transform="translate(142.09 973.12)">いいことをする</text></g></g></svg>