<svg xmlns="http://www.w3.org/2000/svg" viewBox="0 0 29.37 35.56"><defs><style>.cls-1{fill:#37474f;}.cls-2{fill:#00e676;}.cls-3{fill:#fff;}.cls-4{fill:#448aff;}</style></defs><g id="レイヤー_2" data-name="レイヤー 2"><g id="レイヤー_1-2" data-name="レイヤー 1"><path class="cls-1" d="M10.14,4.64l-.09,6.18H0V7.34a2.7,2.7,0,0,1,2.71-2.7Z"/><path class="cls-2" d="M19.33,3.58l1.43-2.41A.77.77,0,0,0,19.43.38l-1.5,2.53a9.22,9.22,0,0,0-6.49,0L9.94.38a.77.77,0,1,0-1.33.79L10,3.58a9.27,9.27,0,0,0-4.59,7.24H23.92A9.27,9.27,0,0,0,19.33,3.58Z"/><circle class="cls-3" cx="10.82" cy="6.96" r="0.77"/><circle class="cls-3" cx="18.55" cy="6.96" r="0.77"/><path class="cls-4" d="M26.67,10.05h-24A2.71,2.71,0,0,1,0,7.34V28.21a2.71,2.71,0,0,0,2.71,2.71H29.37V12.75A2.7,2.7,0,0,0,26.67,10.05Z"/><path class="cls-1" d="M26.67,15.46H25.51v20h1.16a2.7,2.7,0,0,0,2.7-2.71v-20A2.7,2.7,0,0,1,26.67,15.46Z"/><path class="cls-1" d="M22.24,33.28,16.48,21.06a3.07,3.07,0,0,0-1-5.49V13.91a.78.78,0,0,0-1.55,0v1.66a3.07,3.07,0,0,0-1,5.49L7.14,33.28a1.6,1.6,0,0,0,.48,2,1.55,1.55,0,0,0,2.28-.61L13.49,27a1.32,1.32,0,0,1,2.39,0l3.59,7.63a1.54,1.54,0,0,0,1.4.89,1.52,1.52,0,0,0,.93-.32A1.61,1.61,0,0,0,22.24,33.28ZM14.69,17a1.55,1.55,0,1,1-1.55,1.54A1.54,1.54,0,0,1,14.69,17Z"/></g></g></svg>