<svg xmlns="http://www.w3.org/2000/svg" width="30" height="30" viewBox="0 0 30 30"><defs><style>.cls-1{fill:#1d1d1b;}</style></defs><g id="レイヤー_2" data-name="レイヤー 2"><g id="図形"><path class="cls-1" d="M27.87,30H2.13A2.14,2.14,0,0,1,0,27.87V2.13A2.14,2.14,0,0,1,2.13,0H27.87A2.14,2.14,0,0,1,30,2.13V27.87A2.14,2.14,0,0,1,27.87,30ZM2.13,1.11a1,1,0,0,0-1,1V27.87a1,1,0,0,0,1,1H27.87a1,1,0,0,0,1-1V2.13a1,1,0,0,0-1-1Z"/><path class="cls-1" d="M9,18l-.8,2.89H5.53L9,9.67H12.3l3.48,11.24H13.05L12.18,18Zm2.85-1.9-.7-2.38c-.2-.67-.4-1.5-.57-2.17h0c-.17.67-.34,1.52-.52,2.17l-.67,2.38Z"/><path class="cls-1" d="M18.92,17.64c.08,1.05,1.11,1.55,2.3,1.55a7.44,7.44,0,0,0,2.25-.33l.33,1.71a7.9,7.9,0,0,1-2.95.5c-2.77,0-4.35-1.6-4.35-4.15a4.08,4.08,0,0,1,4.12-4.35c2.63,0,3.63,2,3.63,4.07a6.51,6.51,0,0,1-.08,1Zm3-1.73a1.47,1.47,0,0,0-1.43-1.65,1.66,1.66,0,0,0-1.57,1.65Z"/></g></g></svg>