<svg xmlns="http://www.w3.org/2000/svg" width="36" height="36" viewBox="0 0 36 36"><defs><style>.cls-1{fill:#ffe1bb;}</style></defs><g id="レイヤー_2" data-name="レイヤー 2"><g id="図形"><path class="cls-1" d="M33.44,36H2.56A2.56,2.56,0,0,1,0,33.44V2.56A2.56,2.56,0,0,1,2.56,0H33.44A2.56,2.56,0,0,1,36,2.56V33.44A2.56,2.56,0,0,1,33.44,36ZM2.56,1.33A1.23,1.23,0,0,0,1.33,2.56V33.44a1.23,1.23,0,0,0,1.23,1.23H33.44a1.23,1.23,0,0,0,1.23-1.23V2.56a1.23,1.23,0,0,0-1.23-1.23Z"/><path class="cls-1" d="M10.76,21.63l-1,3.46H6.64l4.12-13.48h4l4.18,13.48H15.66l-1-3.46Zm3.42-2.28-.84-2.86c-.24-.8-.48-1.8-.68-2.6h0c-.2.8-.4,1.82-.62,2.6l-.8,2.86Z"/><path class="cls-1" d="M22.7,21.17C22.8,22.43,24,23,25.46,23a8.61,8.61,0,0,0,2.7-.4l.4,2.06a9.65,9.65,0,0,1-3.54.6c-3.32,0-5.22-1.92-5.22-5,0-2.48,1.54-5.22,4.94-5.22,3.16,0,4.36,2.46,4.36,4.88a7.22,7.22,0,0,1-.1,1.2Zm3.58-2.08a1.77,1.77,0,0,0-1.72-2,2,2,0,0,0-1.88,2Z"/></g></g></svg>