<svg xmlns="http://www.w3.org/2000/svg" width="55" height="125" viewBox="0 0 55 125"><defs><style>.cls-1{fill:#fbb13c;}.cls-2{fill:#804036;}.cls-3{fill:#ffe1bb;}.cls-4{fill:#f45a21;}</style></defs><g id="レイヤー_2" data-name="レイヤー 2"><g id="図形"><rect class="cls-1" x="18.54" y="73.46" width="17.92" height="4.29"/><rect class="cls-2" x="18.54" y="74.67" width="17.92" height="1.88"/><polygon class="cls-1" points="36.46 90.47 28.04 77.75 26.96 77.75 18.54 90.47 18.54 92.28 27.5 78.65 36.46 92.28 36.46 90.47"/><polygon class="cls-1" points="17.83 62.7 17.83 46.48 16.4 45.79 16.4 32.97 15.69 32.63 15.69 25.79 14.26 25.1 14.26 20.79 12.74 20.05 12.74 16.83 6.51 16.83 6.51 20.05 4.99 20.79 4.99 25.1 3.56 25.79 3.56 32.63 2.85 32.97 2.85 45.79 1.43 46.48 1.43 62.7 0.71 63.04 0.71 123.62 18.54 123.62 18.54 63.04 17.83 62.7"/><rect class="cls-2" x="15.69" y="63.6" width="2.14" height="0.94"/><rect class="cls-2" x="12.12" y="63.6" width="2.14" height="0.94"/><rect class="cls-2" x="15.69" y="65.48" width="2.14" height="0.94"/><rect class="cls-2" x="15.69" y="67.35" width="2.14" height="0.94"/><rect class="cls-2" x="15.69" y="69.23" width="2.14" height="0.94"/><rect class="cls-2" x="15.69" y="71.11" width="2.14" height="0.94"/><rect class="cls-2" x="15.69" y="72.98" width="2.14" height="0.94"/><rect class="cls-2" x="15.69" y="74.86" width="2.14" height="0.94"/><rect class="cls-2" x="15.69" y="76.73" width="2.14" height="0.94"/><rect class="cls-2" x="15.69" y="78.61" width="2.14" height="0.94"/><rect class="cls-2" x="15.69" y="80.48" width="2.14" height="0.94"/><rect class="cls-2" x="15.69" y="82.36" width="2.14" height="0.94"/><rect class="cls-2" x="15.69" y="84.23" width="2.14" height="0.94"/><rect class="cls-2" x="15.69" y="86.11" width="2.14" height="0.94"/><rect class="cls-2" x="15.69" y="87.99" width="2.14" height="0.94"/><rect class="cls-2" x="15.69" y="89.86" width="2.14" height="0.94"/><rect class="cls-2" x="15.69" y="91.74" width="2.14" height="0.94"/><rect class="cls-2" x="15.69" y="93.61" width="2.14" height="0.94"/><rect class="cls-2" x="15.69" y="95.49" width="2.14" height="0.94"/><rect class="cls-2" x="15.69" y="97.36" width="2.14" height="0.94"/><rect class="cls-2" x="15.69" y="99.24" width="2.14" height="0.94"/><rect class="cls-2" x="15.69" y="101.11" width="2.14" height="0.94"/><rect class="cls-2" x="15.69" y="102.99" width="2.14" height="0.94"/><rect class="cls-2" x="15.69" y="104.86" width="2.14" height="0.94"/><rect class="cls-2" x="12.12" y="65.48" width="2.14" height="0.94"/><rect class="cls-2" x="12.12" y="67.35" width="2.14" height="0.94"/><rect class="cls-2" x="12.12" y="69.23" width="2.14" height="0.94"/><rect class="cls-2" x="12.12" y="71.11" width="2.14" height="0.94"/><rect class="cls-2" x="12.12" y="72.98" width="2.14" height="0.94"/><rect class="cls-2" x="12.12" y="74.86" width="2.14" height="0.94"/><rect class="cls-2" x="12.12" y="76.73" width="2.14" height="0.94"/><rect class="cls-2" x="12.12" y="78.61" width="2.14" height="0.94"/><rect class="cls-2" x="12.12" y="80.48" width="2.14" height="0.94"/><rect class="cls-2" x="12.12" y="82.36" width="2.14" height="0.94"/><rect class="cls-2" x="12.12" y="84.23" width="2.14" height="0.94"/><rect class="cls-2" x="12.12" y="86.11" width="2.14" height="0.94"/><rect class="cls-2" x="12.12" y="87.99" width="2.14" height="0.94"/><rect class="cls-2" x="12.12" y="89.86" width="2.14" height="0.94"/><rect class="cls-2" x="12.12" y="91.74" width="2.14" height="0.94"/><rect class="cls-2" x="12.12" y="93.61" width="2.14" height="0.94"/><rect class="cls-2" x="12.12" y="95.49" width="2.14" height="0.94"/><rect class="cls-2" x="12.12" y="97.36" width="2.14" height="0.94"/><rect class="cls-2" x="12.12" y="99.24" width="2.14" height="0.94"/><rect class="cls-2" x="12.12" y="101.11" width="2.14" height="0.94"/><rect class="cls-2" x="12.12" y="102.99" width="2.14" height="0.94"/><rect class="cls-2" x="12.12" y="104.86" width="2.14" height="0.94"/><rect class="cls-2" x="8.56" y="63.6" width="2.14" height="0.94"/><rect class="cls-2" x="8.56" y="65.48" width="2.14" height="0.94"/><rect class="cls-2" x="8.56" y="67.35" width="2.14" height="0.94"/><rect class="cls-2" x="8.56" y="69.23" width="2.14" height="0.94"/><rect class="cls-2" x="8.56" y="71.11" width="2.14" height="0.94"/><rect class="cls-2" x="8.56" y="72.98" width="2.14" height="0.94"/><rect class="cls-2" x="8.56" y="74.86" width="2.14" height="0.94"/><rect class="cls-2" x="8.56" y="76.73" width="2.14" height="0.94"/><rect class="cls-2" x="8.56" y="78.61" width="2.14" height="0.94"/><rect class="cls-2" x="8.56" y="80.48" width="2.14" height="0.94"/><rect class="cls-2" x="8.56" y="82.36" width="2.14" height="0.94"/><rect class="cls-2" x="8.56" y="84.23" width="2.14" height="0.94"/><rect class="cls-2" x="8.56" y="86.11" width="2.14" height="0.94"/><rect class="cls-2" x="8.56" y="87.99" width="2.14" height="0.94"/><rect class="cls-2" x="8.56" y="89.86" width="2.14" height="0.94"/><rect class="cls-2" x="8.56" y="91.74" width="2.14" height="0.94"/><rect class="cls-2" x="8.56" y="93.61" width="2.14" height="0.94"/><rect class="cls-2" x="8.56" y="95.49" width="2.14" height="0.94"/><rect class="cls-2" x="8.56" y="97.36" width="2.14" height="0.94"/><rect class="cls-2" x="8.56" y="99.24" width="2.14" height="0.94"/><rect class="cls-2" x="8.56" y="101.11" width="2.14" height="0.94"/><rect class="cls-2" x="8.56" y="102.99" width="2.14" height="0.94"/><rect class="cls-2" x="8.56" y="104.86" width="2.14" height="0.94"/><rect class="cls-2" x="4.99" y="63.6" width="2.14" height="0.94"/><rect class="cls-2" x="4.99" y="65.48" width="2.14" height="0.94"/><rect class="cls-2" x="4.99" y="67.35" width="2.14" height="0.94"/><rect class="cls-2" x="4.99" y="69.23" width="2.14" height="0.94"/><rect class="cls-2" x="4.99" y="71.11" width="2.14" height="0.94"/><rect class="cls-2" x="4.99" y="72.98" width="2.14" height="0.94"/><rect class="cls-2" x="4.99" y="74.86" width="2.14" height="0.94"/><rect class="cls-2" x="4.99" y="76.73" width="2.14" height="0.94"/><rect class="cls-2" x="4.99" y="78.61" width="2.14" height="0.94"/><rect class="cls-2" x="4.99" y="80.48" width="2.14" height="0.94"/><rect class="cls-2" x="4.99" y="82.36" width="2.14" height="0.94"/><rect class="cls-2" x="4.99" y="84.23" width="2.14" height="0.94"/><rect class="cls-2" x="4.99" y="86.11" width="2.14" height="0.94"/><rect class="cls-2" x="4.99" y="87.99" width="2.14" height="0.94"/><rect class="cls-2" x="4.99" y="89.86" width="2.14" height="0.94"/><rect class="cls-2" x="4.99" y="91.74" width="2.14" height="0.94"/><rect class="cls-2" x="4.99" y="93.61" width="2.14" height="0.94"/><rect class="cls-2" x="4.99" y="95.49" width="2.14" height="0.94"/><rect class="cls-2" x="4.99" y="97.36" width="2.14" height="0.94"/><rect class="cls-2" x="4.99" y="99.24" width="2.14" height="0.94"/><rect class="cls-2" x="4.99" y="101.11" width="2.14" height="0.94"/><rect class="cls-2" x="4.99" y="102.99" width="2.14" height="0.94"/><rect class="cls-2" x="4.99" y="104.86" width="2.14" height="0.94"/><rect class="cls-2" x="1.43" y="63.6" width="2.14" height="0.94"/><rect class="cls-2" x="1.43" y="65.48" width="2.14" height="0.94"/><rect class="cls-2" x="1.43" y="67.35" width="2.14" height="0.94"/><rect class="cls-2" x="1.43" y="69.23" width="2.14" height="0.94"/><rect class="cls-2" x="1.43" y="71.11" width="2.14" height="0.94"/><rect class="cls-2" x="1.43" y="72.98" width="2.14" height="0.94"/><rect class="cls-2" x="1.43" y="74.86" width="2.14" height="0.94"/><rect class="cls-2" x="1.43" y="76.73" width="2.14" height="0.94"/><rect class="cls-2" x="1.43" y="78.61" width="2.14" height="0.94"/><rect class="cls-2" x="1.43" y="80.48" width="2.14" height="0.94"/><rect class="cls-2" x="1.43" y="82.36" width="2.14" height="0.94"/><rect class="cls-2" x="1.43" y="84.23" width="2.14" height="0.94"/><rect class="cls-2" x="1.43" y="86.11" width="2.14" height="0.94"/><rect class="cls-2" x="1.43" y="87.99" width="2.14" height="0.94"/><rect class="cls-2" x="1.43" y="89.86" width="2.14" height="0.94"/><rect class="cls-2" x="1.43" y="91.74" width="2.14" height="0.94"/><rect class="cls-2" x="1.43" y="93.61" width="2.14" height="0.94"/><rect class="cls-2" x="1.43" y="95.49" width="2.14" height="0.94"/><rect class="cls-2" x="1.43" y="97.36" width="2.14" height="0.94"/><rect class="cls-2" x="1.43" y="99.24" width="2.14" height="0.94"/><rect class="cls-2" x="1.43" y="101.11" width="2.14" height="0.94"/><rect class="cls-2" x="1.43" y="102.99" width="2.14" height="0.94"/><rect class="cls-2" x="1.43" y="104.86" width="2.14" height="0.94"/><rect class="cls-2" x="15.69" y="106.74" width="2.14" height="0.94"/><rect class="cls-2" x="15.69" y="108.62" width="2.14" height="0.94"/><rect class="cls-2" x="15.69" y="110.49" width="2.14" height="0.94"/><rect class="cls-2" x="15.69" y="112.37" width="2.14" height="0.94"/><rect class="cls-2" x="15.69" y="114.24" width="2.14" height="0.94"/><rect class="cls-2" x="15.69" y="116.12" width="2.14" height="0.94"/><rect class="cls-2" x="15.69" y="117.99" width="2.14" height="0.94"/><rect class="cls-2" x="15.69" y="119.87" width="2.14" height="0.94"/><rect class="cls-2" x="15.69" y="121.74" width="2.14" height="0.94"/><rect class="cls-2" x="12.12" y="106.74" width="2.14" height="0.94"/><rect class="cls-2" x="12.12" y="108.62" width="2.14" height="0.94"/><rect class="cls-2" x="12.12" y="110.49" width="2.14" height="0.94"/><rect class="cls-2" x="12.12" y="112.37" width="2.14" height="0.94"/><rect class="cls-2" x="12.12" y="114.24" width="2.14" height="0.94"/><rect class="cls-2" x="12.12" y="116.12" width="2.14" height="0.94"/><rect class="cls-2" x="12.12" y="117.99" width="2.14" height="0.94"/><rect class="cls-2" x="12.12" y="119.87" width="2.14" height="0.94"/><rect class="cls-2" x="12.12" y="121.74" width="2.14" height="0.94"/><rect class="cls-2" x="8.56" y="106.74" width="2.14" height="0.94"/><rect class="cls-2" x="8.56" y="108.62" width="2.14" height="0.94"/><rect class="cls-2" x="8.56" y="110.49" width="2.14" height="0.94"/><rect class="cls-2" x="8.56" y="112.37" width="2.14" height="0.94"/><rect class="cls-2" x="8.56" y="114.24" width="2.14" height="0.94"/><rect class="cls-2" x="8.56" y="116.12" width="2.14" height="0.94"/><rect class="cls-2" x="8.56" y="117.99" width="2.14" height="0.94"/><rect class="cls-2" x="8.56" y="119.87" width="2.14" height="0.94"/><rect class="cls-2" x="8.56" y="121.74" width="2.14" height="0.94"/><rect class="cls-2" x="4.99" y="106.74" width="2.14" height="0.94"/><rect class="cls-2" x="4.99" y="108.62" width="2.14" height="0.94"/><rect class="cls-2" x="4.99" y="110.49" width="2.14" height="0.94"/><rect class="cls-2" x="4.99" y="112.37" width="2.14" height="0.94"/><rect class="cls-2" x="4.99" y="114.24" width="2.14" height="0.94"/><rect class="cls-2" x="4.99" y="116.12" width="2.14" height="0.94"/><rect class="cls-2" x="4.99" y="117.99" width="2.14" height="0.94"/><rect class="cls-2" x="4.99" y="119.87" width="2.14" height="0.94"/><rect class="cls-2" x="4.99" y="121.74" width="2.14" height="0.94"/><rect class="cls-2" x="1.43" y="106.74" width="2.14" height="0.94"/><rect class="cls-2" x="1.43" y="108.62" width="2.14" height="0.94"/><rect class="cls-2" x="1.43" y="110.49" width="2.14" height="0.94"/><rect class="cls-2" x="1.43" y="112.37" width="2.14" height="0.94"/><rect class="cls-2" x="1.43" y="114.24" width="2.14" height="0.94"/><rect class="cls-2" x="1.43" y="116.12" width="2.14" height="0.94"/><rect class="cls-2" x="1.43" y="117.99" width="2.14" height="0.94"/><rect class="cls-2" x="1.43" y="119.87" width="2.14" height="0.94"/><rect class="cls-2" x="1.43" y="121.74" width="2.14" height="0.94"/><rect class="cls-2" x="15.69" y="46.35" width="1.43" height="0.94"/><rect class="cls-2" x="12.12" y="46.35" width="2.14" height="0.94"/><rect class="cls-2" x="15.69" y="48.22" width="1.43" height="0.94"/><rect class="cls-2" x="15.69" y="50.1" width="1.43" height="0.94"/><rect class="cls-2" x="15.69" y="51.97" width="1.43" height="0.94"/><rect class="cls-2" x="15.69" y="53.85" width="1.43" height="0.94"/><rect class="cls-2" x="15.69" y="55.73" width="1.43" height="0.94"/><rect class="cls-2" x="15.69" y="57.6" width="1.43" height="0.94"/><rect class="cls-2" x="15.69" y="59.48" width="1.43" height="0.94"/><rect class="cls-2" x="12.12" y="48.22" width="2.14" height="0.94"/><rect class="cls-2" x="12.12" y="50.1" width="2.14" height="0.94"/><rect class="cls-2" x="12.12" y="51.97" width="2.14" height="0.94"/><rect class="cls-2" x="12.12" y="53.85" width="2.14" height="0.94"/><rect class="cls-2" x="12.12" y="55.73" width="2.14" height="0.94"/><rect class="cls-2" x="12.12" y="57.6" width="2.14" height="0.94"/><rect class="cls-2" x="12.12" y="59.48" width="2.14" height="0.94"/><rect class="cls-2" x="8.56" y="46.35" width="2.14" height="0.94"/><rect class="cls-2" x="8.56" y="48.22" width="2.14" height="0.94"/><rect class="cls-2" x="8.56" y="50.1" width="2.14" height="0.94"/><rect class="cls-2" x="8.56" y="51.97" width="2.14" height="0.94"/><rect class="cls-2" x="8.56" y="53.85" width="2.14" height="0.94"/><rect class="cls-2" x="8.56" y="55.73" width="2.14" height="0.94"/><rect class="cls-2" x="8.56" y="57.6" width="2.14" height="0.94"/><rect class="cls-2" x="8.56" y="59.48" width="2.14" height="0.94"/><rect class="cls-2" x="4.99" y="46.35" width="2.14" height="0.94"/><rect class="cls-2" x="4.99" y="48.22" width="2.14" height="0.94"/><rect class="cls-2" x="4.99" y="50.1" width="2.14" height="0.94"/><rect class="cls-2" x="4.99" y="51.97" width="2.14" height="0.94"/><rect class="cls-2" x="4.99" y="53.85" width="2.14" height="0.94"/><rect class="cls-2" x="4.99" y="55.73" width="2.14" height="0.94"/><rect class="cls-2" x="4.99" y="57.6" width="2.14" height="0.94"/><rect class="cls-2" x="4.99" y="59.48" width="2.14" height="0.94"/><rect class="cls-2" x="2.14" y="46.35" width="1.43" height="0.94"/><rect class="cls-2" x="2.14" y="48.22" width="1.43" height="0.94"/><rect class="cls-2" x="2.14" y="50.1" width="1.43" height="0.94"/><rect class="cls-2" x="2.14" y="51.97" width="1.43" height="0.94"/><rect class="cls-2" x="2.14" y="53.85" width="1.43" height="0.94"/><rect class="cls-2" x="2.14" y="55.73" width="1.43" height="0.94"/><rect class="cls-2" x="2.14" y="57.6" width="1.43" height="0.94"/><rect class="cls-2" x="2.14" y="59.48" width="1.43" height="0.94"/><rect class="cls-2" x="12.12" y="32.84" width="2.14" height="0.94"/><rect class="cls-2" x="12.12" y="34.72" width="2.14" height="0.94"/><rect class="cls-2" x="12.12" y="36.59" width="2.14" height="0.94"/><rect class="cls-2" x="12.12" y="38.47" width="2.14" height="0.94"/><rect class="cls-2" x="12.12" y="40.35" width="2.14" height="0.94"/><rect class="cls-2" x="12.12" y="42.22" width="2.14" height="0.94"/><rect class="cls-2" x="8.56" y="32.84" width="2.14" height="0.94"/><rect class="cls-2" x="8.56" y="34.72" width="2.14" height="0.94"/><rect class="cls-2" x="8.56" y="36.59" width="2.14" height="0.94"/><rect class="cls-2" x="8.56" y="38.47" width="2.14" height="0.94"/><rect class="cls-2" x="8.56" y="40.35" width="2.14" height="0.94"/><rect class="cls-2" x="8.56" y="42.22" width="2.14" height="0.94"/><rect class="cls-2" x="4.99" y="32.84" width="2.14" height="0.94"/><rect class="cls-2" x="4.99" y="34.72" width="2.14" height="0.94"/><rect class="cls-2" x="4.99" y="36.59" width="2.14" height="0.94"/><rect class="cls-2" x="4.99" y="38.47" width="2.14" height="0.94"/><rect class="cls-2" x="4.99" y="40.35" width="2.14" height="0.94"/><rect class="cls-2" x="4.99" y="42.22" width="2.14" height="0.94"/><rect class="cls-2" x="12.12" y="24.97" width="2.14" height="0.94"/><rect class="cls-2" x="12.12" y="26.84" width="2.14" height="0.94"/><rect class="cls-2" x="12.12" y="28.72" width="2.14" height="0.94"/><rect class="cls-2" x="8.56" y="24.97" width="2.14" height="0.94"/><rect class="cls-2" x="8.56" y="26.84" width="2.14" height="0.94"/><rect class="cls-2" x="8.56" y="28.72" width="2.14" height="0.94"/><rect class="cls-2" x="4.99" y="24.97" width="2.14" height="0.94"/><rect class="cls-2" x="4.99" y="26.84" width="2.14" height="0.94"/><rect class="cls-2" x="4.99" y="28.72" width="2.14" height="0.94"/><rect class="cls-2" x="12.12" y="20.66" width="1.43" height="0.94"/><rect class="cls-2" x="8.56" y="20.66" width="2.14" height="0.94"/><rect class="cls-2" x="5.7" y="20.66" width="1.43" height="0.94"/><rect class="cls-3" x="3.56" y="31.94" width="1.43" height="91.68"/><rect class="cls-3" x="7.14" y="16.83" width="1.43" height="106.79"/><rect class="cls-3" x="10.7" y="16.83" width="1.43" height="106.79"/><rect class="cls-3" x="14.27" y="31.94" width="1.43" height="91.68"/><polygon class="cls-2" points="19.25 62.01 17.83 61.32 17.83 62.7 19.25 63.39 19.25 62.01"/><rect class="cls-4" x="15.69" y="61.32" width="2.14" height="1.38"/><rect class="cls-4" x="12.12" y="61.32" width="2.14" height="1.38"/><rect class="cls-4" x="8.56" y="61.32" width="2.14" height="1.38"/><rect class="cls-4" x="4.99" y="61.32" width="2.14" height="1.38"/><rect class="cls-4" x="1.43" y="61.32" width="2.14" height="1.38"/><polygon class="cls-2" points="1.43 61.32 0 62.01 0 63.39 1.43 62.7 1.43 61.32"/><rect class="cls-2" x="3.57" y="61.32" width="1.43" height="1.38"/><rect class="cls-2" x="7.13" y="61.32" width="1.43" height="1.38"/><rect class="cls-2" x="10.7" y="61.32" width="1.43" height="1.38"/><rect class="cls-2" x="14.26" y="61.32" width="1.43" height="1.38"/><rect class="cls-4" x="12.12" y="44.06" width="2.14" height="1.38"/><rect class="cls-4" x="8.56" y="44.06" width="2.14" height="1.38"/><rect class="cls-4" x="4.99" y="44.06" width="2.14" height="1.38"/><rect class="cls-2" x="3.57" y="44.06" width="1.43" height="1.38"/><rect class="cls-2" x="7.13" y="44.06" width="1.43" height="1.38"/><rect class="cls-2" x="10.7" y="44.06" width="1.43" height="1.38"/><rect class="cls-2" x="14.26" y="44.06" width="1.43" height="1.38"/><polygon class="cls-4" points="17.11 44.75 15.69 44.06 15.69 45.44 17.11 46.13 17.11 44.75"/><polygon class="cls-2" points="18.54 45.44 17.11 44.75 17.11 46.13 18.54 46.82 18.54 45.44"/><polygon class="cls-4" points="2.14 44.75 3.56 44.06 3.56 45.44 2.14 46.13 2.14 44.75"/><polygon class="cls-2" points="0.71 45.44 2.14 44.75 2.14 46.13 0.71 46.82 0.71 45.44"/><rect class="cls-4" x="12.12" y="30.56" width="2.14" height="1.38"/><rect class="cls-4" x="8.56" y="30.56" width="2.14" height="1.38"/><rect class="cls-4" x="4.99" y="30.56" width="2.14" height="1.38"/><rect class="cls-2" x="7.13" y="30.56" width="1.43" height="1.38"/><rect class="cls-2" x="10.7" y="30.56" width="1.43" height="1.38"/><polygon class="cls-2" points="15.69 31.25 14.26 30.56 14.26 31.94 15.69 32.63 15.69 31.25"/><polygon class="cls-4" points="17.11 31.94 15.69 31.25 15.69 32.63 17.11 33.32 17.11 31.94"/><polygon class="cls-2" points="3.56 31.25 4.99 30.56 4.99 31.94 3.56 32.63 3.56 31.25"/><polygon class="cls-4" points="2.14 31.94 3.56 31.25 3.56 32.63 2.14 33.32 2.14 31.94"/><rect class="cls-4" x="8.56" y="22.68" width="2.14" height="1.38"/><rect class="cls-2" x="7.13" y="22.68" width="1.43" height="1.38"/><rect class="cls-2" x="10.7" y="22.68" width="1.43" height="1.38"/><polygon class="cls-2" points="14.97 24.06 13.55 23.37 13.55 24.75 14.97 25.44 14.97 24.06"/><polygon class="cls-4" points="16.4 24.75 14.97 24.06 14.97 25.44 16.4 26.13 16.4 24.75"/><polygon class="cls-4" points="13.55 23.37 12.12 22.68 12.12 24.06 13.55 24.75 13.55 23.37"/><polygon class="cls-2" points="4.28 24.06 5.7 23.37 5.7 24.75 4.28 25.44 4.28 24.06"/><polygon class="cls-4" points="2.85 24.75 4.28 24.06 4.28 25.44 2.85 26.13 2.85 24.75"/><polygon class="cls-4" points="5.7 23.37 7.13 22.68 7.13 24.06 5.7 24.75 5.7 23.37"/><rect class="cls-4" x="8.56" y="18.37" width="2.14" height="1.38"/><rect class="cls-2" x="7.13" y="18.37" width="1.43" height="1.38"/><rect class="cls-2" x="10.7" y="18.37" width="1.43" height="1.38"/><polygon class="cls-2" points="14.97 19.75 13.55 19.07 13.55 20.45 14.97 21.14 14.97 19.75"/><polygon class="cls-4" points="13.55 19.07 12.12 18.38 12.12 19.75 13.55 20.45 13.55 19.07"/><polygon class="cls-2" points="4.28 19.75 5.7 19.07 5.7 20.45 4.28 21.14 4.28 19.75"/><polygon class="cls-4" points="5.7 19.07 7.13 18.38 7.13 19.75 5.7 20.45 5.7 19.07"/><rect class="cls-2" y="123.62" width="19.25" height="1.38"/><rect class="cls-1" x="7.88" y="11.74" width="3.5" height="1.25"/><polygon class="cls-4" points="9.01 8.99 10.25 8.99 11.38 11.74 7.88 11.74 9.01 8.99"/><path class="cls-1" d="M9.62,0h0A.33.33,0,0,1,10,.33V9a0,0,0,0,1,0,0H9.29a0,0,0,0,1,0,0V.33A.33.33,0,0,1,9.62,0Z"/><ellipse class="cls-2" cx="9.63" cy="6.65" rx="1.1" ry="1.06"/><rect class="cls-2" x="7.23" y="12.99" width="4.8" height="2.46"/><rect class="cls-4" x="5.8" y="15.45" width="7.65" height="1.38"/><polygon class="cls-1" points="53.57 62.7 53.57 46.48 52.15 45.79 52.15 32.97 51.44 32.63 51.44 25.79 50.01 25.1 50.01 20.79 48.49 20.05 48.49 16.83 42.26 16.83 42.26 20.05 40.74 20.79 40.74 25.1 39.31 25.79 39.31 32.63 38.6 32.97 38.6 45.79 37.17 46.48 37.17 62.7 36.46 63.04 36.46 123.62 54.29 123.62 54.29 63.04 53.57 62.7"/><rect class="cls-2" x="51.43" y="63.6" width="2.14" height="0.94"/><rect class="cls-2" x="47.87" y="63.6" width="2.14" height="0.94"/><rect class="cls-2" x="51.43" y="65.48" width="2.14" height="0.94"/><rect class="cls-2" x="51.43" y="67.35" width="2.14" height="0.94"/><rect class="cls-2" x="51.43" y="69.23" width="2.14" height="0.94"/><rect class="cls-2" x="51.43" y="71.11" width="2.14" height="0.94"/><rect class="cls-2" x="51.43" y="72.98" width="2.14" height="0.94"/><rect class="cls-2" x="51.43" y="74.86" width="2.14" height="0.94"/><rect class="cls-2" x="51.43" y="76.73" width="2.14" height="0.94"/><rect class="cls-2" x="51.43" y="78.61" width="2.14" height="0.94"/><rect class="cls-2" x="51.43" y="80.48" width="2.14" height="0.94"/><rect class="cls-2" x="51.43" y="82.36" width="2.14" height="0.94"/><rect class="cls-2" x="51.43" y="84.23" width="2.14" height="0.94"/><rect class="cls-2" x="51.43" y="86.11" width="2.14" height="0.94"/><rect class="cls-2" x="51.43" y="87.99" width="2.14" height="0.94"/><rect class="cls-2" x="51.43" y="89.86" width="2.14" height="0.94"/><rect class="cls-2" x="51.43" y="91.74" width="2.14" height="0.94"/><rect class="cls-2" x="51.43" y="93.61" width="2.14" height="0.94"/><rect class="cls-2" x="51.43" y="95.49" width="2.14" height="0.94"/><rect class="cls-2" x="51.43" y="97.36" width="2.14" height="0.94"/><rect class="cls-2" x="51.43" y="99.24" width="2.14" height="0.94"/><rect class="cls-2" x="51.43" y="101.11" width="2.14" height="0.94"/><rect class="cls-2" x="51.43" y="102.99" width="2.14" height="0.94"/><rect class="cls-2" x="51.43" y="104.86" width="2.14" height="0.94"/><rect class="cls-2" x="47.87" y="65.48" width="2.14" height="0.94"/><rect class="cls-2" x="47.87" y="67.35" width="2.14" height="0.94"/><rect class="cls-2" x="47.87" y="69.23" width="2.14" height="0.94"/><rect class="cls-2" x="47.87" y="71.11" width="2.14" height="0.94"/><rect class="cls-2" x="47.87" y="72.98" width="2.14" height="0.94"/><rect class="cls-2" x="47.87" y="74.86" width="2.14" height="0.94"/><rect class="cls-2" x="47.87" y="76.73" width="2.14" height="0.94"/><rect class="cls-2" x="47.87" y="78.61" width="2.14" height="0.94"/><rect class="cls-2" x="47.87" y="80.48" width="2.14" height="0.94"/><rect class="cls-2" x="47.87" y="82.36" width="2.14" height="0.94"/><rect class="cls-2" x="47.87" y="84.23" width="2.14" height="0.94"/><rect class="cls-2" x="47.87" y="86.11" width="2.14" height="0.94"/><rect class="cls-2" x="47.87" y="87.99" width="2.14" height="0.94"/><rect class="cls-2" x="47.87" y="89.86" width="2.14" height="0.94"/><rect class="cls-2" x="47.87" y="91.74" width="2.14" height="0.94"/><rect class="cls-2" x="47.87" y="93.61" width="2.14" height="0.94"/><rect class="cls-2" x="47.87" y="95.49" width="2.14" height="0.94"/><rect class="cls-2" x="47.87" y="97.36" width="2.14" height="0.94"/><rect class="cls-2" x="47.87" y="99.24" width="2.14" height="0.94"/><rect class="cls-2" x="47.87" y="101.11" width="2.14" height="0.94"/><rect class="cls-2" x="47.87" y="102.99" width="2.14" height="0.94"/><rect class="cls-2" x="47.87" y="104.86" width="2.14" height="0.94"/><rect class="cls-2" x="44.3" y="63.6" width="2.14" height="0.94"/><rect class="cls-2" x="44.3" y="65.48" width="2.14" height="0.94"/><rect class="cls-2" x="44.3" y="67.35" width="2.14" height="0.94"/><rect class="cls-2" x="44.3" y="69.23" width="2.14" height="0.94"/><rect class="cls-2" x="44.3" y="71.11" width="2.14" height="0.94"/><rect class="cls-2" x="44.3" y="72.98" width="2.14" height="0.94"/><rect class="cls-2" x="44.3" y="74.86" width="2.14" height="0.94"/><rect class="cls-2" x="44.3" y="76.73" width="2.14" height="0.94"/><rect class="cls-2" x="44.3" y="78.61" width="2.14" height="0.94"/><rect class="cls-2" x="44.3" y="80.48" width="2.14" height="0.94"/><rect class="cls-2" x="44.3" y="82.36" width="2.14" height="0.94"/><rect class="cls-2" x="44.3" y="84.23" width="2.14" height="0.94"/><rect class="cls-2" x="44.3" y="86.11" width="2.14" height="0.94"/><rect class="cls-2" x="44.3" y="87.99" width="2.14" height="0.94"/><rect class="cls-2" x="44.3" y="89.86" width="2.14" height="0.94"/><rect class="cls-2" x="44.3" y="91.74" width="2.14" height="0.94"/><rect class="cls-2" x="44.3" y="93.61" width="2.14" height="0.94"/><rect class="cls-2" x="44.3" y="95.49" width="2.14" height="0.94"/><rect class="cls-2" x="44.3" y="97.36" width="2.14" height="0.94"/><rect class="cls-2" x="44.3" y="99.24" width="2.14" height="0.94"/><rect class="cls-2" x="44.3" y="101.11" width="2.14" height="0.94"/><rect class="cls-2" x="44.3" y="102.99" width="2.14" height="0.94"/><rect class="cls-2" x="44.3" y="104.86" width="2.14" height="0.94"/><rect class="cls-2" x="40.74" y="63.6" width="2.14" height="0.94"/><rect class="cls-2" x="40.74" y="65.48" width="2.14" height="0.94"/><rect class="cls-2" x="40.74" y="67.35" width="2.14" height="0.94"/><rect class="cls-2" x="40.74" y="69.23" width="2.14" height="0.94"/><rect class="cls-2" x="40.74" y="71.11" width="2.14" height="0.94"/><rect class="cls-2" x="40.74" y="72.98" width="2.14" height="0.94"/><rect class="cls-2" x="40.74" y="74.86" width="2.14" height="0.94"/><rect class="cls-2" x="40.74" y="76.73" width="2.14" height="0.94"/><rect class="cls-2" x="40.74" y="78.61" width="2.14" height="0.94"/><rect class="cls-2" x="40.74" y="80.48" width="2.14" height="0.94"/><rect class="cls-2" x="40.74" y="82.36" width="2.14" height="0.94"/><rect class="cls-2" x="40.74" y="84.23" width="2.14" height="0.94"/><rect class="cls-2" x="40.74" y="86.11" width="2.14" height="0.94"/><rect class="cls-2" x="40.74" y="87.99" width="2.14" height="0.94"/><rect class="cls-2" x="40.74" y="89.86" width="2.14" height="0.94"/><rect class="cls-2" x="40.74" y="91.74" width="2.14" height="0.94"/><rect class="cls-2" x="40.74" y="93.61" width="2.14" height="0.94"/><rect class="cls-2" x="40.74" y="95.49" width="2.14" height="0.94"/><rect class="cls-2" x="40.74" y="97.36" width="2.14" height="0.94"/><rect class="cls-2" x="40.74" y="99.24" width="2.14" height="0.94"/><rect class="cls-2" x="40.74" y="101.11" width="2.14" height="0.94"/><rect class="cls-2" x="40.74" y="102.99" width="2.14" height="0.94"/><rect class="cls-2" x="40.74" y="104.86" width="2.14" height="0.94"/><rect class="cls-2" x="37.17" y="63.6" width="2.14" height="0.94"/><rect class="cls-2" x="37.17" y="65.48" width="2.14" height="0.94"/><rect class="cls-2" x="37.17" y="67.35" width="2.14" height="0.94"/><rect class="cls-2" x="37.17" y="69.23" width="2.14" height="0.94"/><rect class="cls-2" x="37.17" y="71.11" width="2.14" height="0.94"/><rect class="cls-2" x="37.17" y="72.98" width="2.14" height="0.94"/><rect class="cls-2" x="37.17" y="74.86" width="2.14" height="0.94"/><rect class="cls-2" x="37.17" y="76.73" width="2.14" height="0.94"/><rect class="cls-2" x="37.17" y="78.61" width="2.14" height="0.94"/><rect class="cls-2" x="37.17" y="80.48" width="2.14" height="0.94"/><rect class="cls-2" x="37.17" y="82.36" width="2.14" height="0.94"/><rect class="cls-2" x="37.17" y="84.23" width="2.14" height="0.94"/><rect class="cls-2" x="37.17" y="86.11" width="2.14" height="0.94"/><rect class="cls-2" x="37.17" y="87.99" width="2.14" height="0.94"/><rect class="cls-2" x="37.17" y="89.86" width="2.14" height="0.94"/><rect class="cls-2" x="37.17" y="91.74" width="2.14" height="0.94"/><rect class="cls-2" x="37.17" y="93.61" width="2.14" height="0.94"/><rect class="cls-2" x="37.17" y="95.49" width="2.14" height="0.94"/><rect class="cls-2" x="37.17" y="97.36" width="2.14" height="0.94"/><rect class="cls-2" x="37.17" y="99.24" width="2.14" height="0.94"/><rect class="cls-2" x="37.17" y="101.11" width="2.14" height="0.94"/><rect class="cls-2" x="37.17" y="102.99" width="2.14" height="0.94"/><rect class="cls-2" x="37.17" y="104.86" width="2.14" height="0.94"/><rect class="cls-2" x="51.43" y="106.74" width="2.14" height="0.94"/><rect class="cls-2" x="51.43" y="108.62" width="2.14" height="0.94"/><rect class="cls-2" x="51.43" y="110.49" width="2.14" height="0.94"/><rect class="cls-2" x="51.43" y="112.37" width="2.14" height="0.94"/><rect class="cls-2" x="51.43" y="114.24" width="2.14" height="0.94"/><rect class="cls-2" x="51.43" y="116.12" width="2.14" height="0.94"/><rect class="cls-2" x="51.43" y="117.99" width="2.14" height="0.94"/><rect class="cls-2" x="51.43" y="119.87" width="2.14" height="0.94"/><rect class="cls-2" x="51.43" y="121.74" width="2.14" height="0.94"/><rect class="cls-2" x="47.87" y="106.74" width="2.14" height="0.94"/><rect class="cls-2" x="47.87" y="108.62" width="2.14" height="0.94"/><rect class="cls-2" x="47.87" y="110.49" width="2.14" height="0.94"/><rect class="cls-2" x="47.87" y="112.37" width="2.14" height="0.94"/><rect class="cls-2" x="47.87" y="114.24" width="2.14" height="0.94"/><rect class="cls-2" x="47.87" y="116.12" width="2.14" height="0.94"/><rect class="cls-2" x="47.87" y="117.99" width="2.14" height="0.94"/><rect class="cls-2" x="47.87" y="119.87" width="2.14" height="0.94"/><rect class="cls-2" x="47.87" y="121.74" width="2.14" height="0.94"/><rect class="cls-2" x="44.3" y="106.74" width="2.14" height="0.94"/><rect class="cls-2" x="44.3" y="108.62" width="2.14" height="0.94"/><rect class="cls-2" x="44.3" y="110.49" width="2.14" height="0.94"/><rect class="cls-2" x="44.3" y="112.37" width="2.14" height="0.94"/><rect class="cls-2" x="44.3" y="114.24" width="2.14" height="0.94"/><rect class="cls-2" x="44.3" y="116.12" width="2.14" height="0.94"/><rect class="cls-2" x="44.3" y="117.99" width="2.14" height="0.94"/><rect class="cls-2" x="44.3" y="119.87" width="2.14" height="0.94"/><rect class="cls-2" x="44.3" y="121.74" width="2.14" height="0.94"/><rect class="cls-2" x="40.74" y="106.74" width="2.14" height="0.94"/><rect class="cls-2" x="40.74" y="108.62" width="2.14" height="0.94"/><rect class="cls-2" x="40.74" y="110.49" width="2.14" height="0.94"/><rect class="cls-2" x="40.74" y="112.37" width="2.14" height="0.94"/><rect class="cls-2" x="40.74" y="114.24" width="2.14" height="0.94"/><rect class="cls-2" x="40.74" y="116.12" width="2.14" height="0.94"/><rect class="cls-2" x="40.74" y="117.99" width="2.14" height="0.94"/><rect class="cls-2" x="40.74" y="119.87" width="2.14" height="0.94"/><rect class="cls-2" x="40.74" y="121.74" width="2.14" height="0.94"/><rect class="cls-2" x="37.17" y="106.74" width="2.14" height="0.94"/><rect class="cls-2" x="37.17" y="108.62" width="2.14" height="0.94"/><rect class="cls-2" x="37.17" y="110.49" width="2.14" height="0.94"/><rect class="cls-2" x="37.17" y="112.37" width="2.14" height="0.94"/><rect class="cls-2" x="37.17" y="114.24" width="2.14" height="0.94"/><rect class="cls-2" x="37.17" y="116.12" width="2.14" height="0.94"/><rect class="cls-2" x="37.17" y="117.99" width="2.14" height="0.94"/><rect class="cls-2" x="37.17" y="119.87" width="2.14" height="0.94"/><rect class="cls-2" x="37.17" y="121.74" width="2.14" height="0.94"/><rect class="cls-2" x="51.43" y="46.35" width="1.43" height="0.94"/><rect class="cls-2" x="47.87" y="46.35" width="2.14" height="0.94"/><rect class="cls-2" x="51.43" y="48.22" width="1.43" height="0.94"/><rect class="cls-2" x="51.43" y="50.1" width="1.43" height="0.94"/><rect class="cls-2" x="51.43" y="51.97" width="1.43" height="0.94"/><rect class="cls-2" x="51.43" y="53.85" width="1.43" height="0.94"/><rect class="cls-2" x="51.43" y="55.73" width="1.43" height="0.94"/><rect class="cls-2" x="51.43" y="57.6" width="1.43" height="0.94"/><rect class="cls-2" x="51.43" y="59.48" width="1.43" height="0.94"/><rect class="cls-2" x="47.87" y="48.22" width="2.14" height="0.94"/><rect class="cls-2" x="47.87" y="50.1" width="2.14" height="0.94"/><rect class="cls-2" x="47.87" y="51.97" width="2.14" height="0.94"/><rect class="cls-2" x="47.87" y="53.85" width="2.14" height="0.94"/><rect class="cls-2" x="47.87" y="55.73" width="2.14" height="0.94"/><rect class="cls-2" x="47.87" y="57.6" width="2.14" height="0.94"/><rect class="cls-2" x="47.87" y="59.48" width="2.14" height="0.94"/><rect class="cls-2" x="44.3" y="46.35" width="2.14" height="0.94"/><rect class="cls-2" x="44.3" y="48.22" width="2.14" height="0.94"/><rect class="cls-2" x="44.3" y="50.1" width="2.14" height="0.94"/><rect class="cls-2" x="44.3" y="51.97" width="2.14" height="0.94"/><rect class="cls-2" x="44.3" y="53.85" width="2.14" height="0.94"/><rect class="cls-2" x="44.3" y="55.73" width="2.14" height="0.94"/><rect class="cls-2" x="44.3" y="57.6" width="2.14" height="0.94"/><rect class="cls-2" x="44.3" y="59.48" width="2.14" height="0.94"/><rect class="cls-2" x="40.74" y="46.35" width="2.14" height="0.94"/><rect class="cls-2" x="40.74" y="48.22" width="2.14" height="0.94"/><rect class="cls-2" x="40.74" y="50.1" width="2.14" height="0.94"/><rect class="cls-2" x="40.74" y="51.97" width="2.14" height="0.94"/><rect class="cls-2" x="40.74" y="53.85" width="2.14" height="0.94"/><rect class="cls-2" x="40.74" y="55.73" width="2.14" height="0.94"/><rect class="cls-2" x="40.74" y="57.6" width="2.14" height="0.94"/><rect class="cls-2" x="40.74" y="59.48" width="2.14" height="0.94"/><rect class="cls-2" x="37.89" y="46.35" width="1.43" height="0.94"/><rect class="cls-2" x="37.89" y="48.22" width="1.43" height="0.94"/><rect class="cls-2" x="37.89" y="50.1" width="1.43" height="0.94"/><rect class="cls-2" x="37.89" y="51.97" width="1.43" height="0.94"/><rect class="cls-2" x="37.89" y="53.85" width="1.43" height="0.94"/><rect class="cls-2" x="37.89" y="55.73" width="1.43" height="0.94"/><rect class="cls-2" x="37.89" y="57.6" width="1.43" height="0.94"/><rect class="cls-2" x="37.89" y="59.48" width="1.43" height="0.94"/><rect class="cls-2" x="47.87" y="32.84" width="2.14" height="0.94"/><rect class="cls-2" x="47.87" y="34.72" width="2.14" height="0.94"/><rect class="cls-2" x="47.87" y="36.59" width="2.14" height="0.94"/><rect class="cls-2" x="47.87" y="38.47" width="2.14" height="0.94"/><rect class="cls-2" x="47.87" y="40.35" width="2.14" height="0.94"/><rect class="cls-2" x="47.87" y="42.22" width="2.14" height="0.94"/><rect class="cls-2" x="44.3" y="32.84" width="2.14" height="0.94"/><rect class="cls-2" x="44.3" y="34.72" width="2.14" height="0.94"/><rect class="cls-2" x="44.3" y="36.59" width="2.14" height="0.94"/><rect class="cls-2" x="44.3" y="38.47" width="2.14" height="0.94"/><rect class="cls-2" x="44.3" y="40.35" width="2.14" height="0.94"/><rect class="cls-2" x="44.3" y="42.22" width="2.14" height="0.94"/><rect class="cls-2" x="40.74" y="32.84" width="2.14" height="0.94"/><rect class="cls-2" x="40.74" y="34.72" width="2.14" height="0.94"/><rect class="cls-2" x="40.74" y="36.59" width="2.14" height="0.94"/><rect class="cls-2" x="40.74" y="38.47" width="2.14" height="0.94"/><rect class="cls-2" x="40.74" y="40.35" width="2.14" height="0.94"/><rect class="cls-2" x="40.74" y="42.22" width="2.14" height="0.94"/><rect class="cls-2" x="47.87" y="24.97" width="2.14" height="0.94"/><rect class="cls-2" x="47.87" y="26.84" width="2.14" height="0.94"/><rect class="cls-2" x="47.87" y="28.72" width="2.14" height="0.94"/><rect class="cls-2" x="44.3" y="24.97" width="2.14" height="0.94"/><rect class="cls-2" x="44.3" y="26.84" width="2.14" height="0.94"/><rect class="cls-2" x="44.3" y="28.72" width="2.14" height="0.94"/><rect class="cls-2" x="40.74" y="24.97" width="2.14" height="0.94"/><rect class="cls-2" x="40.74" y="26.84" width="2.14" height="0.94"/><rect class="cls-2" x="40.74" y="28.72" width="2.14" height="0.94"/><rect class="cls-2" x="47.87" y="20.66" width="1.43" height="0.94"/><rect class="cls-2" x="44.3" y="20.66" width="2.14" height="0.94"/><rect class="cls-2" x="41.45" y="20.66" width="1.43" height="0.94"/><rect class="cls-3" x="39.31" y="31.94" width="1.43" height="91.68"/><rect class="cls-3" x="42.88" y="16.83" width="1.43" height="106.79"/><rect class="cls-3" x="46.45" y="16.83" width="1.43" height="106.79"/><rect class="cls-3" x="50.01" y="31.94" width="1.43" height="91.68"/><polygon class="cls-2" points="55 62.01 53.57 61.32 53.57 62.7 55 63.39 55 62.01"/><rect class="cls-4" x="51.43" y="61.32" width="2.14" height="1.38"/><rect class="cls-4" x="47.87" y="61.32" width="2.14" height="1.38"/><rect class="cls-4" x="44.3" y="61.32" width="2.14" height="1.38"/><rect class="cls-4" x="40.74" y="61.32" width="2.14" height="1.38"/><rect class="cls-4" x="37.17" y="61.32" width="2.14" height="1.38"/><polygon class="cls-2" points="37.17 61.32 35.75 62.01 35.75 63.39 37.17 62.7 37.17 61.32"/><rect class="cls-2" x="39.31" y="61.32" width="1.43" height="1.38"/><rect class="cls-2" x="42.88" y="61.32" width="1.43" height="1.38"/><rect class="cls-2" x="46.44" y="61.32" width="1.43" height="1.38"/><rect class="cls-2" x="50.01" y="61.32" width="1.43" height="1.38"/><rect class="cls-4" x="47.87" y="44.06" width="2.14" height="1.38"/><rect class="cls-4" x="44.3" y="44.06" width="2.14" height="1.38"/><rect class="cls-4" x="40.74" y="44.06" width="2.14" height="1.38"/><rect class="cls-2" x="39.31" y="44.06" width="1.43" height="1.38"/><rect class="cls-2" x="42.88" y="44.06" width="1.43" height="1.38"/><rect class="cls-2" x="46.44" y="44.06" width="1.43" height="1.38"/><rect class="cls-2" x="50.01" y="44.06" width="1.43" height="1.38"/><polygon class="cls-4" points="52.86 44.75 51.44 44.06 51.44 45.44 52.86 46.13 52.86 44.75"/><polygon class="cls-2" points="54.29 45.44 52.86 44.75 52.86 46.13 54.29 46.82 54.29 45.44"/><polygon class="cls-4" points="37.89 44.75 39.31 44.06 39.31 45.44 37.89 46.13 37.89 44.75"/><polygon class="cls-2" points="36.46 45.44 37.89 44.75 37.89 46.13 36.46 46.82 36.46 45.44"/><rect class="cls-4" x="47.87" y="30.56" width="2.14" height="1.38"/><rect class="cls-4" x="44.3" y="30.56" width="2.14" height="1.38"/><rect class="cls-4" x="40.74" y="30.56" width="2.14" height="1.38"/><rect class="cls-2" x="42.88" y="30.56" width="1.43" height="1.38"/><rect class="cls-2" x="46.44" y="30.56" width="1.43" height="1.38"/><polygon class="cls-2" points="51.44 31.25 50.01 30.56 50.01 31.94 51.44 32.63 51.44 31.25"/><polygon class="cls-4" points="52.86 31.94 51.44 31.25 51.44 32.63 52.86 33.32 52.86 31.94"/><polygon class="cls-2" points="39.31 31.25 40.74 30.56 40.74 31.94 39.31 32.63 39.31 31.25"/><polygon class="cls-4" points="37.89 31.94 39.31 31.25 39.31 32.63 37.89 33.32 37.89 31.94"/><rect class="cls-4" x="44.3" y="22.68" width="2.14" height="1.38"/><rect class="cls-2" x="42.88" y="22.68" width="1.43" height="1.38"/><rect class="cls-2" x="46.44" y="22.68" width="1.43" height="1.38"/><polygon class="cls-2" points="50.72 24.06 49.3 23.37 49.3 24.75 50.72 25.44 50.72 24.06"/><polygon class="cls-4" points="52.15 24.75 50.72 24.06 50.72 25.44 52.15 26.13 52.15 24.75"/><polygon class="cls-4" points="49.3 23.37 47.87 22.68 47.87 24.06 49.3 24.75 49.3 23.37"/><polygon class="cls-2" points="40.03 24.06 41.45 23.37 41.45 24.75 40.03 25.44 40.03 24.06"/><polygon class="cls-4" points="38.6 24.75 40.03 24.06 40.03 25.44 38.6 26.13 38.6 24.75"/><polygon class="cls-4" points="41.45 23.37 42.88 22.68 42.88 24.06 41.45 24.75 41.45 23.37"/><rect class="cls-4" x="44.3" y="18.37" width="2.14" height="1.38"/><rect class="cls-2" x="42.88" y="18.37" width="1.43" height="1.38"/><rect class="cls-2" x="46.44" y="18.37" width="1.43" height="1.38"/><polygon class="cls-2" points="50.72 19.75 49.3 19.07 49.3 20.45 50.72 21.14 50.72 19.75"/><polygon class="cls-4" points="49.3 19.07 47.87 18.38 47.87 19.75 49.3 20.45 49.3 19.07"/><polygon class="cls-2" points="40.03 19.75 41.45 19.07 41.45 20.45 40.03 21.14 40.03 19.75"/><polygon class="cls-4" points="41.45 19.07 42.88 18.38 42.88 19.75 41.45 20.45 41.45 19.07"/><rect class="cls-2" x="35.75" y="123.62" width="19.25" height="1.38"/><rect class="cls-1" x="43.62" y="11.74" width="3.5" height="1.25"/><polygon class="cls-4" points="44.75 8.99 45.99 8.99 47.12 11.74 43.63 11.74 44.75 8.99"/><path class="cls-1" d="M45.37,0h0a.33.33,0,0,1,.33.33V9a0,0,0,0,1,0,0H45a0,0,0,0,1,0,0V.33A.33.33,0,0,1,45.37,0Z"/><ellipse class="cls-2" cx="45.37" cy="6.65" rx="1.1" ry="1.06"/><rect class="cls-2" x="42.97" y="12.99" width="4.8" height="2.46"/><rect class="cls-4" x="41.55" y="15.45" width="7.65" height="1.38"/></g></g></svg>