<svg xmlns="http://www.w3.org/2000/svg" width="90" height="100" viewBox="0 0 90 100"><defs><style>.cls-1{fill:#804036;}.cls-2{fill:#f45a21;}.cls-3{fill:#fbb13c;}</style></defs><g id="レイヤー_2" data-name="レイヤー 2"><g id="図形"><path class="cls-1" d="M68.2,67a4,4,0,0,1-3,1.77A4.57,4.57,0,0,0,62.3,70.7a3.4,3.4,0,0,1-.82.83,1.14,1.14,0,0,0-.43,1.34,1.61,1.61,0,0,0,.14.5c.91,1.42.78,3,.87,4.62,0,.91.16,1.83.23,2.75a4.68,4.68,0,0,1-.56,2.49,4.34,4.34,0,0,1-.26.53c-1.17,1.59-1.07,3.36-.76,5.17a2,2,0,0,1-2,2.46,7,7,0,0,0-4.29,1,2.5,2.5,0,0,1-1.18.24A1.21,1.21,0,0,1,52,91.84a2.29,2.29,0,0,1,.21-2.4,2,2,0,0,1,1.89-.82,1.58,1.58,0,0,0-1.87.58,5.05,5.05,0,0,0-.63,1.67c-.1.52-.27.74-.79.81a6.21,6.21,0,0,1-2.8-.23,7,7,0,0,0-3.92-.51,6.77,6.77,0,0,0-.71.26c-.83.29-1.65.61-2.5.85a.72.72,0,0,1-.66-.32,1.23,1.23,0,0,1-.07-.92,7.23,7.23,0,0,1,2-2.41,7,7,0,0,0,1-1,7,7,0,0,1,4.74-2.91c.64-.12,1-.45,1-1.07,0-1,0-2.11,0-3.16s-.12-1.92-.21-2.87a1.35,1.35,0,0,0-.2-.71,2.58,2.58,0,0,1-.38-2.44c.12-.61.29-1.21.35-1.82.07-.79.14-.91.93-.92,1,0,2,0,3,0a7,7,0,0,0,3.19-.78c1.95-1,3.91-2,5.85-3,.56-.3,1-.78,1.57-1.1a27.1,27.1,0,0,1,2.87-1.51c1-.44,1.52-.18,2,.81.1.19.22.38.32.56Z"/><path class="cls-2" d="M25.05,34.86a4.14,4.14,0,0,1,0,.86C24.35,39.81,23.6,43.9,22.88,48c-.39,2.17-.77,4.35-1.1,6.54-.17,1.14-.2,2.3-.33,3.45a6.27,6.27,0,0,1-.31,1.49,2.45,2.45,0,0,1-4.19.7A4.88,4.88,0,0,1,15.65,58a1.48,1.48,0,0,0-1-.86c-2-.47-2.38-2.09-2.25-3.66A4.22,4.22,0,0,0,12,50.93,3.9,3.9,0,0,1,11.87,49a5.47,5.47,0,0,1,.39-1.35c.23-.72.09-1-.68-1.08a2.4,2.4,0,0,1-1.57-.8,2.43,2.43,0,0,1,.06-3.44,3.61,3.61,0,0,1,2.54-1.11,14.38,14.38,0,0,0,10.28-4.36c.64-.63,1.21-1.32,1.81-2Z"/><path class="cls-2" d="M25.05,99.65c-.32-.25-.86-.2-.95-.76a3.12,3.12,0,0,1,.14-2.17A11.42,11.42,0,0,1,25,95.55a1.37,1.37,0,0,1,2.39.08,4.15,4.15,0,0,1,.9,2.37c0,.91-.11,1.12-1,1.4a10.3,10.3,0,0,1-1.13.25Z"/><path class="cls-2" d="M29.78,99.19h-.23c-1,0-1.3-.57-.94-1.5a4.32,4.32,0,0,1,2.79-2.52.78.78,0,0,1,.7.28A16.12,16.12,0,0,1,33,97.67a.69.69,0,0,1-.49.88c-.88.28-1.76.54-2.63.8Z"/><path class="cls-2" d="M22.81,99.31c-.51,0-1-.06-1.22-.61a2.18,2.18,0,0,1,.09-2.28,8.38,8.38,0,0,1,1.08-1c.34-.27.67-.15.74.26a29.57,29.57,0,0,1,.38,3C23.91,99.17,23.61,99.32,22.81,99.31Z"/><path class="cls-2" d="M34.4,96.26a4.22,4.22,0,0,1-.31.82c-.25.42-.66.38-.89,0s-.5-.92-.71-1.4a1.5,1.5,0,0,1,1-1.71.54.54,0,0,1,.42.29C34.08,94.88,34.23,95.56,34.4,96.26Z"/><path class="cls-2" d="M18.63,96.71c0-.16,0-.32,0-.47.06-.42.31-.59.64-.31A20.35,20.35,0,0,1,21,97.58a.75.75,0,0,1,0,.71.9.9,0,0,1-.75.21A3.57,3.57,0,0,1,19,97.8a3.62,3.62,0,0,1-.52-1Z"/><path class="cls-1" d="M39.26,92.59c-.74,0-.9-.15-.84-.89a2.43,2.43,0,0,1,1.08-1.87c.16-.11.42-.07.63-.11a1.65,1.65,0,0,1,0,.63A1.64,1.64,0,0,0,40,91.86C40.29,92.36,40,92.59,39.26,92.59Z"/><path class="cls-1" d="M39.48,17.2h.93a8.09,8.09,0,0,1,1.29.52,21,21,0,0,1,5.11,4.66,15.59,15.59,0,0,1,3.1,7.83,42,42,0,0,1,.25,6.45,5.39,5.39,0,0,1-.48,2c-1,2.28-2,4.56-3.06,6.8a23.54,23.54,0,0,0-2.3,9.64,1.87,1.87,0,0,0,.07.4,6.49,6.49,0,0,1,.2,1.14c0,2.26,0,4.52,0,6.77a6.82,6.82,0,0,1-.36,2.31c-.74,1.92-1.61,3.78-2.44,5.65-.54,1.22-1.12,2.42-1.67,3.63-.41.91-.78,1.84-1.23,2.72-.64,1.25-1.35,2.46-2,3.71a11.93,11.93,0,0,0-1.27,4.62,3.59,3.59,0,0,1-.35,1.29A11.67,11.67,0,0,0,33.88,93a.93.93,0,0,1-.28.59c-.35.33-.73.61-1.11.91a1.42,1.42,0,0,1-.49.28,5.42,5.42,0,0,0-3,1.84c-.29.36-.54.32-.77-.07s-.4-.63-.57-1a1.59,1.59,0,0,0-2.87,0,3.71,3.71,0,0,1-.73.69,6.53,6.53,0,0,1-.37-.81c-.13-.48-.41-.57-.77-.31a9.46,9.46,0,0,0-1.28,1.09c-.77.8-.76.81-1.64.07-1-.87-1.84-1.87-1.55-3.37a38.42,38.42,0,0,1,1.61-7,4.94,4.94,0,0,0,.29-2.71,6.61,6.61,0,0,1,.05-2.73c.26-1.09.47-2.19.72-3.28a7,7,0,0,0-.59-4c-.29-.79-.58-1.58-.79-2.39a10.18,10.18,0,0,1-.18-1.58,13.91,13.91,0,0,0-.4,2.78,7.05,7.05,0,0,1-.58,3.14,25.22,25.22,0,0,1-1.73,3.25,8.57,8.57,0,0,0-1.56,5c0,2.58.17,5.17.39,7.75a3.45,3.45,0,0,1-.75,2.49,1.49,1.49,0,0,1-1.29.66,1.1,1.1,0,0,0-.84.35A7.83,7.83,0,0,1,9.1,97.29H8.17a8.72,8.72,0,0,0-1.89-.19,6.25,6.25,0,0,1-2.91-.29,2.28,2.28,0,0,1-1.6-2.28,3.37,3.37,0,0,0-.21-1.13,3.76,3.76,0,0,1,0-2.8,10.23,10.23,0,0,0,1-2.73,31.55,31.55,0,0,0,0-4.86,19,19,0,0,0-.45-3.37,69.05,69.05,0,0,1-2-9.85A9.93,9.93,0,0,1,.73,64.6c.42-.92.75-1.9,1.08-2.86s.59-1.85.88-2.78a.88.88,0,0,0,0-.23c-.08-.93-.18-1.87-.22-2.81a43.1,43.1,0,0,0-.88-7.76,7.24,7.24,0,0,1,.62-5.68,4.8,4.8,0,0,0,.47-2,10.34,10.34,0,0,0-.1-1.75c-.13-1.74-.27-3.48-.4-5.22a12.87,12.87,0,0,1,.74-6.18,5.15,5.15,0,0,1,1.89-2.26c.4-.27.61-.18.68.3.09.66.16,1.32.24,2,.31,2.61.58,5.22.94,7.82a7.3,7.3,0,0,0,5.86,5.94.64.64,0,0,1,.63.7,14.75,14.75,0,0,0,1.11,5,18,18,0,0,0,2.88,5.81c1,1.17,2.06,2.23,3.1,3.34.31.33.61.68,1,1.13a9,9,0,0,0,.16-1,26.71,26.71,0,0,1,.82-5.1c.06-.26.09-.54.13-.81.66-4.1,1.23-8.22,2-12.3.29-1.49,0-3.22,1.34-4.42,0,0,0-.07,0-.11l.69-2,2.22-6.63a6.11,6.11,0,0,1,2.47-3.39c1.58-1,3.21-1.9,4.84-2.8.43-.23,1.07-.15,1.4-.46A4.77,4.77,0,0,1,39.48,17.2Z"/><path class="cls-1" d="M90,93.4a5.87,5.87,0,0,1-1.24,1.37,5.68,5.68,0,0,1-2.23.72c-1.89.17-3.79.25-5.68.24a10.84,10.84,0,0,1-2.56-.5,1.12,1.12,0,0,0-1.4.5,1.15,1.15,0,0,1-1.46.53c-.22-.08-.45-.13-.67-.2-.8-.24-.89-.6-.31-1.24s1-1.08,1.4-1.58a3.89,3.89,0,0,0-1.57,1.38c-.22.28-.36.61-.57.89a2,2,0,0,1-3.16-.16,1.27,1.27,0,0,1,.34-1.46,15.36,15.36,0,0,1,1.31-1.24.53.53,0,0,0,.19-.25c-1,.74-2.18,1.31-2.07,2.88,0,.46-.45.86-1,.94a3.88,3.88,0,0,1-.59,0c-.57,0-1.21,0-1.47-.67a1.83,1.83,0,0,1,.63-2.15,7.36,7.36,0,0,1,1.76-.86,6.42,6.42,0,0,0,3.5-2.25,21.46,21.46,0,0,1,1.93-2.12.81.81,0,0,0,.22-.87,23.76,23.76,0,0,0-2.61-6.08A4,4,0,0,1,72.43,78c.08-.26.18-.52.25-.78a3.2,3.2,0,0,0-1.06-3.68,16.81,16.81,0,0,1-2-2.09,1.88,1.88,0,0,1-.29-.76c-.35-1.44-.68-2.89-1-4.33a2.65,2.65,0,0,0-.33-.62c-.68-1.16-1-1.32-2.21-.83A21.66,21.66,0,0,0,63,66.35c-1.39.81-2.72,1.73-4.13,2.5a33.41,33.41,0,0,1-4.08,2,13.16,13.16,0,0,1-5.41.51c-.75,0-1.51,0-2.26-.09-1.36-.07-2.71-.14-4.06-.23-.7,0-.71-.2-.44-.86a35,35,0,0,0,1.87-4.86,18.5,18.5,0,0,0,.26-4c0-1.3,0-2.59,0-3.88,0-.86-.11-1.71-.11-2.56s.05-1.92.13-2.87a20.6,20.6,0,0,1,2.1-6.64c1-2.28,2.08-4.52,3-6.81a6.57,6.57,0,0,0,.47-2.4c0-1.76-.11-3.52-.16-5.28a1.74,1.74,0,0,1,.14-.48c.15.05.37.05.44.16,1.3,1.93,3.37,2.71,5.32,3.65a27.29,27.29,0,0,0,3.27,1.21,4.93,4.93,0,0,0,1.38.17c4.73,0,9.47.1,14.2.12a8.35,8.35,0,0,1,4.34,1.44,18.28,18.28,0,0,1,4.52,4.11,20,20,0,0,1,1.68,2.94,45.2,45.2,0,0,1,3.83,9.46,3.24,3.24,0,0,1,0,1.08c0,.33-.06.66-.07,1-.11,2.11-.13,4.23-.34,6.33a12.9,12.9,0,0,1-1.87,5,13.06,13.06,0,0,0-1.64,4.38.93.93,0,0,0,.23.77c.6.86,1.12,1.78,1.67,2.69a23.69,23.69,0,0,1,1.77,3A10,10,0,0,1,89.86,81a32.54,32.54,0,0,1-.49,7c-.08.59-.14,1.17-.18,1.76a9.43,9.43,0,0,0,.81,3Z"/><path class="cls-1" d="M44.77,59.48a1.67,1.67,0,0,1-.34-1c-.08-.66-.11-1.32-.17-2a.92.92,0,0,1-.42-1c0-.86,0-1.72.14-2.57a9.11,9.11,0,0,1,.43-1.61c.38-1.26.75-2.53,1.17-3.77A15.62,15.62,0,0,1,47,44.39a8.64,8.64,0,0,0,.88-2c.24-.8.55-1.57.8-2.37.47-1.51.92-3,1.37-4.55a2.24,2.24,0,0,0,.08-.57c0-1.06,0-2.12,0-3.18,0-.56-.13-1.11-.19-1.67,0-.21,0-.43,0-.64H50a1.69,1.69,0,0,0,1,1.14.49.49,0,0,1,.24.15,4.1,4.1,0,0,0,.92.69,10.08,10.08,0,0,0,2.47,1.2A16.06,16.06,0,0,1,57.84,34a20,20,0,0,0,3.84,1.65v.12l-.54-.09c-.19.32-.55.28-.89.36q-1.24.3-2.46.72c-.85.29-1.69.62-2.51,1A9.32,9.32,0,0,0,53,39.31c-.75.63-1.45,1.33-2.2,2a4.36,4.36,0,0,0-.93.94.54.54,0,0,1-.32.23A.94.94,0,0,0,49,43C48.3,44,47.64,45.11,47,46.2a9.66,9.66,0,0,0-1.33,3.33,13.49,13.49,0,0,1-.61,1.93c-.12.37-.24.74-.38,1.14.29.09.32.32.32.59,0,1.46,0,2.91,0,4.36a3.46,3.46,0,0,0,.18,1.32.68.68,0,0,1-.06.61Z"/><path class="cls-1" d="M18,0h.58A13,13,0,0,1,21,.78a21.33,21.33,0,0,1,6.19,5.67c1.7,2.19,3.18,4.57,4.74,6.87a11.29,11.29,0,0,1,.53,1.11,2.13,2.13,0,0,0,.51.72c.78.55,1.6,1,2.38,1.57a6.13,6.13,0,0,1,2.12,1.77v.36c-.27.34-.46.8-.8,1-1.13.68-2.31,1.27-3.48,1.88a1.55,1.55,0,0,1-.75.27,2,2,0,0,0-2,1.44,37.82,37.82,0,0,0-1.28,3.9A8.77,8.77,0,0,1,27.6,31c-1.09,1.25-1.82,2.82-2.92,4.06a55.09,55.09,0,0,1-4.2,4,2.25,2.25,0,0,1-2.21.77.58.58,0,0,0-.28.05L14.55,41H12.7L12,40.81a2.41,2.41,0,0,1-2-3.25c.14-.63.42-1.22.58-1.85a1.56,1.56,0,0,1,1.69-1.21l5.05-.11h.57v-.23H16.05c-2,0-4-.16-5.78.84-.48.27-.82.07-.93-.5C9.19,33.75,9.1,33,9,32.35A17.38,17.38,0,0,0,9,34.1c0,.46.17.95.72,1.1s.68.25.48,1-.33,1.67-.49,2.51c0,.22-.07.44-.11.66-.22-.08-.51-.09-.65-.24a6.52,6.52,0,0,1-2-3.27c-.36-2.12-.64-4.26-.93-6.4-.22-1.7-.35-3.43-.61-5.13-.19-1.15-.26-1.14.87-1.38.61-.12.77,0,.86.6s.09,1,.2,1.51a1.38,1.38,0,0,0,.84,1.1,4.11,4.11,0,0,1-.89-2.88c0-.45.17-.77.61-.88a13.14,13.14,0,0,1,2-.44,1.31,1.31,0,0,1,1.3.74,2.54,2.54,0,0,0,.23.34c-.07-.62.19-.75.73-.68a4.09,4.09,0,0,0,1.1-.06.62.62,0,0,1,.77.52c.05.26.12.51.18.77l.25.1c-.81-1.68.46-2,1.37-2.6L16,21a4.84,4.84,0,0,1,3.12-.9l3.1.12a5.72,5.72,0,0,0-.66-.21,7.69,7.69,0,0,0-6.15,1.16,4.44,4.44,0,0,1-3.84.84,5.91,5.91,0,0,0-3.91.26,7.79,7.79,0,0,1-1.14.42,1.78,1.78,0,0,1-2.15-1.41A5.45,5.45,0,0,1,6,16.25a1.26,1.26,0,0,0,.36-.51A53.33,53.33,0,0,0,8.35,8,9,9,0,0,1,16.47.34C17,.27,17.52.12,18,0Zm1.9,24,.13.05,1.1-2.94L21,21Z"/><path class="cls-3" d="M16.38,27.21h.23a11,11,0,0,1,1.68,1.13,5.92,5.92,0,0,1,1.62,2,6.15,6.15,0,0,1,.21,4,.59.59,0,0,0,.06.36c.23.42.47.83.7,1.24v1.42L20.05,39a3.11,3.11,0,0,1-1.74,1.62c-1,.36-2,.64-3.08,1H13.15c-.51-.16-1-.29-1.54-.49-1.45-.55-2.5-1.46-2-3.4.22-.84.4-1.7.57-2.43-.28-.2-.69-.34-.77-.58a7.86,7.86,0,0,1,0-4.63c.17-.61.8-.71,1.35-.44a2.5,2.5,0,0,0,1.36.26,18.78,18.78,0,0,0,2.21-.55c.88-.24,1.65-.58,1.82-1.64A1.47,1.47,0,0,1,16.38,27.21Z"/><path class="cls-2" d="M37,18l-3.7,2.75c-.76.57-1.51,1.12-2.25,1.71a11.16,11.16,0,0,0-.91.91,11.28,11.28,0,0,0-1.76,2,3.7,3.7,0,0,1-.38.42,3.19,3.19,0,0,0-.39.57c-.15.31-.25.65-.38,1a.35.35,0,0,1-.44.19.32.32,0,0,1-.24-.4,2.13,2.13,0,0,1,.13-.45c.44-.91.88-1.82,1.34-2.72a35.35,35.35,0,0,0,3-6.75c.23-.82.52-1.62.76-2.44a.8.8,0,0,1,.47-.48.44.44,0,0,1,.57.1,11.11,11.11,0,0,0,2.5,1.87,6.9,6.9,0,0,1,.68.53l1,.86Z"/><path class="cls-2" d="M17.11,13.43c.26.09.53.17.79.28a1.35,1.35,0,0,1,.9.9c-.52-.06-1,.07-1.57,0a7,7,0,0,0-2.18.15l-.83.17c-.49.1-1,.2-1.46.28a3.42,3.42,0,0,1-.63.09c-.54,0-1.08,0-1.62,0A5,5,0,0,0,7.77,16c-.21.14-.45.22-.66.36a.48.48,0,0,1-.67-.13c0-.08.08-.17.11-.26a2.15,2.15,0,0,1,1.52-1.39,5.08,5.08,0,0,1,2.08-.37c.54,0,1.08,0,1.62,0A3.14,3.14,0,0,0,13,14.06a10.28,10.28,0,0,1,2-.4c.41-.06.83-.08,1.25-.13,0,0,.09-.07.13-.1Z"/><path class="cls-2" d="M22.43,20.54c-.26.2-.26.2-1.1,0a2.61,2.61,0,0,0-.14.65,4,4,0,0,1-.52,1.9,8.6,8.6,0,0,1-2,2.35,2.43,2.43,0,0,1-1.39.48,2.51,2.51,0,0,1-2.08-.46,1,1,0,0,1-.22-.19A6.7,6.7,0,0,1,14,23a3.22,3.22,0,0,1,0-.44l-2,.21a5.85,5.85,0,0,0-.32,1.34,2.25,2.25,0,0,1-.68,1.5c-.24.23-.46.48-.7.71a1.71,1.71,0,0,0-.45,1.92,8.83,8.83,0,0,1,.3,1c.09.39.14.77-.33,1a.67.67,0,0,0-.33.69c0,1,0,2,0,3a1.77,1.77,0,0,0,.07.46.43.43,0,0,0,.47.34,4.52,4.52,0,0,0,1.82-.23,9.62,9.62,0,0,1,2.06-.47c.7-.16,1.42-.26,2.14-.35a7.5,7.5,0,0,1,1.89.14,4.49,4.49,0,0,0,1,0c.28,0,.57-.05.92-.09l-.21-.14c.24-.29.75-.35.71-.85.47,0,.61.11.53.48s-.26.88-.8,1a8.58,8.58,0,0,1-1.13.18c-.67,0-1.35,0-2,0a23.82,23.82,0,0,0-2.53.13,22.91,22.91,0,0,0-2.46.53,4.77,4.77,0,0,1-1.4.28c-.18,0-.27.09-.32.27a6.42,6.42,0,0,0-.36,2.29.75.75,0,0,1,0,.3A2.67,2.67,0,0,0,9.93,40c0,.14.17.27,0,.45a5.74,5.74,0,0,1-1-1c-.46-.51-.91-1-1.33-1.58A3.59,3.59,0,0,1,7,36.88a14.53,14.53,0,0,1-.74-3c-.08-.7-.26-1.4-.39-2.1a7.6,7.6,0,0,1-.25-1.54,7.09,7.09,0,0,0,0-1A17.52,17.52,0,0,1,5.5,27.3c0-.83-.16-1.66-.21-2.49a6.17,6.17,0,0,0-.45-2c-.11-.27-.16-.59-.26-.88a.72.72,0,0,1,.06-.45c0-.07.18-.09.29-.14a.68.68,0,0,1,.1.18c.09.63.58.83,1.08,1a1.08,1.08,0,0,0,.59-.15,12.59,12.59,0,0,1,2.61-.64,5.51,5.51,0,0,1,2.36.29,1.9,1.9,0,0,0,1.06-.06c.49-.17,1-.36,1.45-.55s1.14-.47,1.71-.69c.81-.32,1.61-.63,2.42-.93a1.75,1.75,0,0,1,.4,0,10.17,10.17,0,0,1,2.86.25C21.92,20,22.37,20,22.43,20.54Z"/><path class="cls-2" d="M13.79,29.21c-.67,0-.83-.22-.66-.77a1.61,1.61,0,0,1,1.61-1.23,1.31,1.31,0,0,1,.85.11.59.59,0,0,1,.23.24,1.19,1.19,0,0,1-.44,1.17A5.6,5.6,0,0,1,13.79,29.21Z"/><path class="cls-2" d="M10.25,28.26c0-.5.15-.8.49-.79a1.42,1.42,0,0,1,.86.24,1.85,1.85,0,0,1,.63,1.45c0,.52-.31.74-.8.63A1.55,1.55,0,0,1,10.25,28.26Z"/><path class="cls-1" d="M8.2,26.27A3.24,3.24,0,0,1,6.47,24c-.16-.76-.33-1.53-.45-2.3,0-.16.12-.35.19-.53.13.16.33.29.38.47.14.57.22,1.15.32,1.72A3.09,3.09,0,0,0,8.64,25.8v.47Z"/><path class="cls-1" d="M83,95.64a10.05,10.05,0,0,1-1.09,0c-.37,0-.7-.08-1,.26-.13.15-.46.15-.7.17a12.25,12.25,0,0,0-2.93.27A4.79,4.79,0,0,1,74,96.27a.57.57,0,0,0-.44,0,2.21,2.21,0,0,1-2.61-.15c-.37-.23-.57-.25-.89.15-.67.84-2.94.36-3.22-.68a2.28,2.28,0,0,1,.55-2.34,4.37,4.37,0,0,1,2.33-1.23,5.44,5.44,0,0,0,3.37-2.32,11.09,11.09,0,0,1,1.52-1.62,2.29,2.29,0,0,1,.82-.3l.14.24c-.47.48-1,.94-1.4,1.44s-.84,1.08-1.33,1.54a13.45,13.45,0,0,1-1.53,1.17l.1.23c.29-.06.59-.14.89-.18a5.45,5.45,0,0,1,.7,0c-.08.18-.22.35-.21.52a1.55,1.55,0,0,0,.19.85,1.34,1.34,0,0,0,.85.48,2.15,2.15,0,0,0,.92-.39c.51-.29,1-.62,1.53-.9.13-.07.34,0,.52,0a4.45,4.45,0,0,1-.19.51c-.16.31-.34.61-.51.91.15.09.19.14.21.13,1.32-.35,2.49.44,3.75.54,1,.08,2,.22,3,.33Z"/><path class="cls-1" d="M24.7,100a1.73,1.73,0,0,0-1.38-.26,2.46,2.46,0,0,1-1.89-.41,5.77,5.77,0,0,0-.58-.22c-.79-.39-1.59-.78-2.36-1.2a.79.79,0,0,1-.29-.55c0-.83,0-1.67,0-2.68a4.33,4.33,0,0,1,.94.47c.59.5,1.13,1.06,1.7,1.61.4-.44.73-.81,1.07-1.17a3.31,3.31,0,0,1,.44-.4c1-.73,1.28-.63,1.63.52a2.35,2.35,0,0,0,.15.35l.56-.75a1.75,1.75,0,0,1,3.06,0l.86,1.35a5.47,5.47,0,0,1,2.52-1.9c.21-.1.45-.14.66-.24a3.81,3.81,0,0,0,.61-.37c.16-.12.26-.29.42-.41.9-.71,1.27-.61,1.54.49a14.47,14.47,0,0,1,.34,2.19,1.19,1.19,0,0,1-.27.86,10.94,10.94,0,0,1-2,1.68,4.58,4.58,0,0,1-3.09.61,5,5,0,0,0-2.54.38Zm-.46-2.08c0,1.22.31,1.55,1.59,1.46A6.48,6.48,0,0,0,27.62,99a.94.94,0,0,0,.43-.66A3.66,3.66,0,0,0,27,95.43a1.09,1.09,0,0,0-1.39-.09C24.94,96.07,24.16,96.73,24.24,97.92Zm5.67,1,0,.14c.77-.22,1.55-.44,2.31-.68a.65.65,0,0,0,.44-.85A19.49,19.49,0,0,0,32,95.7a.49.49,0,0,0-.74-.23,4.15,4.15,0,0,0-2.39,2.26c-.31.76,0,1.2.77,1.2Zm-6.27-.61c-.05-.55-.09-1.09-.15-1.64,0-.25-.1-.49-.15-.74s-.27-.43-.58-.23A2.17,2.17,0,0,0,21.7,98.4c.12.5.72.74,1.51.65C23.71,99,23.62,98.64,23.64,98.32Zm10-4.19c-1.13.64-1.26,1.17-.65,2.05.15.21.24.45.38.65s.19.24.28.23.24-.14.28-.25a1,1,0,0,0,.13-.56C34,95.57,33.82,94.89,33.67,94.13Zm-14.21,2.2c-.26.17-.52.26-.52.35,0,.28,0,.67.15.81a6,6,0,0,0,1.33.8c.34.16.56-.22.44-.37C20.45,97.36,19.94,96.87,19.46,96.33Z"/><path class="cls-1" d="M60.31,35.87c-3.61-1-7.13-2.22-9.84-5.24.05.6.12,1.14.13,1.68,0,2,.34,4-.3,5.9-.36,1.09-.95,2.1-1.4,3.17-1.09,2.55-2.21,5.1-3.24,7.68a14.51,14.51,0,0,0-.81,5.15c0,.79.19,1.58.2,2.38,0,1.19-.1,2.39-.08,3.58a32.09,32.09,0,0,1-.15,5.63,1.28,1.28,0,0,1-.07.34q-.89,2.11-1.79,4.21c0,.06,0,.13-.09.15-.23.12-.47.22-.7.33,0-.24-.18-.52-.1-.71.46-1.12,1-2.23,1.49-3.32a7.09,7.09,0,0,0,.8-3c0-2.44,0-4.87,0-7.31a3,3,0,0,0-.19-.77,1.31,1.31,0,0,1-.12-.45,40.38,40.38,0,0,1,.78-5.51,50.29,50.29,0,0,1,2.27-6c.68-1.6,1.46-3.16,2.21-4.73A5.72,5.72,0,0,0,50,36.23a47.62,47.62,0,0,0-.28-6,16,16,0,0,0-3-7.63A21.8,21.8,0,0,0,41.74,18a3.65,3.65,0,0,0-4,0,36.51,36.51,0,0,0-3.14,2.1,29.25,29.25,0,0,0-4.85,4,26.78,26.78,0,0,0-2.23,2.55,7.32,7.32,0,0,0-1.24,4.85,3.61,3.61,0,0,1,0,.87c-.71,3.5-1.5,7-2.13,10.49-.51,2.8-.81,5.63-1.26,8.44-.26,1.64-.68,3.26-1,4.9-.6,3.35-1.17,6.72-1.74,10.08-.12.69-.16,1.4-.27,2.1,0,.16-.22.3-.34.44-.08-.17-.24-.36-.23-.53.26-2.2.55-4.4.8-6.6a24.29,24.29,0,0,0,.27-3.51,13.93,13.93,0,0,1,.74-3.64c.15-.66.29-1.34.48-2a6.57,6.57,0,0,1,.43-.83,3.36,3.36,0,0,0,.24-.76c.38-2.62.67-5.25,1.14-7.85.68-3.73,1.49-7.43,2.23-11.14a3.65,3.65,0,0,0,.12-.87,8,8,0,0,1,.88-4A14.86,14.86,0,0,1,28.32,25c2.05-2.57,4.73-4.38,7.35-6.27a17,17,0,0,1,1.49-1.12,4.55,4.55,0,0,1,5.72.39A50.79,50.79,0,0,1,47,22a12.91,12.91,0,0,1,2.69,5.55,8.1,8.1,0,0,0,4.11,5,20.85,20.85,0,0,0,5.58,2.32,4,4,0,0,1,1.06.68Z"/><path class="cls-1" d="M58.05,91.77a4.91,4.91,0,0,0-3.25.87,2.36,2.36,0,0,1-3-.38c-.11-.11-.32-.25-.43-.21-1.64.53-3.13-.18-4.66-.55-.41-.1-.84-.14-1.26-.21a5,5,0,0,0-2.77.67c-1,.4-1.92.71-2.9,1a2.07,2.07,0,0,1-.86,0c-.65-.06-.79-.28-.84-1a2.73,2.73,0,0,1,1.67-2.88c.78-.39,1.55-.79,2.3-1.24a2.37,2.37,0,0,0,.75-.73,7.26,7.26,0,0,1,4.81-3.12c.81-.17,1-.31.94-1.13,0-1.78-.15-3.56-.26-5.34a2,2,0,0,0-.3-.81,2.83,2.83,0,0,1-.28-2.69A4.39,4.39,0,0,0,48,71.68c-.05-.49.07-.59.56-.59A39.61,39.61,0,0,0,53.34,71,8.49,8.49,0,0,0,56,70c1.77-.85,3.51-1.77,5.23-2.71a14.34,14.34,0,0,0,1.66-1.18,8.49,8.49,0,0,1,3.57-1.63,1.88,1.88,0,0,1,2,1.88,5.73,5.73,0,0,1-.5,1.55A1.91,1.91,0,0,1,66.09,69a4.68,4.68,0,0,0-3.22,1.65,11.76,11.76,0,0,1-1,1,1.06,1.06,0,0,0-.3,1.5c1,1.52.73,3.25.92,4.9.07.57.07,1.14.16,1.7a5.91,5.91,0,0,1-.59,3.65,6.74,6.74,0,0,1-.45.89,4.81,4.81,0,0,0-.6,3.77c.07.39.05.79.1,1.17a2.3,2.3,0,0,1-2.45,2.49A4.56,4.56,0,0,0,58.05,91.77Zm-6.93-20c-.6,0-1.21,0-1.81,0s-.66.19-.63.66a5,5,0,0,1-.32,1.94,2.29,2.29,0,0,0,.06,1.75,3.84,3.84,0,0,1,.51,2c0,.76.16,1.52.19,2.28a26.73,26.73,0,0,1,0,3.1c-.07.93-.3,1.07-1.19,1.26a6.44,6.44,0,0,0-4,2.12c-1.11,1.42-2.63,2.46-3.54,4a1,1,0,0,0,0,.71.55.55,0,0,0,.46.23,4.85,4.85,0,0,0,1.37-.42,5.86,5.86,0,0,1,4.83-.49,7,7,0,0,0,1.45.42,22.64,22.64,0,0,0,2.47.07c.12,0,.29-.25.34-.41.21-.59.32-1.21.58-1.77a2.15,2.15,0,0,1,2.09-1c.18.06.29.34.43.52-.13.07-.29.24-.39.21a1.36,1.36,0,0,0-1.58.57,2,2,0,0,0-.29,2,1.05,1.05,0,0,0,1.22.77,5,5,0,0,0,1.31-.42,5,5,0,0,1,2.71-.75,11.8,11.8,0,0,0,1.33,0,1.79,1.79,0,0,0,1.76-2c0-.47-.11-.94-.17-1.4a4.73,4.73,0,0,1,.53-3.45A5.44,5.44,0,0,0,61.55,83,7.64,7.64,0,0,0,62,80.87c0-1.09-.14-2.18-.21-3.28-.08-1.34,0-2.71-.76-3.91a2.11,2.11,0,0,1-.22-.67,1.45,1.45,0,0,1,.45-1.64,8.41,8.41,0,0,0,1-1,5.64,5.64,0,0,1,4-2.06A2.62,2.62,0,0,0,68,66.73a.91.91,0,0,0,0-.23,1.44,1.44,0,0,0-2-1.22l-.33.12a17.42,17.42,0,0,0-3.14,1.86c-1.81,1.13-3.74,2.06-5.61,3.11A9.34,9.34,0,0,1,51.12,71.74ZM39.62,90.21c-.61.14-1.25,1.43-.87,1.92.14.17.55.15.84.17.08,0,.25-.16.25-.24C39.79,91.45,39.7,90.85,39.62,90.21Z"/><path class="cls-1" d="M9.2,97.1C7.52,97,5.76,97,4,96.82a2.37,2.37,0,0,1-1.31-.45A3.44,3.44,0,0,1,2,95.16a1.1,1.1,0,0,1-.12-.39c0-.31,0-.62,0-.93a2.76,2.76,0,0,1,1,.22,15,15,0,0,1,1.79,1.38.61.61,0,0,0,.91,0c1.38-1,2-.95,3.37.14.26.21.45.2.64,0,.79-1,2-1.21,3.11-1.76.18-.1.52.09.79.15-.12.2-.18.48-.35.6C12,95.35,11,96.1,9.87,96.84A4.28,4.28,0,0,1,9.2,97.1Z"/></g></g></svg>