<svg xmlns="http://www.w3.org/2000/svg" width="60" height="72.54" viewBox="0 0 60 72.54"><defs><style>.cls-1{fill:#666;}.cls-2{fill:#999;}.cls-3{fill:#111;}.cls-4{fill:#4d4d4d;}.cls-5{fill:#467aa0;}.cls-6{fill:#7ea2c0;}.cls-7{fill:#93c0fc;}.cls-8{fill:#075a9f;}.cls-9{fill:#2b74b6;}.cls-10{fill:#196dcb;}.cls-11{fill:#155f9a;}</style></defs><g id="レイヤー_2" data-name="レイヤー 2"><g id="図形"><path class="cls-1" d="M51.64,62.82H45a.25.25,0,0,0,0-.12c-.52-1.1-1-2.2-1.57-3.29-.64-1.35-1.28-2.69-1.93-4l-2.13-4.42c-.27-.56-.53-1.13-.8-1.69l-2.07-4.31c-.51-1.07-1-2.12-1.55-3.18l-.1-.26a5.47,5.47,0,0,0-2-9.6V28.34a1,1,0,0,0-1-1,1.41,1.41,0,0,0-1,.41,1.09,1.09,0,0,0-1.16-.39,1,1,0,0,0-.73.88,2.74,2.74,0,0,0-.07.5c0,1,0,2,0,2.95a1.54,1.54,0,0,1-.32.15,5.42,5.42,0,0,0-2.41,9.47l.34.31L25.87,43,22.7,49.79,20.21,55.1,17.3,61.29c-.25.53-.49,1.06-.74,1.58a3.15,3.15,0,0,0-.43,0H5.61a5,5,0,0,1-2-.53A6,6,0,0,1,.29,58.54,6.06,6.06,0,0,1,0,56.71q0-19,0-38c0-.9,0-1.8,0-2.7l.06-.11s.05,0,.05.06a5.83,5.83,0,0,0,.43,1.6,5.42,5.42,0,0,0,2.06,2.61,6.1,6.1,0,0,0,3.26,1,.9.9,0,0,0,.22.06H48.35a2.62,2.62,0,0,0,.28,0,1.34,1.34,0,0,0,.18-.07c.83,0,1.66,0,2.49,0a17.27,17.27,0,0,1,2.27.12,13.36,13.36,0,0,1,1.68.27,7.46,7.46,0,0,1,2.69,1.22,4.54,4.54,0,0,1,1.73,2.4,10.34,10.34,0,0,1,.24,1.46,6.06,6.06,0,0,1,0,.74l-.08.82c0,.1,0,.21,0,.32a5.4,5.4,0,0,1-1.93,3.06,4.89,4.89,0,0,1-2.7,1.12l-.25.05-.37,0H52.23c-.48,0-.5,0-.5.47s0,.74,0,1.11V46.68c0,.16,0,.32,0,.49a3,3,0,0,0-.06.43V60c0,.13,0,.27,0,.41Z"/><path class="cls-2" d="M48.81,21.15a1.34,1.34,0,0,1-.18.07,2.62,2.62,0,0,1-.28,0H11.13a.2.2,0,0,0,0-.07c0-.23.05-.47.1-.71.18-.93.33-1.86.57-2.77a17.14,17.14,0,0,1,1.86-4.41,17.85,17.85,0,0,1,3.07-3.9,1.33,1.33,0,0,0,.14-.19l.53-.44a20.25,20.25,0,0,1,3.1-2.2,1.76,1.76,0,0,0,.23-.15L20,5.07,17.73,1.18a2.48,2.48,0,0,1-.17-.32.63.63,0,0,1,.5-.85.74.74,0,0,1,.81.47l2.9,5a3.09,3.09,0,0,0,.16.27l1.16-.45A17.89,17.89,0,0,1,27,4.3c.42-.07.86-.07,1.29-.11s.86-.08,1.29-.09a13.33,13.33,0,0,1,1.55,0,20.68,20.68,0,0,1,3.76.56,23.45,23.45,0,0,1,3,1l.22.09c.17-.29.34-.56.5-.85L41.13.44C41.37,0,41.51,0,42,0a.48.48,0,0,1,.43.42,1.15,1.15,0,0,1-.14.74c-.94,1.6-1.86,3.2-2.79,4.8-.06.12-.12.24-.21.39l.31.2A18.36,18.36,0,0,1,46.73,14a19.22,19.22,0,0,1,1.05,2.42,21.35,21.35,0,0,1,.83,3.14C48.72,20.07,48.75,20.61,48.81,21.15Zm-8.62-6.88a1.56,1.56,0,0,0-1.53-1.56,1.63,1.63,0,0,0-1.59,1.54,1.64,1.64,0,0,0,1.59,1.58A1.55,1.55,0,0,0,40.19,14.27Zm-17.36.07a1.5,1.5,0,0,0-1.51-1.63,1.61,1.61,0,0,0-1.59,1.55,1.58,1.58,0,0,0,1.6,1.56A1.46,1.46,0,0,0,22.83,14.34Z"/><path class="cls-3" d="M29,28.26a1,1,0,0,1,.73-.88,1.09,1.09,0,0,1,1.16.39,1.24,1.24,0,0,1,.17.7c0,1.13,0,2.26,0,3.39l.07.08c.13,0,.26.07.39.12a5.35,5.35,0,0,1,2.74,2.13,5.28,5.28,0,0,1,.86,3.75,5.07,5.07,0,0,1-1.48,3l-.57.56.07.19,2,4.22c.65,1.35,1.29,2.71,2,4.06L39,54.05l2,4.18c.61,1.28,1.22,2.56,1.84,3.84.12.26.27.5.4.75.22.46.42.94.64,1.4.63,1.33,1.3,2.64,1.9,4a2.94,2.94,0,0,1-1.4,3.89,2.77,2.77,0,0,1-2.12.2,3,3,0,0,1-1.83-1.59q-1.17-2.45-2.35-4.89l-1.47-3a3,3,0,0,0-.17-.41c-.74-1.55-1.5-3.1-2.24-4.66L33.38,56c-.5-1-1-2.09-1.51-3.11a1.82,1.82,0,0,0-1.26-1c-.26-.22-.57-.14-.86-.14a2.16,2.16,0,0,0-2,1.31c-.27.5-.48,1-.72,1.54-.6,1.3-1.2,2.6-1.81,3.9-.54,1.14-1.09,2.27-1.62,3.41-.15.32-.28.64-.42,1-.38.79-.77,1.58-1.14,2.38l-2.57,5.49a3,3,0,0,1-2,1.74A3,3,0,0,1,14,70.78a3.07,3.07,0,0,1-.05-2.36c.24-.6.57-1.16.85-1.75.6-1.26,1.19-2.53,1.78-3.8.25-.52.49-1,.74-1.58l2.91-6.19,2.49-5.31L25.87,43l.65-1.4-.34-.31a5.28,5.28,0,0,1-1.85-3.14,5.48,5.48,0,0,1,4.26-6.33,1.54,1.54,0,0,0,.32-.15c0-.05.06-.09.06-.14C29,30.46,29,29.36,29,28.26Zm1.48,12.13a2.68,2.68,0,0,0,1.73-1,3.24,3.24,0,0,0,.55-3.58A3,3,0,0,0,30.53,34a3.22,3.22,0,0,0-1.6,0,3.31,3.31,0,0,0-2.51,3.79,3.25,3.25,0,0,0,2,2.5A2.49,2.49,0,0,0,30.44,40.39Z"/><path class="cls-3" d="M55.17,32.69a4.89,4.89,0,0,0,2.7-1.12,5.4,5.4,0,0,0,1.93-3.06c0-.11,0-.22,0-.32a2.32,2.32,0,0,1,.07.46q0,16.86,0,33.73c0,.15,0,.3,0,.44,0,1.35,0,2.7,0,4.05a5.51,5.51,0,0,1-1.38,3.75,5.45,5.45,0,0,1-4.1,1.84c-.78,0-1.57,0-2.36,0-.39,0-.46-.08-.46-.46V63.26c0-.14,0-.29,0-.44l0-2.37a3.21,3.21,0,0,0,.07-.43V47.57c0-.13,0-.27,0-.4s0-.33,0-.49V34.34c0-.37,0-.74,0-1.11s0-.47.5-.47h2.32l.37,0Z"/><path class="cls-3" d="M16.86,9.16a1.33,1.33,0,0,1-.14.19,17.85,17.85,0,0,0-3.07,3.9,17.14,17.14,0,0,0-1.86,4.41c-.24.91-.39,1.84-.57,2.77-.05.24-.07.48-.1.71H7.87l-2,0a6.1,6.1,0,0,1-3.26-1A5.42,5.42,0,0,1,.56,17.55,5.83,5.83,0,0,1,.13,16s0,0,0-.06a.11.11,0,0,0,0-.08l0-.66A6.07,6.07,0,0,1,3.27,9.83a5.69,5.69,0,0,1,2.64-.67c3.6,0,7.19,0,10.79,0Z"/><path class="cls-1" d="M30.61,51.82a1.82,1.82,0,0,1,1.26,1c.53,1,1,2.07,1.51,3.11l.87,1.79c.74,1.56,1.5,3.11,2.24,4.66a3,3,0,0,1,.17.41H25c.1-.25.19-.5.3-.74.59-1.28,1.18-2.55,1.78-3.82.5-1.07,1-2.14,1.52-3.22.25-.52.49-1.05.72-1.58a3.3,3.3,0,0,1,.86-1.26Z"/><path class="cls-4" d="M31,31.86c0-1.13,0-2.26,0-3.39a1.24,1.24,0,0,0-.17-.7,1.41,1.41,0,0,1,1-.41,1,1,0,0,1,1,1V31.9a5.47,5.47,0,0,1,2,9.6l.1.26c.52,1.06,1,2.11,1.55,3.18l2.07,4.31c.27.56.53,1.13.8,1.69l2.13,4.42c.65,1.34,1.29,2.68,1.93,4,.53,1.09,1,2.19,1.57,3.29a.25.25,0,0,1,0,.12l-1.72,0c-.13-.25-.28-.49-.4-.75-.62-1.28-1.23-2.56-1.84-3.84l-2-4.18L37.09,50c-.66-1.35-1.3-2.71-2-4.06l-2-4.22L33,41.51l.57-.56a5.07,5.07,0,0,0,1.48-3,5.28,5.28,0,0,0-.86-3.75,5.35,5.35,0,0,0-2.74-2.13c-.13-.05-.26-.08-.39-.12Z"/><path class="cls-4" d="M30.61,51.82l-.47.36a3.3,3.3,0,0,0-.86,1.26c-.23.53-.47,1.06-.72,1.58-.5,1.08-1,2.15-1.52,3.22-.6,1.27-1.19,2.54-1.78,3.82-.11.24-.2.49-.3.74H23.15c.14-.33.27-.65.42-1,.53-1.14,1.08-2.27,1.62-3.41.61-1.3,1.21-2.6,1.81-3.9.24-.51.45-1,.72-1.54a2.16,2.16,0,0,1,2-1.31C30,51.68,30.35,51.6,30.61,51.82Z"/><path class="cls-5" d="M60,62.82c0-.14,0-.29,0-.44q0-16.86,0-33.73a2.32,2.32,0,0,0-.07-.46l.08-.82s.07.08.07.13,0,.22,0,.33V62.38C60,62.53,60,62.67,60,62.82Z"/><path class="cls-6" d="M0,15.15l.05.66H0Z"/><path class="cls-7" d="M0,15.81H.07a.11.11,0,0,1,0,.08L0,16Z"/><path class="cls-8" d="M51.71,47.17c0,.13,0,.27,0,.4V60a3.21,3.21,0,0,1-.07.43c0-.14,0-.28,0-.41V47.6A3,3,0,0,1,51.71,47.17Z"/><path class="cls-9" d="M5.88,21.16l2,0h3.25a.2.2,0,0,1,0,.07h-5A.9.9,0,0,1,5.88,21.16Z"/><path class="cls-8" d="M29,28.26c0,1.1,0,2.2,0,3.31,0,.05,0,.09-.06.14,0-1,0-2,0-2.95A2.74,2.74,0,0,1,29,28.26Z"/><path class="cls-10" d="M55.17,32.69l-.25.05Z"/><path class="cls-1" d="M30.53,34a3,3,0,0,1,2.19,1.83,3.24,3.24,0,0,1-.55,3.58,2.68,2.68,0,0,1-1.73,1s0-.06,0-.06a3.38,3.38,0,0,1-2.23-3.62A3.33,3.33,0,0,1,30.53,34Z"/><path class="cls-11" d="M31,31.86l.07.08Z"/><path class="cls-4" d="M30.53,34a3.33,3.33,0,0,0-2.36,2.72,3.38,3.38,0,0,0,2.23,3.62s0,0,0,.06a2.49,2.49,0,0,1-2.05-.15,3.25,3.25,0,0,1-2-2.5A3.31,3.31,0,0,1,28.93,34,3.22,3.22,0,0,1,30.53,34Z"/></g></g></svg>