<svg xmlns="http://www.w3.org/2000/svg" width="60" height="60" viewBox="0 0 60 60"><defs><style>.cls-1{fill:#fafcfc;}.cls-2{fill:#5bbfc2;}.cls-3{fill:#111;}.cls-4{fill:#333;}.cls-5{fill:#fff;}</style></defs><g id="レイヤー_2" data-name="レイヤー 2"><g id="図形"><path class="cls-1" d="M58.65,54.33v1.13H57.37l-.08-1.32L56,54.08V52.69H57.3V51.23h1.3l.06,1.41H60v1.43l-1.24.08Z"/><path class="cls-2" d="M58.65,54.33l.11-.18Z"/><ellipse class="cls-3" cx="28.64" cy="30" rx="28.64" ry="30"/><ellipse class="cls-4" cx="28.64" cy="30" rx="25.78" ry="27"/><ellipse class="cls-5" cx="38.95" cy="30.6" rx="4.01" ry="4.2"/><path class="cls-1" d="M15.09,31.32V29.24h6.06v2.08Z"/><path class="cls-4" d="M26.6,30.27a14.7,14.7,0,0,1-4.33,5.35A6.89,6.89,0,0,1,12.55,26a6.69,6.69,0,0,1,6.87-2.4A7.94,7.94,0,0,1,23,25.49,14.61,14.61,0,0,1,26.6,30.27ZM15.09,31.32h6.06V29.24H15.09Z"/><path class="cls-1" d="M28.55,26.21A24.46,24.46,0,0,1,30.17,24,17.15,17.15,0,0,1,36,20a7.72,7.72,0,0,1,1.55-.27A10.48,10.48,0,0,1,49.5,28.25,10.52,10.52,0,0,1,32.35,38.38a19.86,19.86,0,0,1-3.76-4.17c-.43.57-.83,1.1-1.24,1.61a13,13,0,0,1-6.9,4.75A10.39,10.39,0,0,1,7.64,32.09a11.37,11.37,0,0,1,1.89-8.31,9.3,9.3,0,0,1,7.64-4.12,10.79,10.79,0,0,1,9,3.75C27,24.3,27.73,25.25,28.55,26.21ZM26.6,30.27A14.61,14.61,0,0,0,23,25.49a7.94,7.94,0,0,0-3.59-1.93A6.69,6.69,0,0,0,12.55,26a6.89,6.89,0,0,0,9.72,9.66A14.7,14.7,0,0,0,26.6,30.27Zm4,0A15.13,15.13,0,0,0,34,34.89c2,1.78,4.33,2.71,7,2a6.85,6.85,0,0,0,1.54-12.65c-2.91-1.5-5.63-1-8.15,1A14.44,14.44,0,0,0,30.56,30.24Z"/><path class="cls-4" d="M30.56,30.24a14.44,14.44,0,0,1,3.82-5c2.52-2,5.24-2.51,8.15-1A6.85,6.85,0,0,1,41,36.89c-2.7.71-5-.22-7-2A15.13,15.13,0,0,1,30.56,30.24ZM40,31.75l.16-.29,1.9-.11V29.16H40L39.88,27h-2v2.24h-2v2.12l2,.1.12,2h2Z"/></g></g></svg>