<svg xmlns="http://www.w3.org/2000/svg" width="195.89" height="70.8" viewBox="0 0 195.89 70.8"><defs><style>.cls-1{fill:#fbb13c;}</style></defs><g id="レイヤー_2" data-name="レイヤー 2"><g id="図形"><path class="cls-1" d="M15.13,69.6A721.88,721.88,0,0,1,86.94,37.46L75.65,22.77C70.19,34.57,68.88,47.55,73.28,60c1.73,4.86,6.88,8.83,12.3,7a568.72,568.72,0,0,0,105.5-48.22c11.08-6.52,1-23.81-10.1-17.27A542.54,542.54,0,0,1,80.27,47.65l12.3,7c-2.54-7.14-2.9-14.74.35-21.77,1.71-3.71,1.9-7.73-.79-11.11-2.3-2.89-6.76-5-10.51-3.58A768.24,768.24,0,0,0,5,52.33C-6.41,58.21,3.69,75.47,15.13,69.6Z"/></g></g></svg>