<svg xmlns="http://www.w3.org/2000/svg" width="74.54" height="26.93" viewBox="0 0 74.54 26.93"><defs><style>.cls-1{fill:#fbb13c;}</style></defs><g id="レイヤー_2" data-name="レイヤー 2"><g id="図形"><path class="cls-1" d="M5.76,26.48A285.22,285.22,0,0,1,33.08,14.25L28.4,9.57a18.82,18.82,0,0,0-.51,13.24,3.84,3.84,0,0,0,4.68,2.65A222,222,0,0,0,72.71,7.12c4.22-2.47.4-9-3.84-6.57A212.48,212.48,0,0,1,30.54,18.13l4.68,2.65a12.43,12.43,0,0,1,.52-9.19C36.83,9,33.6,5.93,31.06,6.91a303.52,303.52,0,0,0-29.14,13c-4.36,2.23-.52,8.79,3.84,6.57Z"/></g></g></svg>