<svg xmlns="http://www.w3.org/2000/svg" width="169.25" height="66.56" viewBox="0 0 169.25 66.56"><defs><style>.cls-1{fill:#fbb13c;}</style></defs><g id="レイヤー_2" data-name="レイヤー 2"><g id="図形"><path class="cls-1" d="M13.54,65.31A600.66,600.66,0,0,1,75.28,34.8L64.17,23.69A47.72,47.72,0,0,0,63,56.44c1.39,4.33,6.38,8.08,11.11,6.31a470.73,470.73,0,0,0,91-45.66c9.74-6.3.69-21.95-9.12-15.61A449.5,449.5,0,0,1,69.31,45.32l11.12,6.31a32.06,32.06,0,0,1,1.16-23.14c2.52-6-5.08-13.66-11.11-11.11A635.43,635.43,0,0,0,4.42,49.71c-10.13,5.72-1,21.34,9.12,15.6Z"/></g></g></svg>