<svg id="背景" xmlns="http://www.w3.org/2000/svg" width="1920" height="10020" viewBox="0 0 1920 10020"><defs><style>.cls-1{fill:#fff6eb;}.cls-2{fill:#fff;}.cls-3{fill:#ffe1bb;}</style></defs><rect class="cls-1" width="1920" height="10020"/><path class="cls-2" d="M1918,684c-106.54-43.78-266.82-92.63-458-81-327.6,19.93-467.43,200.5-811,287C501.22,927.21,284.78,954.81,0,900V1940c50.13-37.1,128.28-87.71,232-126,312.31-115.3,421.77,41.52,807-5,282.65-34.13,392.72-139,728-118,64.3,4,116.82,11.41,151,17Z"/><path class="cls-3" d="M1921,4652a1354.47,1354.47,0,0,1-364,116c-81.09,13.59-374.15,59.12-700-62-241-89.57-272-185.58-503-232-145.74-29.29-271.4-18.81-353-6L-2,2784c228.7-36.3,419.7-25.53,570-.48,337.46,56.24,470.26,186.93,796,228.69,192.88,24.73,379.39,11.67,557-27.1Z"/><path class="cls-3" d="M1920,7717H-1q.49-790.5,1-1581c80.08,30.76,215,73.42,384,78.55,355.53,10.8,529.27-154.67,898-218.52,139.45-24.15,355.89-42.27,638,15.1Z"/><path class="cls-2" d="M1920,9566c-210.37,18.5-384.59,11.4-511,0-317.27-28.6-643.91-112.29-795-151-65.28-16.72-168.56-44.35-310-46A1168.07,1168.07,0,0,0,0,9406V7597a1029.33,1029.33,0,0,1,212-87c325.83-92.61,583.67,12.48,852,63,197.69,37.22,484.7,60.57,856-13Z"/></svg>