<svg xmlns="http://www.w3.org/2000/svg" width="115" height="80" viewBox="0 0 115 80"><defs><style>.cls-1{fill:#c38a6c;}.cls-2{fill:#9f7058;}.cls-3{fill:#3c3c3c;}.cls-4{fill:#e6e6d1;}.cls-5{fill:#ccccba;}</style></defs><g id="レイヤー_2" data-name="レイヤー 2"><g id="図形"><rect class="cls-1" x="106.46" y="57.94" width="8.54" height="22.06"/><rect class="cls-2" x="106.46" y="55.93" width="8.54" height="2.01"/><rect class="cls-1" x="107.54" y="49.25" width="6.39" height="6.68"/><rect class="cls-2" x="107.02" y="47.26" width="7.42" height="1.99"/><path class="cls-3" d="M111.93,51.45a.76.76,0,0,0-.56.74v3.74h1.12V52.19A.77.77,0,0,0,111.93,51.45Z"/><path class="cls-3" d="M109.54,51.45a.77.77,0,0,0-.57.74v3.74h1.13V52.19A.77.77,0,0,0,109.54,51.45Z"/><rect class="cls-1" x="108.71" y="41.86" width="4.04" height="5.4"/><path class="cls-2" d="M111,39.88V37.4a.22.22,0,0,0-.23-.22h0a.23.23,0,0,0-.23.22v2.48a2,2,0,0,0-1.79,2h4A2,2,0,0,0,111,39.88Z"/><path class="cls-3" d="M112.24,47.26h-.5V43a.25.25,0,0,1,.25-.25h0a.25.25,0,0,1,.25.25Z"/><path class="cls-3" d="M111.4,47.26h-.5V43a.25.25,0,0,1,.25-.25h0a.25.25,0,0,1,.25.25Z"/><path class="cls-3" d="M110.56,47.26h-.5V43a.25.25,0,0,1,.25-.25h0a.25.25,0,0,1,.25.25Z"/><path class="cls-3" d="M109.72,47.26h-.5V43a.25.25,0,0,1,.25-.25h0a.25.25,0,0,1,.25.25Z"/><rect class="cls-2" x="108.88" y="63.01" width="0.5" height="7.02"/><rect class="cls-2" x="112.08" y="63.01" width="0.5" height="7.02"/><path class="cls-3" d="M109.13,61.79a.85.85,0,0,0-.62.82V63h1.25v-.4A.86.86,0,0,0,109.13,61.79Z"/><path class="cls-3" d="M112.33,61.79a.85.85,0,0,0-.62.82V63H113v-.4A.85.85,0,0,0,112.33,61.79Z"/><path class="cls-2" d="M58.2,45.1H54.31a10.66,10.66,0,0,0-8.82,10.46H67A10.66,10.66,0,0,0,58.2,45.1Z"/><path class="cls-1" d="M58.2,45.1h-.71l-1.24.52L55,45.1h-.7l-.14,0,1.63.69-1.64.7-1.92-.82-.46.19,1.93.82-1.64.69-1.72-.73L50,46.9l1.62.68-1.64.7-1.1-.47-.27.27.92.39-1.64.69-.18-.07c-.19.24-.37.5-.54.76l.72-.3,1.64.69-1.64.69-1.09-.46c0,.11-.11.21-.16.32l.8.34-1.19.5c-.08.22-.17.44-.24.66l1.43.61-1.64.69-.11-.05a4.71,4.71,0,0,0-.09.52l.2-.09,1.64.7-1.95.82v.07h.75l1.65-.7,1.64.69h.91l1.63-.69,1.64.69h.91l1.63-.69,1.64.69h.9l1.64-.69,1.63.69H63l1.64-.69,1.65.7H67v-.07l-2-.82L66.7,54l.21.09c0-.17-.06-.35-.09-.52l-.12.05-1.64-.69,1.44-.61c-.07-.22-.16-.44-.24-.66l-1.2-.5.81-.35-.17-.31-1.09.46L63,50.24l1.64-.69.73.31a8.43,8.43,0,0,0-.55-.78l-.18.08L63,48.47l.93-.39-.28-.27-1.1.47-1.64-.7,1.62-.68-.35-.24-1.72.73-1.64-.69,1.93-.82-.45-.19-1.93.82-1.64-.7,1.64-.69Zm-4,1.79,1.64.69-1.64.7-1.63-.7Zm6.27,5.81L58.79,52l1.64-.69,1.63.69Zm2.09-.5,1.63.7-1.63.69-1.64-.69ZM50.44,52l1.63-.69,1.64.69-1.64.69Zm1.18.89L50,53.59l-1.63-.69L50,52.2Zm4.63-2-1.63-.69,1.63-.69,1.64.69Zm2.09-.5,1.63.7-1.63.69-1.64-.69Zm-2.54.7-1.64.69-1.63-.69,1.63-.7Zm-1.64-1.08-1.63-.69,1.63-.7,1.64.7Zm-.45.19-1.64.69-1.63-.69,1.63-.69Zm.45,2,1.64.7-1.64.69-1.63-.69Zm.46-.19,1.63-.69,1.64.69-1.64.69Zm3.72.19,1.63.7-1.63.69L56.7,52.9Zm.45-2,1.64-.69,1.63.69-1.63.69Zm-.45-.19-1.64-.69,1.64-.7,1.63.7Zm-2.09-.89-1.63-.69,1.63-.69,1.64.69Zm-4.18-1.38,1.64.69-1.64.69-1.63-.69Zm-3.72,1.58,1.63-.7,1.64.7L50,50.05ZM50,50.43l1.64.7L50,51.82l-1.63-.69ZM46.26,52l1.63-.69,1.64.69-1.64.69Zm0,1.77,1.63-.69,1.64.69-1.64.69ZM50,55.36l-1.63-.69L50,54l1.64.7Zm.46-1.58,1.63-.69,1.64.69-1.64.69Zm3.72,1.58-1.63-.69,1.63-.7,1.64.7Zm.46-1.58,1.63-.69,1.64.69-1.64.69Zm3.72,1.58-1.64-.69,1.64-.7,1.63.7Zm.45-1.58,1.64-.69,1.63.69-1.63.69Zm3.73,1.58-1.64-.69,1.64-.7,1.63.7Zm3.72-1.58-1.63.69L63,53.78l1.64-.69Zm0-1.77-1.63.69L63,52l1.64-.69Zm-2.09-.88-1.63.69-1.64-.69,1.64-.7Zm0-1.77-1.63.69-1.64-.69,1.64-.7Zm-2.09-.89-1.63.69-1.64-.69,1.64-.69ZM60,47.58l-1.63.7-1.64-.7,1.64-.69Zm-2.08-.88-1.64.69-1.63-.69L56.25,46Z"/><rect class="cls-4" x="21.76" y="64.09" width="68.99" height="5.94"/><rect class="cls-5" x="21.76" y="67.45" width="68.99" height="0.85"/><rect class="cls-5" x="21.76" y="63.29" width="68.99" height="0.8"/><rect class="cls-5" x="25.91" y="61.17" width="60.68" height="0.8"/><rect class="cls-5" x="42.02" y="58.95" width="28.48" height="0.8"/><rect class="cls-5" x="44.99" y="55.56" width="22.53" height="0.8"/><rect class="cls-4" x="44.99" y="56.36" width="22.53" height="2.58"/><rect class="cls-4" x="25.91" y="61.97" width="60.68" height="1.32"/><path class="cls-5" d="M30.5,65.54h0a.65.65,0,0,1,.65.65V70a0,0,0,0,1,0,0H29.85a0,0,0,0,1,0,0V66.19A.65.65,0,0,1,30.5,65.54Z"/><path class="cls-5" d="M30.5,65.93h0a.28.28,0,0,1,.28.28V70a0,0,0,0,1,0,0h-.56a0,0,0,0,1,0,0V66.2A.28.28,0,0,1,30.5,65.93Z"/><path class="cls-5" d="M36.16,65.54h0a.65.65,0,0,1,.65.65V70a0,0,0,0,1,0,0H35.51a0,0,0,0,1,0,0V66.19a.65.65,0,0,1,.65-.65Z"/><path class="cls-5" d="M36.16,65.93h0a.28.28,0,0,1,.28.28V70a0,0,0,0,1,0,0h-.56a0,0,0,0,1,0,0V66.2A.28.28,0,0,1,36.16,65.93Z"/><path class="cls-5" d="M41.78,65.54h0a.65.65,0,0,1,.65.65V70a0,0,0,0,1,0,0H41.13a0,0,0,0,1,0,0V66.19A.65.65,0,0,1,41.78,65.54Z"/><path class="cls-5" d="M41.78,65.93h0a.28.28,0,0,1,.28.28V70a0,0,0,0,1,0,0h-.56a0,0,0,0,1,0,0V66.2A.28.28,0,0,1,41.78,65.93Z"/><path class="cls-5" d="M47.4,65.54h0a.65.65,0,0,1,.65.65V70a0,0,0,0,1,0,0H46.74a0,0,0,0,1,0,0V66.19A.65.65,0,0,1,47.4,65.54Z"/><path class="cls-5" d="M47.4,65.93h0a.28.28,0,0,1,.28.28V70a0,0,0,0,1,0,0h-.56a0,0,0,0,1,0,0V66.2a.28.28,0,0,1,.28-.28Z"/><path class="cls-5" d="M65.1,65.54h0a.65.65,0,0,1,.65.65V70a0,0,0,0,1,0,0H64.45a0,0,0,0,1,0,0V66.19A.65.65,0,0,1,65.1,65.54Z"/><path class="cls-5" d="M65.1,65.93h0a.28.28,0,0,1,.28.28V70a0,0,0,0,1,0,0h-.56a0,0,0,0,1,0,0V66.2a.28.28,0,0,1,.28-.28Z"/><path class="cls-5" d="M70.76,65.54h0a.65.65,0,0,1,.65.65V70a0,0,0,0,1,0,0H70.11a0,0,0,0,1,0,0V66.19a.65.65,0,0,1,.65-.65Z"/><path class="cls-5" d="M70.76,65.93h0a.28.28,0,0,1,.28.28V70a0,0,0,0,1,0,0h-.56a0,0,0,0,1,0,0V66.2A.28.28,0,0,1,70.76,65.93Z"/><path class="cls-5" d="M76.38,65.54h0a.65.65,0,0,1,.65.65V70a0,0,0,0,1,0,0H75.73a0,0,0,0,1,0,0V66.19a.65.65,0,0,1,.65-.65Z"/><path class="cls-5" d="M76.38,65.93h0a.28.28,0,0,1,.28.28V70a0,0,0,0,1,0,0h-.56a0,0,0,0,1,0,0V66.2A.28.28,0,0,1,76.38,65.93Z"/><path class="cls-5" d="M82,65.54h0a.65.65,0,0,1,.65.65V70a0,0,0,0,1,0,0H81.34a0,0,0,0,1,0,0V66.19A.65.65,0,0,1,82,65.54Z"/><path class="cls-5" d="M82,65.93h0a.28.28,0,0,1,.28.28V70a0,0,0,0,1,0,0h-.56a0,0,0,0,1,0,0V66.2a.28.28,0,0,1,.28-.28Z"/><rect class="cls-4" x="40.81" y="59.75" width="30.9" height="1.42"/><path class="cls-3" d="M56.25,57.1h0a.37.37,0,0,1,.37.37v.68a0,0,0,0,1,0,0h-.74a0,0,0,0,1,0,0v-.68A.37.37,0,0,1,56.25,57.1Z"/><path class="cls-3" d="M57.5,57.1h0a.37.37,0,0,1,.37.37v.68a0,0,0,0,1,0,0h-.74a0,0,0,0,1,0,0v-.68a.37.37,0,0,1,.37-.37Z"/><path class="cls-3" d="M55,57.1h0a.37.37,0,0,1,.37.37v.68a0,0,0,0,1,0,0h-.74a0,0,0,0,1,0,0v-.68A.37.37,0,0,1,55,57.1Z"/><path class="cls-3" d="M51.61,57.1h0a.37.37,0,0,1,.37.37v.68a0,0,0,0,1,0,0h-.74a0,0,0,0,1,0,0v-.68a.37.37,0,0,1,.37-.37Z"/><path class="cls-3" d="M52.86,57.1h0a.37.37,0,0,1,.37.37v.68a0,0,0,0,1,0,0H52.5a0,0,0,0,1,0,0v-.68a.37.37,0,0,1,.37-.37Z"/><path class="cls-3" d="M50.36,57.1h0a.37.37,0,0,1,.37.37v.68a0,0,0,0,1,0,0H50a0,0,0,0,1,0,0v-.68a.37.37,0,0,1,.37-.37Z"/><path class="cls-3" d="M47,57.1h0a.37.37,0,0,1,.37.37v.68a0,0,0,0,1,0,0H46.6a0,0,0,0,1,0,0v-.68A.37.37,0,0,1,47,57.1Z"/><path class="cls-3" d="M48.22,57.1h0a.37.37,0,0,1,.37.37v.68a0,0,0,0,1,0,0h-.74a0,0,0,0,1,0,0v-.68a.37.37,0,0,1,.37-.37Z"/><path class="cls-3" d="M45.71,57.1h0a.37.37,0,0,1,.37.37v.68a0,0,0,0,1,0,0h-.74a0,0,0,0,1,0,0v-.68A.37.37,0,0,1,45.71,57.1Z"/><path class="cls-3" d="M60.89,57.1h0a.37.37,0,0,1,.37.37v.68a0,0,0,0,1,0,0h-.74a0,0,0,0,1,0,0v-.68A.37.37,0,0,1,60.89,57.1Z"/><path class="cls-3" d="M62.15,57.1h0a.37.37,0,0,1,.37.37v.68a0,0,0,0,1,0,0h-.74a0,0,0,0,1,0,0v-.68A.37.37,0,0,1,62.15,57.1Z"/><path class="cls-3" d="M59.64,57.1h0a.37.37,0,0,1,.37.37v.68a0,0,0,0,1,0,0h-.74a0,0,0,0,1,0,0v-.68A.37.37,0,0,1,59.64,57.1Z"/><path class="cls-3" d="M65.54,57.1h0a.37.37,0,0,1,.37.37v.68a0,0,0,0,1,0,0h-.74a0,0,0,0,1,0,0v-.68A.37.37,0,0,1,65.54,57.1Z"/><path class="cls-3" d="M66.79,57.1h0a.37.37,0,0,1,.37.37v.68a0,0,0,0,1,0,0h-.74a0,0,0,0,1,0,0v-.68A.37.37,0,0,1,66.79,57.1Z"/><path class="cls-3" d="M64.28,57.1h0a.37.37,0,0,1,.37.37v.68a0,0,0,0,1,0,0h-.74a0,0,0,0,1,0,0v-.68A.37.37,0,0,1,64.28,57.1Z"/><path class="cls-4" d="M65.55,55.56H66a11,11,0,0,0-5.55-9.8,10.79,10.79,0,0,0-2.25-.66H54.31a10.79,10.79,0,0,0-2.25.66,11,11,0,0,0-5.55,9.8H47a10.37,10.37,0,0,1,6.52-9.94c-2.43,1.68-4.14,5.5-4.14,9.94h.45c0-5.21,2.38-9.54,5.49-10.3A7.66,7.66,0,0,0,54.12,48a32.51,32.51,0,0,0-.8,7.58h.45c0-6.14,1.31-10.42,2.48-10.42s2.49,4.28,2.49,10.42h.44A32.56,32.56,0,0,0,58.39,48a7.66,7.66,0,0,0-1.16-2.72c3.11.76,5.49,5.09,5.49,10.3h.45c0-4.44-1.71-8.26-4.14-9.94A10.37,10.37,0,0,1,65.55,55.56Z"/><path class="cls-4" d="M56.59,44.4h-.67l.17-5a.17.17,0,0,1,.16-.16h0a.17.17,0,0,1,.17.16Z"/><polygon class="cls-5" points="57.49 44.4 55.02 44.4 54.3 45.1 58.21 45.1 57.49 44.4"/><rect class="cls-1" x="11.88" y="70.08" width="26.19" height="9.92"/><path class="cls-2" d="M14.5,72.85a2.78,2.78,0,0,0-2,2.66v2.83h4V75.51a2.79,2.79,0,0,0-2-2.66Z"/><path class="cls-3" d="M14.5,73.56a2.12,2.12,0,0,1,1.33,2v2.16H13.17V75.51A2.11,2.11,0,0,1,14.5,73.56Z"/><path class="cls-2" d="M30.21,72.85a2.78,2.78,0,0,0-2,2.66v2.83h4V75.51a2.78,2.78,0,0,0-2-2.66Z"/><path class="cls-3" d="M30.21,73.56a2.12,2.12,0,0,1,1.33,2v2.16H28.88V75.51A2.12,2.12,0,0,1,30.21,73.56Z"/><path class="cls-2" d="M25,72.85a2.79,2.79,0,0,0-2,2.66v2.83h4V75.51a2.78,2.78,0,0,0-2-2.66Z"/><path class="cls-3" d="M25,73.56a2.11,2.11,0,0,1,1.33,2v2.16H23.64V75.51A2.12,2.12,0,0,1,25,73.56Z"/><path class="cls-2" d="M19.73,72.85a2.79,2.79,0,0,0-2,2.66v2.83h4V75.51a2.79,2.79,0,0,0-2-2.66Z"/><path class="cls-3" d="M19.73,73.56a2.11,2.11,0,0,1,1.33,2v2.16H18.41V75.51A2.11,2.11,0,0,1,19.73,73.56Z"/><path class="cls-2" d="M35.45,72.85a2.78,2.78,0,0,0-2,2.66v2.83h4V75.51a2.78,2.78,0,0,0-2-2.66Z"/><path class="cls-3" d="M35.45,73.56a2.12,2.12,0,0,1,1.33,2v2.16H34.12V75.51A2.12,2.12,0,0,1,35.45,73.56Z"/><rect class="cls-3" x="27.21" y="71.61" width="0.76" height="0.75"/><rect class="cls-3" x="32.45" y="71.61" width="0.76" height="0.75"/><rect class="cls-3" x="21.97" y="71.61" width="0.76" height="0.75"/><rect class="cls-3" x="16.74" y="71.61" width="0.76" height="0.75"/><polygon class="cls-2" points="30.85 69.42 29.57 69.42 27.59 70.08 32.83 70.08 30.85 69.42"/><rect class="cls-2" x="29.57" y="69" width="1.28" height="0.42"/><polygon class="cls-2" points="15.14 69.42 13.86 69.42 11.88 70.08 17.12 70.08 15.14 69.42"/><rect class="cls-2" x="13.86" y="69" width="1.28" height="0.42"/><polygon class="cls-2" points="25.61 69.42 24.33 69.42 22.35 70.08 27.59 70.08 25.61 69.42"/><rect class="cls-2" x="24.33" y="69" width="1.28" height="0.42"/><polygon class="cls-2" points="20.37 69.42 19.1 69.42 17.12 70.08 22.35 70.08 20.37 69.42"/><rect class="cls-2" x="19.1" y="69" width="1.28" height="0.42"/><polygon class="cls-2" points="36.09 69.42 34.81 69.42 32.83 70.08 38.07 70.08 36.09 69.42"/><rect class="cls-2" x="34.81" y="69" width="1.28" height="0.42"/><rect class="cls-1" x="42.07" y="70.08" width="26.19" height="9.92"/><path class="cls-2" d="M44.69,72.85a2.78,2.78,0,0,0-2,2.66v2.83h4V75.51a2.78,2.78,0,0,0-2-2.66Z"/><path class="cls-3" d="M44.69,73.56a2.12,2.12,0,0,1,1.33,2v2.16H43.36V75.51A2.12,2.12,0,0,1,44.69,73.56Z"/><path class="cls-2" d="M60.41,72.85a2.79,2.79,0,0,0-2,2.66v2.83h4V75.51a2.79,2.79,0,0,0-2-2.66Z"/><path class="cls-3" d="M60.41,73.56a2.12,2.12,0,0,1,1.33,2v2.16H59.08V75.51A2.11,2.11,0,0,1,60.41,73.56Z"/><path class="cls-2" d="M55.17,72.85a2.78,2.78,0,0,0-2,2.66v2.83h4V75.51a2.78,2.78,0,0,0-2-2.66Z"/><path class="cls-3" d="M55.17,73.56a2.12,2.12,0,0,1,1.33,2v2.16H53.84V75.51A2.12,2.12,0,0,1,55.17,73.56Z"/><path class="cls-2" d="M49.93,72.85a2.78,2.78,0,0,0-2,2.66v2.83h4V75.51a2.78,2.78,0,0,0-2-2.66Z"/><path class="cls-3" d="M49.93,73.56a2.12,2.12,0,0,1,1.33,2v2.16H48.6V75.51A2.12,2.12,0,0,1,49.93,73.56Z"/><path class="cls-2" d="M65.64,72.85a2.79,2.79,0,0,0-2,2.66v2.83h4V75.51a2.79,2.79,0,0,0-2-2.66Z"/><path class="cls-3" d="M65.64,73.56a2.11,2.11,0,0,1,1.33,2v2.16H64.32V75.51A2.11,2.11,0,0,1,65.64,73.56Z"/><rect class="cls-3" x="57.41" y="71.61" width="0.76" height="0.75"/><rect class="cls-3" x="62.65" y="71.61" width="0.76" height="0.75"/><rect class="cls-3" x="52.17" y="71.61" width="0.76" height="0.75"/><rect class="cls-3" x="46.93" y="71.61" width="0.76" height="0.75"/><polygon class="cls-2" points="61.05 69.42 59.77 69.42 57.79 70.08 63.02 70.08 61.05 69.42"/><rect class="cls-2" x="59.77" y="69" width="1.28" height="0.42"/><polygon class="cls-2" points="45.33 69.42 44.05 69.42 42.07 70.08 47.31 70.08 45.33 69.42"/><rect class="cls-2" x="44.05" y="69" width="1.28" height="0.42"/><polygon class="cls-2" points="55.81 69.42 54.53 69.42 52.55 70.08 57.79 70.08 55.81 69.42"/><rect class="cls-2" x="54.53" y="69" width="1.28" height="0.42"/><polygon class="cls-2" points="50.57 69.42 49.29 69.42 47.31 70.08 52.55 70.08 50.57 69.42"/><rect class="cls-2" x="49.29" y="69" width="1.28" height="0.42"/><polygon class="cls-2" points="66.28 69.42 65 69.42 63.02 70.08 68.26 70.08 66.28 69.42"/><rect class="cls-2" x="65.01" y="69" width="1.28" height="0.42"/><rect class="cls-1" x="80.27" y="70.08" width="26.19" height="9.92"/><path class="cls-2" d="M82.89,72.85a2.78,2.78,0,0,0-2,2.66v2.83h4V75.51a2.78,2.78,0,0,0-2-2.66Z"/><path class="cls-3" d="M82.89,73.56a2.12,2.12,0,0,1,1.33,2v2.16H81.56V75.51A2.12,2.12,0,0,1,82.89,73.56Z"/><path class="cls-2" d="M98.61,72.85a2.78,2.78,0,0,0-2,2.66v2.83h4V75.51a2.79,2.79,0,0,0-2-2.66Z"/><path class="cls-3" d="M98.61,73.56a2.12,2.12,0,0,1,1.33,2v2.16H97.28V75.51A2.11,2.11,0,0,1,98.61,73.56Z"/><path class="cls-2" d="M93.37,72.85a2.78,2.78,0,0,0-2,2.66v2.83h4V75.51a2.78,2.78,0,0,0-2-2.66Z"/><path class="cls-3" d="M93.37,73.56a2.12,2.12,0,0,1,1.33,2v2.16H92V75.51A2.12,2.12,0,0,1,93.37,73.56Z"/><path class="cls-2" d="M88.13,72.85a2.78,2.78,0,0,0-2,2.66v2.83h4V75.51a2.78,2.78,0,0,0-2-2.66Z"/><path class="cls-3" d="M88.13,73.56a2.12,2.12,0,0,1,1.33,2v2.16H86.8V75.51A2.12,2.12,0,0,1,88.13,73.56Z"/><path class="cls-2" d="M103.84,72.85a2.79,2.79,0,0,0-2,2.66v2.83h4V75.51a2.79,2.79,0,0,0-2-2.66Z"/><path class="cls-3" d="M103.84,73.56a2.11,2.11,0,0,1,1.33,2v2.16h-2.65V75.51A2.11,2.11,0,0,1,103.84,73.56Z"/><rect class="cls-3" x="95.61" y="71.61" width="0.76" height="0.75"/><rect class="cls-3" x="100.85" y="71.61" width="0.76" height="0.75"/><rect class="cls-3" x="90.37" y="71.61" width="0.76" height="0.75"/><rect class="cls-3" x="85.13" y="71.61" width="0.76" height="0.75"/><polygon class="cls-2" points="99.25 69.42 97.97 69.42 95.99 70.08 101.23 70.08 99.25 69.42"/><rect class="cls-2" x="97.97" y="69" width="1.28" height="0.42"/><polygon class="cls-2" points="83.53 69.42 82.25 69.42 80.27 70.08 85.51 70.08 83.53 69.42"/><rect class="cls-2" x="82.25" y="69" width="1.28" height="0.42"/><polygon class="cls-2" points="94.01 69.42 92.73 69.42 90.75 70.08 95.99 70.08 94.01 69.42"/><rect class="cls-2" x="92.73" y="69" width="1.28" height="0.42"/><polygon class="cls-2" points="88.77 69.42 87.49 69.42 85.51 70.08 90.75 70.08 88.77 69.42"/><rect class="cls-2" x="87.49" y="69" width="1.28" height="0.42"/><polygon class="cls-2" points="104.48 69.42 103.21 69.42 101.23 70.08 106.46 70.08 104.48 69.42"/><rect class="cls-2" x="103.21" y="69" width="1.28" height="0.42"/><path class="cls-2" d="M40.07,67.43a2.77,2.77,0,0,0-2,2.65V80h4V70.08a2.77,2.77,0,0,0-2-2.65Z"/><path class="cls-3" d="M40.07,68.13a2.13,2.13,0,0,1,1.33,2V80H38.74V70.08A2.13,2.13,0,0,1,40.07,68.13Z"/><path class="cls-2" d="M78.27,67.43a2.77,2.77,0,0,0-2,2.65V80h4V70.08a2.77,2.77,0,0,0-2-2.65Z"/><path class="cls-3" d="M78.27,68.13a2.13,2.13,0,0,1,1.33,2V80H76.94V70.08A2.13,2.13,0,0,1,78.27,68.13Z"/><path class="cls-2" d="M70.27,67.43a2.78,2.78,0,0,0-2,2.65V80h4V70.08a2.78,2.78,0,0,0-2-2.65Z"/><path class="cls-3" d="M70.27,68.13a2.12,2.12,0,0,1,1.32,2V80H68.94V70.08A2.12,2.12,0,0,1,70.27,68.13Z"/><path class="cls-2" d="M74.27,67.43a2.77,2.77,0,0,0-2,2.65V80h4V70.08a2.77,2.77,0,0,0-2-2.65Z"/><path class="cls-3" d="M74.27,68.13a2.13,2.13,0,0,1,1.33,2V80H72.94V70.08A2.13,2.13,0,0,1,74.27,68.13Z"/><rect class="cls-4" x="2.1" y="25.89" width="7.68" height="10.35"/><rect class="cls-4" x="1.47" y="38.54" width="8.93" height="28.16"/><rect class="cls-4" y="66.7" width="11.88" height="13.3"/><path class="cls-2" d="M5.94,70.22a3.28,3.28,0,0,0-2.36,3.13V80H8.29V73.35a3.27,3.27,0,0,0-2.35-3.13Z"/><path class="cls-3" d="M5.94,28.62a.8.8,0,0,0-.58.76v6.86H6.51V29.38A.79.79,0,0,0,5.94,28.62Z"/><path class="cls-3" d="M8.19,28.62a.8.8,0,0,0-.58.76v6.86H8.76V29.38A.79.79,0,0,0,8.19,28.62Z"/><path class="cls-3" d="M3.69,28.62a.8.8,0,0,0-.58.76v6.86H4.26V29.38A.79.79,0,0,0,3.69,28.62Z"/><polygon class="cls-5" points="9.84 11.94 2.04 11.94 3.72 9.85 8.15 9.85 9.84 11.94"/><rect class="cls-4" x="2.59" y="13.95" width="6.7" height="9.65"/><path class="cls-3" d="M5.94,16.61a.7.7,0,0,0-.5.67v6.31h1V17.28A.7.7,0,0,0,5.94,16.61Z"/><path class="cls-3" d="M7.9,16.61a.7.7,0,0,0-.5.67v6.31h1V17.28A.7.7,0,0,0,7.9,16.61Z"/><path class="cls-3" d="M4,16.61a.71.71,0,0,0-.51.67v6.31h1V17.28A.7.7,0,0,0,4,16.61Z"/><rect class="cls-4" x="3.72" y="5.14" width="4.43" height="4.71"/><path class="cls-5" d="M6.19,3V.25a.25.25,0,0,0-.5,0V3a2.19,2.19,0,0,0-2,2.17H8.15A2.19,2.19,0,0,0,6.19,3Z"/><path class="cls-5" d="M7,9.85h-.5V6.57a.25.25,0,0,1,.25-.25h0A.25.25,0,0,1,7,6.57Z"/><path class="cls-5" d="M6.19,9.85h-.5V6.57a.25.25,0,0,1,.25-.25h0a.25.25,0,0,1,.25.25Z"/><path class="cls-5" d="M5.35,9.85h-.5V6.57a.25.25,0,0,1,.25-.25h0a.25.25,0,0,1,.25.25Z"/><path class="cls-5" d="M7.87,9.85h-.5V6.57a.25.25,0,0,1,.25-.25h0a.25.25,0,0,1,.25.25Z"/><path class="cls-5" d="M4.51,9.85H4V6.57a.25.25,0,0,1,.25-.25h0a.25.25,0,0,1,.25.25Z"/><path class="cls-3" d="M5.94,71.66a1.93,1.93,0,0,1,1,1.69V80h-2V73.35A1.93,1.93,0,0,1,5.94,71.66Z"/><rect class="cls-5" x="5.69" y="46.32" width="0.5" height="11.46"/><path class="cls-5" d="M5.94,43.47a2.11,2.11,0,0,0-1.51,2v.84h3v-.84a2.11,2.11,0,0,0-1.51-2Z"/><path class="cls-3" d="M5.94,44.39a1.26,1.26,0,0,1,.65,1.09v.84H5.29v-.84A1.26,1.26,0,0,1,5.94,44.39Z"/><rect class="cls-5" x="8.27" y="46.32" width="0.5" height="11.46"/><path class="cls-5" d="M8.52,43.47a2.31,2.31,0,0,0-.65.32v2.53H10v-.84A2.11,2.11,0,0,0,8.52,43.47Z"/><path class="cls-3" d="M8.52,44.39a1.26,1.26,0,0,1,.65,1.09v.84H7.87v-.84A1.26,1.26,0,0,1,8.52,44.39Z"/><rect class="cls-5" x="3.1" y="46.32" width="0.5" height="11.46"/><path class="cls-5" d="M3.36,43.47a2.14,2.14,0,0,1,.64.32v2.53H1.85v-.84A2.09,2.09,0,0,1,3.36,43.47Z"/><path class="cls-3" d="M4,45.48v.84H2.71v-.84a1.24,1.24,0,0,1,.65-1.09A1.25,1.25,0,0,1,4,45.48Z"/><rect class="cls-5" x="1.47" y="23.59" width="8.93" height="2.3"/><rect class="cls-5" x="2.04" y="11.94" width="7.79" height="2.01"/><rect class="cls-5" x="0.71" y="36.24" width="10.46" height="2.3"/></g></g></svg>