<svg xmlns="http://www.w3.org/2000/svg" width="55.43" height="60" viewBox="0 0 55.43 60"><defs><style>.cls-1{fill:#4d4d4d;}.cls-2{fill:#111;}.cls-3{fill:#333;}.cls-4{fill:#944f90;}</style></defs><g id="レイヤー_2" data-name="レイヤー 2"><g id="図形"><path class="cls-1" d="M.49,44.62A10.92,10.92,0,0,1,0,42.5Q0,30.17,0,17.84a4.69,4.69,0,0,1,2.6-4.37l21-11.61c.69-.38,1.35-.81,2-1.21a4.54,4.54,0,0,1,4.68,0q11.17,6.1,22.29,12.28a11.65,11.65,0,0,1,2.11,2c-2.34,1.28-4.67,2.58-7,3.82-1.35.72-2.75,1.35-4.13,2a18.85,18.85,0,0,0-12.5-8.33c-7.14-1.4-15.34,2-19,8s-3.75,12.06-.32,18.18c-.43.2-.89.36-1.31.59Z"/><path class="cls-2" d="M.49,44.62l9.92-5.44c.42-.23.88-.39,1.31-.59a18.19,18.19,0,0,0,14.17,8.64A18.31,18.31,0,0,0,42.75,39.9c.32-.41.7-.77,1-1.15l.28,0,1.47.81h0l1.06.61h0c.12.15.21.35.37.44,1.07.63,2.15,1.24,3.22,1.86l4.53,2.62a5.07,5.07,0,0,1-.81.84c-2.1,1.29-4.2,2.61-6.36,3.81-4.9,2.75-9.89,5.35-14.74,8.18-2.87,1.67-5.63,2.21-8.61.42-.68-.41-1.38-.79-2.07-1.17Q13.33,52.35,4.55,47.5c-1.08-.59-2.18-1.14-3.27-1.7h0L.68,45Z"/><path class="cls-3" d="M44.08,38.78l-.28,0a3.68,3.68,0,0,0-.64-.61q-3.45-1.92-6.92-3.8a2.27,2.27,0,0,0-.75-.14c-.17-.19-.3-.44-.52-.56-1.5-.84-3-1.63-4.52-2.49-.81-.47-1.55-1-2.32-1.58,1.2-.67,2.4-1.34,3.58-2s2.53-1.49,3.79-2.24a1.59,1.59,0,0,0,.39-.1q3.66-2,7.31-4c.16-.09.25-.3.38-.45,1.38-.66,2.78-1.29,4.13-2,2.37-1.24,4.7-2.54,7-3.82a10.46,10.46,0,0,1,.65,2.48c0,8.47,0,16.93,0,25.39a8.3,8.3,0,0,1-.1,1l-.63.74c-.94-.53-1.86-1.06-2.8-1.56-1.76-.94-3.53-1.85-5.3-2.77h0l-1.06-.61h0Zm7.26-10.07V27L50,26.9l-.13-1.31H48.06l-.14,1.32h-2l-.13-1.28H44l-.08,1.27L42.52,27v1.67l1.34.13v1.92l-1.32.11v1.69l1.33.1L44,34h1.79l.1-1.35h2L48.05,34h1.82l.1-1.36,1.34-.1V30.82L50,30.75v-2Z"/><path class="cls-3" d="M46.59,40.19c1.77.92,3.54,1.83,5.3,2.77.94.5,1.86,1,2.8,1.56l.63-.74a4.55,4.55,0,0,1-2.57,3.65L42,53.37c-3.51,1.92-7,3.87-10.53,5.76a6.85,6.85,0,0,1-6.67,0C20,56.62,15.34,54,10.63,51.37c-2.45-1.34-4.91-2.66-7.34-4a19.72,19.72,0,0,1-2-1.53c1.09.56,2.19,1.11,3.27,1.7q8.79,4.83,17.57,9.69c.69.38,1.39.76,2.07,1.17,3,1.79,5.74,1.25,8.61-.42,4.85-2.83,9.84-5.43,14.74-8.18,2.16-1.2,4.26-2.52,6.36-3.81a5.07,5.07,0,0,0,.81-.84l-4.53-2.62C49.11,41.87,48,41.26,47,40.63,46.8,40.54,46.71,40.34,46.59,40.19Z"/><path class="cls-4" d="M.68,45l.6.8Z"/><path class="cls-4" d="M44.08,38.78l1.47.81Z"/><path class="cls-4" d="M45.54,39.59l1.06.61Z"/><path class="cls-1" d="M19.91,34.21c-2.78-4-1.25-9.58,3.36-12.13,4.18-2.31,10.08-.76,12.23,3.22-1.26.75-2.52,1.51-3.79,2.24s-2.38,1.36-3.58,2c-1.79.94-3.61,1.86-5.38,2.84C21.77,33,20.86,33.61,19.91,34.21Z"/><path class="cls-2" d="M19.91,34.21c.95-.6,1.86-1.26,2.84-1.8,1.77-1,3.59-1.9,5.38-2.84.77.53,1.51,1.11,2.32,1.58,1.49.86,3,1.65,4.52,2.49.22.12.35.37.52.56a8.64,8.64,0,0,1-7.57,4.23A8.68,8.68,0,0,1,19.91,34.21Z"/><path class="cls-1" d="M45.85,30.72v-1.9H48v1.9Z"/></g></g></svg>