<svg xmlns="http://www.w3.org/2000/svg" xmlns:xlink="http://www.w3.org/1999/xlink" width="52.9" height="60" viewBox="0 0 52.9 60"><defs><style>.cls-1{isolation:isolate;}.cls-2{fill:#111;}.cls-3{fill:#4d4d4d;}.cls-4{fill:#ebebeb;}.cls-5{opacity:0.2;fill:url(#linear-gradient);}.cls-5,.cls-7{mix-blend-mode:multiply;}.cls-6{fill:#fff;}.cls-7{opacity:0.3;fill:url(#linear-gradient-2);}</style><linearGradient id="linear-gradient" x1="25.58" y1="21.71" x2="13.41" y2="27.59" gradientUnits="userSpaceOnUse"><stop offset="0" stop-color="#fff"/><stop offset="1"/></linearGradient><linearGradient id="linear-gradient-2" x1="26.45" y1="17.92" x2="43.04" y2="17.92" xlink:href="#linear-gradient"/></defs><g class="cls-1"><g id="レイヤー_2" data-name="レイヤー 2"><g id="図形"><polygon class="cls-2" points="26.42 60 4.81 54 0 0 52.9 0 48.08 53.99 26.42 60"/><polygon class="cls-3" points="43.96 50.55 48.08 4.42 26.45 4.42 26.45 55.41 43.96 50.55"/><polygon class="cls-4" points="11.65 31.16 42.45 17.75 43.04 11.13 11.06 24.53 11.65 31.16"/><polygon class="cls-5" points="11.65 31.16 42.45 17.75 43.04 11.13 11.06 24.53 11.65 31.16"/><polygon class="cls-4" points="26.45 11.13 9.86 11.13 10.02 12.9 10.46 17.75 26.47 17.75 26.47 11.13 26.45 11.13"/><polygon class="cls-6" points="41.84 24.53 26.45 24.53 26.45 31.16 34.6 31.16 33.84 39.74 26.45 41.74 26.45 48.63 40.03 44.87 41.84 24.53"/><polygon class="cls-6" points="26.45 18.08 26.45 24.71 42.45 17.75 43.04 11.13 26.45 18.08"/><polygon class="cls-7" points="26.45 18.08 26.45 24.71 42.45 17.75 43.04 11.13 26.45 18.08"/><polygon class="cls-4" points="11.06 24.53 11.65 31.16 26.47 31.16 26.47 24.53 11.06 24.53"/><polygon class="cls-6" points="43.04 11.13 26.45 11.13 26.45 17.73 26.45 17.75 42.43 17.75 42.43 17.75 42.45 17.75 43.04 11.13"/><polygon class="cls-4" points="26.45 41.74 26.45 41.74 19.07 39.75 18.6 34.47 15.02 34.47 11.95 34.47 12.88 44.87 26.45 48.63 26.45 48.63 26.45 41.74"/></g></g></g></svg>