<svg xmlns="http://www.w3.org/2000/svg" xmlns:xlink="http://www.w3.org/1999/xlink" width="182.39" height="96" viewBox="0 0 182.39 96"><defs><style>.cls-1{fill:none;}.cls-2{clip-path:url(#clip-path);}.cls-3{fill:#804036;}.cls-4{clip-path:url(#clip-path-2);}.cls-5{fill:#e50012;}.cls-6{fill:#d3dee4;}.cls-7{fill:#00a23e;}.cls-8{fill:#f0968c;}.cls-9{fill:#a84393;}.cls-10{fill:#ffe900;}.cls-11{fill:#41bbc9;}.cls-12{fill:#3089ca;}</style><clipPath id="clip-path"><rect class="cls-1" x="-483.58" y="-72.08" width="375" height="812"/></clipPath><clipPath id="clip-path-2"><path class="cls-1" d="M89.17,94.83a4.2,4.2,0,0,1-3.46-1.94L77.89,81.48a3.73,3.73,0,0,0-2.49-1.31h-58A10.1,10.1,0,0,1,11,77.53l-8.4-8.4A10.1,10.1,0,0,1,0,62.75V17.42A10.1,10.1,0,0,1,2.64,11L11,2.64A10.1,10.1,0,0,1,17.42,0H165a10.1,10.1,0,0,1,6.38,2.64l8.4,8.4a10.1,10.1,0,0,1,2.64,6.38V62.75a10.1,10.1,0,0,1-2.64,6.38l-8.4,8.4A10.1,10.1,0,0,1,165,80.17h-62a3.71,3.71,0,0,0-2.49,1.31L92.63,92.89A4.2,4.2,0,0,1,89.17,94.83ZM17.42,4.55a5.58,5.58,0,0,0-3.16,1.31l-8.4,8.4a5.6,5.6,0,0,0-1.31,3.16V62.75a5.6,5.6,0,0,0,1.31,3.16l8.4,8.4a5.63,5.63,0,0,0,3.16,1.3h58a8.25,8.25,0,0,1,6.25,3.3l7.52,11,7.52-11a8.25,8.25,0,0,1,6.25-3.3h62a5.66,5.66,0,0,0,3.16-1.3l8.4-8.4a5.6,5.6,0,0,0,1.31-3.16V17.42a5.6,5.6,0,0,0-1.31-3.16l-8.4-8.4A5.6,5.6,0,0,0,165,4.55Z"/></clipPath></defs><g id="firstview"><g class="cls-2"><path class="cls-3" d="M137.46,877.55l-731-.27V-75.45l733,.56Q138.45,401.33,137.46,877.55Z"/></g></g><g id="図形"><path d="M17.62,95.94a.22.22,0,0,1-.14.06H14.05a.22.22,0,0,1-.14-.06l-1.68-1.68a.18.18,0,0,1-.06-.14V92.76a.08.08,0,0,1,.08-.09h1.63a.08.08,0,0,1,.08.09v.62a.22.22,0,0,0,.06.14l.62.62a.28.28,0,0,0,.15.06h1.95a.28.28,0,0,0,.15-.06l.61-.62a.18.18,0,0,0,.06-.14V92.32a.2.2,0,0,0-.06-.14l-.61-.62a.28.28,0,0,0-.15-.06H14.05a.18.18,0,0,1-.14-.06l-1.68-1.68a.18.18,0,0,1-.06-.14V87.09a.18.18,0,0,1,.06-.14l1.68-1.68a.19.19,0,0,1,.14-.07h3.43a.19.19,0,0,1,.14.07L19.3,87a.18.18,0,0,1,.06.14v1.36a.09.09,0,0,1-.08.09H17.65a.09.09,0,0,1-.09-.09v-.62a.22.22,0,0,0-.06-.15l-.61-.62a.27.27,0,0,0-.15,0H14.79a.27.27,0,0,0-.15,0l-.62.62a.28.28,0,0,0-.06.15v1A.28.28,0,0,0,14,89l.62.61a.22.22,0,0,0,.15.06h2.69a.22.22,0,0,1,.14.06l1.68,1.68a.22.22,0,0,1,.06.15v2.53a.18.18,0,0,1-.06.14Z"/><path d="M28.64,96a.09.09,0,0,1-.08-.08V91.59a.09.09,0,0,0-.08-.09H25.05a.09.09,0,0,0-.09.09v4.33a.08.08,0,0,1-.08.08H23.25a.09.09,0,0,1-.09-.08V85.29a.09.09,0,0,1,.09-.09h1.63a.08.08,0,0,1,.08.09v4.33a.08.08,0,0,0,.09.08h3.43a.08.08,0,0,0,.08-.08V85.29a.09.09,0,0,1,.08-.09h1.64a.09.09,0,0,1,.08.09V95.92a.09.09,0,0,1-.08.08Z"/><path d="M35,96a.09.09,0,0,1-.08-.08V85.29A.09.09,0,0,1,35,85.2H36.6a.09.09,0,0,1,.08.09V95.92a.09.09,0,0,1-.08.08Z"/><path d="M46.48,95.94a.28.28,0,0,1-.15.06H41.1a.09.09,0,0,1-.08-.08V85.29a.09.09,0,0,1,.08-.09h5.23a.23.23,0,0,1,.15.07L48.16,87a.22.22,0,0,1,.06.14v2.53a.22.22,0,0,1-.06.14l-.78.78a.07.07,0,0,0,0,.12l.78.78a.28.28,0,0,1,.06.15v2.53a.22.22,0,0,1-.06.14Zm-.06-8.11a.28.28,0,0,0-.06-.15l-.62-.62a.24.24,0,0,0-.14,0H42.9a.08.08,0,0,0-.08.08v2.53a.08.08,0,0,0,.08.08h2.7a.2.2,0,0,0,.14-.06l.62-.61a.28.28,0,0,0,.06-.15Zm0,4.49a.25.25,0,0,0-.06-.14l-.62-.62a.25.25,0,0,0-.14-.06H42.9a.09.09,0,0,0-.08.09v2.53a.08.08,0,0,0,.08.08h2.7a.25.25,0,0,0,.14-.06l.62-.62a.22.22,0,0,0,.06-.14Z"/><path d="M57.3,95.94a.25.25,0,0,1-.15.06H53.72a.22.22,0,0,1-.14-.06L51.9,94.26a.22.22,0,0,1-.06-.14V85.29a.09.09,0,0,1,.08-.09h1.63a.09.09,0,0,1,.09.09v8.09a.18.18,0,0,0,.06.14l.61.62a.28.28,0,0,0,.15.06h2a.28.28,0,0,0,.14-.06l.62-.62a.22.22,0,0,0,0-.14V85.29a.09.09,0,0,1,.09-.09H59a.09.09,0,0,1,.09.09v8.83a.19.19,0,0,1-.07.14Z"/><path d="M66.29,90.53a.42.42,0,0,0,0,.16v5.23a.08.08,0,0,1-.08.08H64.54a.08.08,0,0,1-.08-.08V90.69a.42.42,0,0,0,0-.16L62,85.28A.05.05,0,0,1,62,85.2h1.81a.15.15,0,0,1,.12.08l1.37,2.93s.05,0,.07,0l1.37-2.93a.15.15,0,0,1,.12-.08h1.81a.05.05,0,0,1,0,.08Z"/><path d="M76.18,96a.12.12,0,0,1-.1-.08l-.41-1.64a.12.12,0,0,0-.1-.08H73.18a.13.13,0,0,0-.11.08l-.4,1.64a.12.12,0,0,1-.11.08H70.88a.07.07,0,0,1-.07-.08l2.57-10.63a.12.12,0,0,1,.11-.09h1.77a.11.11,0,0,1,.1.09l2.57,10.63a.06.06,0,0,1-.06.08Zm-1.79-6.84s0,0,0,0l-.78,3.16s0,.08.06.08h1.48a.07.07,0,0,0,.07-.08Z"/><path d="M107.24,91.44a.2.2,0,0,1-.15.06h-3.35a.09.09,0,0,0-.09.09v4.33a.09.09,0,0,1-.08.08h-1.63a.09.09,0,0,1-.09-.08V85.29a.09.09,0,0,1,.09-.09h5.23a.21.21,0,0,1,.14.07L109,87a.22.22,0,0,1,.06.14v2.53a.22.22,0,0,1-.06.14Zm0-3.61a.28.28,0,0,0-.06-.15l-.62-.62a.24.24,0,0,0-.14,0h-2.69a.08.08,0,0,0-.09.08v2.53a.08.08,0,0,0,.09.08h2.69a.2.2,0,0,0,.14-.06l.62-.62a.22.22,0,0,0,.06-.14Z"/><path d="M117.48,91.44a.15.15,0,0,0,0,.14l1.81,4.34a.05.05,0,0,1-.05.08h-1.8a.14.14,0,0,1-.12-.08l-1.84-4.34a.13.13,0,0,0-.11-.08H114a.09.09,0,0,0-.09.09v4.33a.09.09,0,0,1-.08.08h-1.63a.09.09,0,0,1-.09-.08V85.29a.09.09,0,0,1,.09-.09h5.23a.21.21,0,0,1,.14.07L119.23,87a.22.22,0,0,1,.06.14v2.53a.22.22,0,0,1-.06.14Zm0-3.61a.28.28,0,0,0-.06-.15l-.62-.62a.24.24,0,0,0-.14,0H114a.08.08,0,0,0-.09.08v2.53a.08.08,0,0,0,.09.08h2.69a.2.2,0,0,0,.14-.06l.62-.62a.22.22,0,0,0,.06-.14Z"/><path d="M127.81,95.94a.2.2,0,0,1-.15.06h-3.35a.22.22,0,0,1-.14-.06l-1.69-1.68a.25.25,0,0,1-.06-.14v-7a.22.22,0,0,1,.06-.14l1.69-1.68a.19.19,0,0,1,.14-.07h3.43a.21.21,0,0,1,.14.07L129.56,87a.22.22,0,0,1,.06.14v7a.25.25,0,0,1-.06.14Zm0-8.11a.22.22,0,0,0-.06-.15l-.62-.62a.22.22,0,0,0-.14,0h-2a.27.27,0,0,0-.14,0l-.62.62a.28.28,0,0,0-.06.15v5.55a.22.22,0,0,0,.06.14l.62.62a.28.28,0,0,0,.14.06h2a.22.22,0,0,0,.14-.06l.62-.62a.18.18,0,0,0,.06-.14Z"/><path d="M137.16,95.94A.25.25,0,0,1,137,96h-3.33a.28.28,0,0,1-.15-.06l-1.68-1.68a.25.25,0,0,1-.06-.14V92.76a.09.09,0,0,1,.09-.09h1.63a.09.09,0,0,1,.08.09v.62a.22.22,0,0,0,.06.14l.62.62a.25.25,0,0,0,.14.06h1.86a.22.22,0,0,0,.14-.06l.62-.62a.22.22,0,0,0,.06-.14V85.29a.09.09,0,0,1,.08-.09h1.64a.09.09,0,0,1,.08.09v8.83a.25.25,0,0,1-.06.14Z"/><path d="M142.57,96a.09.09,0,0,1-.09-.08V85.29a.09.09,0,0,1,.09-.09h7a.09.09,0,0,1,.08.09v1.63a.09.09,0,0,1-.08.09h-5.23a.08.08,0,0,0-.09.08v2.53a.08.08,0,0,0,.09.08h2.53a.09.09,0,0,1,.08.09v1.63a.08.08,0,0,1-.08.08h-2.53a.09.09,0,0,0-.09.09v2.53a.09.09,0,0,0,.09.08h5.23a.09.09,0,0,1,.08.09v1.63a.09.09,0,0,1-.08.08Z"/><path d="M157.61,95.94a.2.2,0,0,1-.15.06h-3.35a.25.25,0,0,1-.15-.06l-1.68-1.68a.25.25,0,0,1-.06-.14v-7a.22.22,0,0,1,.06-.14L154,85.27a.21.21,0,0,1,.15-.07h3.43a.21.21,0,0,1,.14.07L159.36,87a.22.22,0,0,1,.06.14v1.36a.09.09,0,0,1-.09.09H157.7a.09.09,0,0,1-.08-.09v-.62a.28.28,0,0,0-.06-.15l-.62-.62a.24.24,0,0,0-.14,0h-2a.24.24,0,0,0-.14,0l-.62.62a.28.28,0,0,0-.06.15v5.55a.22.22,0,0,0,.06.14l.62.62a.25.25,0,0,0,.14.06h2a.25.25,0,0,0,.14-.06l.62-.62a.22.22,0,0,0,.06-.14v-.62a.09.09,0,0,1,.08-.09h1.63a.09.09,0,0,1,.09.09v1.36a.25.25,0,0,1-.06.14Z"/><path d="M166.14,87a.08.08,0,0,0-.08.08v8.83A.09.09,0,0,1,166,96h-1.64a.09.09,0,0,1-.08-.08V87.09a.08.08,0,0,0-.08-.08h-2.53a.09.09,0,0,1-.09-.09V85.29a.09.09,0,0,1,.09-.09h7a.09.09,0,0,1,.09.09v1.63a.09.09,0,0,1-.09.09Z"/><path d="M63.46,27a.7.7,0,0,0-.7.7v8.77a.7.7,0,0,0,.7.7H75.07a.7.7,0,0,1,.7.7v5.38a.71.71,0,0,1-.7.7H63.46a.7.7,0,0,0-.7.7V60.22a.69.69,0,0,1-.7.69H56.68a.7.7,0,0,1-.7-.69V20.94a.71.71,0,0,1,.7-.7H82.4a.71.71,0,0,1,.7.7v5.38a.7.7,0,0,1-.7.7Z"/><path d="M110,60.42a1.92,1.92,0,0,1-1.19.49H96.65a2,2,0,0,1-1.19-.49l-5.79-5.79a2,2,0,0,1-.5-1.19V20.94a.71.71,0,0,1,.7-.7h5.38a.7.7,0,0,1,.7.7V50.66a1.9,1.9,0,0,0,.5,1.19l1.79,1.79a2,2,0,0,0,1.19.5H106a2,2,0,0,0,1.2-.5L109,51.85a2,2,0,0,0,.49-1.19V20.94a.7.7,0,0,1,.7-.7h5.38a.7.7,0,0,1,.7.7v32.5a2,2,0,0,1-.49,1.19Z"/><path d="M149.63,60.91a1.25,1.25,0,0,1-1-.61L135.7,35.64c-.18-.34-.33-.31-.33.08v24.5a.69.69,0,0,1-.7.69h-5.38a.7.7,0,0,1-.7-.69V20.94a.69.69,0,0,1,.7-.69l5.38.05a1.32,1.32,0,0,1,1,.63l12.91,24.66c.18.34.32.3.32-.08V20.94a.7.7,0,0,1,.7-.7H155a.7.7,0,0,1,.7.7V60.22a.69.69,0,0,1-.7.69Z"/><path d="M44.3,38.39a.7.7,0,0,0-.7-.7H35.16a.69.69,0,0,1-.69-.7V28.56a.7.7,0,0,0-.7-.7H29.4a.7.7,0,0,0-.7.7V37a.7.7,0,0,1-.7.7H19.56a.71.71,0,0,0-.7.7v4.37a.7.7,0,0,0,.7.7H28a.71.71,0,0,1,.7.7V52.6a.7.7,0,0,0,.7.7h4.37a.71.71,0,0,0,.7-.7V44.16a.7.7,0,0,1,.69-.7H43.6a.7.7,0,0,0,.7-.7Z"/><g class="cls-4"><rect class="cls-1" x="-187.58" y="-156.62" width="592.58" height="419"/><polygon class="cls-5" points="74.91 -2.11 57.88 -2.11 57.88 14.92 74.91 -2.11 74.91 -2.11"/><polygon class="cls-6" points="57.88 14.92 57.88 14.92 74.91 14.92 74.91 -2.11 57.88 14.92"/><polygon class="cls-7" points="74.91 -2.11 91.93 -2.11 91.93 14.92 74.91 -2.11 74.91 -2.11"/><polygon class="cls-8" points="91.93 14.92 91.93 14.92 74.91 14.92 74.91 -2.11 91.93 14.92"/><polygon class="cls-6" points="177.07 31.93 194.1 31.93 194.1 14.91 177.07 31.93 177.07 31.93"/><polygon class="cls-7" points="194.1 14.91 194.1 14.91 177.07 14.91 177.07 31.93 194.1 14.91"/><polygon class="cls-6" points="177.07 31.93 160.04 31.93 160.04 14.91 177.07 31.93 177.07 31.93"/><polygon class="cls-7" points="160.04 14.91 160.04 14.91 177.07 14.91 177.07 31.93 160.04 14.91"/><polygon class="cls-9" points="143.01 31.93 160.04 31.93 160.04 14.91 143.01 31.93 143.01 31.93"/><polygon class="cls-10" points="160.04 14.91 160.04 14.91 143.01 14.91 143.01 31.93 160.04 14.91"/><polygon class="cls-11" points="143.01 31.93 125.99 31.93 125.99 14.91 143.01 31.93 143.01 31.93"/><polygon class="cls-12" points="125.99 14.91 125.99 14.91 143.01 14.91 143.01 31.93 125.99 14.91"/><polygon class="cls-6" points="108.96 31.93 125.99 31.93 125.99 14.91 108.96 31.93 108.96 31.93"/><polygon class="cls-8" points="125.99 14.91 125.99 14.91 108.96 14.91 108.96 31.93 125.99 14.91"/><polygon class="cls-5" points="108.96 31.93 91.93 31.93 91.93 14.91 108.96 31.93 108.96 31.93"/><polygon class="cls-7" points="91.93 14.91 91.93 14.91 108.96 14.91 108.96 31.93 91.93 14.91"/><polygon class="cls-6" points="6.8 -2.12 6.8 6.4 -1.72 6.4 6.8 -2.12"/><polygon class="cls-8" points="-1.72 -2.12 6.8 -2.12 6.8 -2.12 -1.72 6.4 -1.72 -2.12"/><polygon class="cls-6" points="6.8 -2.12 6.8 6.4 15.31 6.4 6.8 -2.12"/><polygon class="cls-11" points="15.31 -2.12 6.8 -2.12 6.8 -2.12 15.31 6.4 15.31 -2.12"/><polygon class="cls-6" points="23.82 -2.12 23.82 6.4 15.31 6.4 23.82 -2.12"/><polygon class="cls-8" points="15.31 -2.12 23.82 -2.12 23.82 -2.12 15.31 6.4 15.31 -2.12"/><polygon class="cls-11" points="23.82 -2.12 23.82 6.4 32.34 6.4 23.82 -2.12"/><polygon class="cls-6" points="32.34 -2.12 23.82 -2.12 23.82 -2.12 32.34 6.4 32.34 -2.12"/><polygon class="cls-6" points="40.85 -2.12 40.85 6.4 32.34 6.4 40.85 -2.12"/><polygon class="cls-7" points="32.34 -2.12 40.85 -2.12 40.85 -2.12 32.34 6.4 32.34 -2.12"/><polygon class="cls-8" points="40.85 -2.12 40.85 6.4 49.37 6.4 40.85 -2.12"/><polygon class="cls-6" points="49.37 -2.12 40.85 -2.12 40.85 -2.12 49.37 6.4 49.37 -2.12"/><polygon class="cls-6" points="57.88 -2.12 57.88 6.4 49.37 6.4 57.88 -2.12"/><polygon class="cls-10" points="49.37 -2.12 57.88 -2.12 57.88 -2.12 49.37 6.4 49.37 -2.12"/><polygon class="cls-11" points="57.88 14.91 57.88 6.4 49.37 6.4 57.88 14.91"/><polygon class="cls-6" points="49.37 14.92 57.88 14.92 57.88 14.91 49.37 6.4 49.37 14.92"/><polygon class="cls-6" points="40.85 14.91 40.85 6.4 49.37 6.4 40.85 14.91"/><polygon class="cls-12" points="49.37 14.92 40.85 14.92 40.85 14.91 49.37 6.4 49.37 14.92"/><polygon class="cls-12" points="40.85 14.91 40.85 6.4 32.34 6.4 40.85 14.91"/><polygon class="cls-6" points="32.34 14.92 40.85 14.92 40.85 14.91 32.34 6.4 32.34 14.92"/><polygon class="cls-6" points="23.82 14.91 23.82 6.4 32.34 6.4 23.82 14.91"/><polygon class="cls-11" points="32.34 14.92 23.82 14.92 23.82 14.91 32.34 6.4 32.34 14.92"/><polygon class="cls-5" points="23.82 14.91 23.82 6.4 15.31 6.4 23.82 14.91"/><polygon class="cls-6" points="15.31 14.92 23.82 14.92 23.82 14.91 15.31 6.4 15.31 14.92"/><polygon class="cls-10" points="6.8 14.91 6.8 6.4 15.31 6.4 6.8 14.91"/><polygon class="cls-6" points="15.31 14.92 6.8 14.92 6.8 14.91 15.31 6.4 15.31 14.92"/><polygon class="cls-6" points="6.8 14.91 6.8 6.4 -1.72 6.4 6.8 14.91"/><polygon class="cls-6" points="-1.72 14.92 6.8 14.92 6.8 14.91 -1.72 6.4 -1.72 14.92"/><polygon class="cls-12" points="6.8 14.92 -10.23 14.92 -10.23 31.94 6.8 14.92 6.8 14.92"/><polygon class="cls-10" points="-10.23 31.94 -10.23 31.94 6.8 31.94 6.8 14.92 -10.23 31.94"/><polygon class="cls-7" points="6.8 14.92 23.82 14.92 23.82 31.94 6.8 14.92 6.8 14.92"/><polygon class="cls-10" points="23.82 31.94 23.82 31.94 6.8 31.94 6.8 14.92 23.82 31.94"/><polygon class="cls-9" points="40.85 14.92 23.82 14.92 23.82 31.94 40.85 14.92 40.85 14.92"/><polygon class="cls-8" points="23.82 31.94 23.82 31.94 40.85 31.94 40.85 14.92 23.82 31.94"/><polygon class="cls-8" points="40.85 14.92 57.88 14.92 57.88 31.94 40.85 14.92 40.85 14.92"/><polygon class="cls-10" points="57.88 31.94 57.88 31.94 40.85 31.94 40.85 14.92 57.88 31.94"/><polygon class="cls-8" points="74.91 14.92 57.88 14.92 57.88 31.94 74.91 14.92 74.91 14.92"/><polygon class="cls-11" points="57.88 31.94 57.88 31.94 74.91 31.94 74.91 14.92 57.88 31.94"/><polygon class="cls-9" points="108.96 -2.12 91.93 -2.12 91.93 14.91 108.96 -2.12 108.96 -2.12"/><polygon class="cls-12" points="91.93 14.91 91.93 14.91 108.96 14.91 108.96 -2.12 91.93 14.91"/><polygon class="cls-5" points="143.01 -2.12 125.99 -2.12 125.99 14.91 143.01 -2.12 143.01 -2.12"/><polygon class="cls-10" points="125.99 14.91 125.99 14.91 143.01 14.91 143.01 -2.12 125.99 14.91"/><polygon class="cls-8" points="177.07 -2.12 160.04 -2.12 160.04 14.91 177.07 -2.12 177.07 -2.12"/><polygon class="cls-9" points="160.04 14.91 160.04 14.91 177.07 14.91 177.07 -2.12 160.04 14.91"/><polygon class="cls-5" points="74.91 14.92 91.93 14.92 91.93 31.94 74.91 14.92 74.91 14.92"/><polygon class="cls-8" points="91.93 31.94 91.93 31.94 74.91 31.94 74.91 14.92 91.93 31.94"/><polygon class="cls-6" points="177.07 14.91 177.07 6.39 185.58 6.39 177.07 14.91"/><polygon class="cls-6" points="185.58 14.91 177.07 14.91 177.07 14.91 185.58 6.39 185.58 14.91"/><polygon class="cls-6" points="143.01 -2.12 143.01 6.39 151.53 6.39 143.01 -2.12"/><polygon class="cls-10" points="151.53 -2.12 143.01 -2.12 143.01 -2.12 151.53 6.39 151.53 -2.12"/><polygon class="cls-6" points="160.04 -2.12 160.04 6.39 151.53 6.39 160.04 -2.12"/><polygon class="cls-6" points="151.53 -2.12 160.04 -2.12 160.04 -2.12 151.53 6.39 151.53 -2.12"/><polygon class="cls-12" points="160.04 14.91 160.04 6.39 151.53 6.39 160.04 14.91"/><polygon class="cls-5" points="151.53 14.91 160.04 14.91 160.04 14.91 151.53 6.39 151.53 14.91"/><polygon class="cls-6" points="143.01 14.91 143.01 6.39 151.53 6.39 143.01 14.91"/><polygon class="cls-8" points="151.53 14.91 143.01 14.91 143.01 14.91 151.53 6.39 151.53 14.91"/><polygon class="cls-6" points="108.96 -2.12 108.96 6.39 117.47 6.39 108.96 -2.12"/><polygon class="cls-9" points="117.47 -2.12 108.96 -2.12 108.96 -2.12 117.47 6.39 117.47 -2.12"/><polygon class="cls-6" points="125.99 -2.12 125.99 6.39 117.47 6.39 125.99 -2.12"/><polygon class="cls-11" points="117.47 -2.12 125.99 -2.12 125.99 -2.12 117.47 6.39 117.47 -2.12"/><polygon class="cls-9" points="125.99 14.91 125.99 6.39 117.47 6.39 125.99 14.91"/><polygon class="cls-6" points="117.47 14.91 125.99 14.91 125.99 14.91 117.47 6.39 117.47 14.91"/><polygon class="cls-6" points="108.96 14.91 108.96 6.39 117.47 6.39 108.96 14.91"/><polygon class="cls-12" points="117.47 14.91 108.96 14.91 108.96 14.91 117.47 6.39 117.47 14.91"/><polygon class="cls-5" points="-10.23 14.91 -10.23 14.91 23.82 14.91 23.82 -19.14 -10.23 14.91"/><polygon class="cls-10" points="125.99 31.93 125.99 31.93 91.93 31.93 91.93 -2.12 125.99 31.93"/><polygon class="cls-5" points="6.8 31.94 -10.23 31.94 -10.23 48.97 6.8 31.94 6.8 31.94"/><polygon class="cls-7" points="-10.23 48.97 -10.23 48.97 6.8 48.97 6.8 31.94 -10.23 48.97"/><polygon class="cls-10" points="6.8 31.94 23.82 31.94 23.82 48.97 6.8 31.94 6.8 31.94"/><polygon class="cls-6" points="23.82 48.97 23.82 48.97 6.8 48.97 6.8 31.94 23.82 48.97"/><polygon class="cls-9" points="40.85 31.94 23.82 31.94 23.82 48.97 40.85 31.94 40.85 31.94"/><polygon class="cls-12" points="23.82 48.97 23.82 48.97 40.85 48.97 40.85 31.94 23.82 48.97"/><polygon class="cls-6" points="40.85 31.94 57.88 31.94 57.88 48.97 40.85 31.94 40.85 31.94"/><polygon class="cls-10" points="57.88 48.97 57.88 48.97 40.85 48.97 40.85 31.94 57.88 48.97"/><polygon class="cls-5" points="74.91 31.94 57.88 31.94 57.88 48.97 74.91 31.94 74.91 31.94"/><polygon class="cls-6" points="57.88 48.97 57.88 48.97 74.91 48.97 74.91 31.94 57.88 48.97"/><polygon class="cls-7" points="74.91 31.94 91.93 31.94 91.93 48.97 74.91 31.94 74.91 31.94"/><polygon class="cls-8" points="91.93 48.97 91.93 48.97 74.91 48.97 74.91 31.94 91.93 48.97"/><polygon class="cls-7" points="194.1 65.99 194.1 65.99 177.07 65.99 177.07 83.02 194.1 65.99"/><polygon class="cls-6" points="177.07 83.02 160.04 83.02 160.04 65.99 177.07 83.02 177.07 83.02"/><polygon class="cls-7" points="160.04 65.99 160.04 65.99 177.07 65.99 177.07 83.02 160.04 65.99"/><polygon class="cls-9" points="143.01 83.02 160.04 83.02 160.04 65.99 143.01 83.02 143.01 83.02"/><polygon class="cls-10" points="160.04 65.99 160.04 65.99 143.01 65.99 143.01 83.02 160.04 65.99"/><polygon class="cls-11" points="143.01 83.02 125.99 83.02 125.99 65.99 143.01 83.02 143.01 83.02"/><polygon class="cls-12" points="125.99 65.99 125.99 65.99 143.01 65.99 143.01 83.02 125.99 65.99"/><polygon class="cls-6" points="108.96 83.02 125.99 83.02 125.99 65.99 108.96 83.02 108.96 83.02"/><polygon class="cls-6" points="6.8 48.97 6.8 57.48 -1.72 57.48 6.8 48.97"/><polygon class="cls-8" points="-1.72 48.97 6.8 48.97 6.8 48.97 -1.72 57.48 -1.72 48.97"/><polygon class="cls-6" points="6.8 48.97 6.8 57.48 15.31 57.48 6.8 48.97"/><polygon class="cls-11" points="15.31 48.97 6.8 48.97 6.8 48.97 15.31 57.48 15.31 48.97"/><polygon class="cls-6" points="23.82 48.97 23.82 57.48 15.31 57.48 23.82 48.97"/><polygon class="cls-8" points="15.31 48.97 23.82 48.97 23.82 48.97 15.31 57.48 15.31 48.97"/><polygon class="cls-11" points="23.82 48.97 23.82 57.48 32.34 57.48 23.82 48.97"/><polygon class="cls-6" points="32.34 48.97 23.82 48.97 23.82 48.97 32.34 57.48 32.34 48.97"/><polygon class="cls-6" points="40.85 48.97 40.85 57.48 32.34 57.48 40.85 48.97"/><polygon class="cls-7" points="32.34 48.97 40.85 48.97 40.85 48.97 32.34 57.48 32.34 48.97"/><polygon class="cls-8" points="40.85 48.97 40.85 57.48 49.37 57.48 40.85 48.97"/><polygon class="cls-6" points="49.37 48.97 40.85 48.97 40.85 48.97 49.37 57.48 49.37 48.97"/><polygon class="cls-6" points="57.88 48.97 57.88 57.48 49.37 57.48 57.88 48.97"/><polygon class="cls-10" points="49.37 48.97 57.88 48.97 57.88 48.97 49.37 57.48 49.37 48.97"/><polygon class="cls-11" points="57.88 48.97 57.88 57.48 66.39 57.48 57.88 48.97"/><polygon class="cls-9" points="66.39 48.97 57.88 48.97 57.88 48.97 66.39 57.48 66.39 48.97"/><polygon class="cls-6" points="74.91 48.97 74.91 57.48 66.39 57.48 74.91 48.97"/><polygon class="cls-10" points="66.39 48.97 74.91 48.97 74.91 48.97 66.39 57.48 66.39 48.97"/><polygon class="cls-7" points="74.91 48.97 74.91 57.48 83.42 57.48 74.91 48.97"/><polygon class="cls-6" points="83.42 48.97 74.91 48.97 74.91 48.97 83.42 57.48 83.42 48.97"/><polygon class="cls-9" points="91.93 48.97 91.93 57.48 83.42 57.48 91.93 48.97"/><polygon class="cls-12" points="83.42 48.97 91.93 48.97 91.93 48.97 83.42 57.48 83.42 48.97"/><polygon class="cls-6" points="91.93 66 91.93 57.48 83.42 57.48 91.93 66"/><polygon class="cls-9" points="83.42 66 91.93 66 91.93 66 83.42 57.48 83.42 66"/><polygon class="cls-6" points="74.91 66 74.91 57.48 83.42 57.48 74.91 66"/><polygon class="cls-6" points="83.42 66 74.91 66 74.91 66 83.42 57.48 83.42 66"/><polygon class="cls-8" points="74.91 66 74.91 57.48 66.39 57.48 74.91 66"/><polygon class="cls-10" points="66.39 66 74.91 66 74.91 66 66.39 57.48 66.39 66"/><polygon class="cls-6" points="57.88 66 57.88 57.48 66.39 57.48 57.88 66"/><polygon class="cls-6" points="66.39 66 57.88 66 57.88 66 66.39 57.48 66.39 66"/><polygon class="cls-11" points="57.88 66 57.88 57.48 49.37 57.48 57.88 66"/><polygon class="cls-6" points="49.37 66 57.88 66 57.88 66 49.37 57.48 49.37 66"/><polygon class="cls-6" points="40.85 66 40.85 57.48 49.37 57.48 40.85 66"/><polygon class="cls-12" points="49.37 66 40.85 66 40.85 66 49.37 57.48 49.37 66"/><polygon class="cls-12" points="40.85 66 40.85 57.48 32.34 57.48 40.85 66"/><polygon class="cls-6" points="32.34 66 40.85 66 40.85 66 32.34 57.48 32.34 66"/><polygon class="cls-6" points="23.82 66 23.82 57.48 32.34 57.48 23.82 66"/><polygon class="cls-11" points="32.34 66 23.82 66 23.82 66 32.34 57.48 32.34 66"/><polygon class="cls-5" points="23.82 66 23.82 57.48 15.31 57.48 23.82 66"/><polygon class="cls-6" points="15.31 66 23.82 66 23.82 66 15.31 57.48 15.31 66"/><polygon class="cls-10" points="6.8 66 6.8 57.48 15.31 57.48 6.8 66"/><polygon class="cls-6" points="15.31 66 6.8 66 6.8 66 15.31 57.48 15.31 66"/><polygon class="cls-6" points="6.8 66 6.8 57.48 -1.72 57.48 6.8 66"/><polygon class="cls-6" points="-1.72 66 6.8 66 6.8 66 -1.72 57.48 -1.72 66"/><polygon class="cls-12" points="6.8 66 -10.23 66 -10.23 83.03 6.8 66 6.8 66"/><polygon class="cls-10" points="-10.23 83.03 -10.23 83.03 6.8 83.03 6.8 66 -10.23 83.03"/><polygon class="cls-7" points="6.8 66 23.82 66 23.82 83.03 6.8 66 6.8 66"/><polygon class="cls-10" points="23.82 83.03 23.82 83.03 6.8 83.03 6.8 66 23.82 83.03"/><polygon class="cls-9" points="40.85 66 23.82 66 23.82 83.03 40.85 66 40.85 66"/><polygon class="cls-8" points="23.82 83.03 23.82 83.03 40.85 83.03 40.85 66 23.82 83.03"/><polygon class="cls-8" points="40.85 66 57.88 66 57.88 83.03 40.85 66 40.85 66"/><polygon class="cls-10" points="57.88 83.03 57.88 83.03 40.85 83.03 40.85 66 57.88 83.03"/><polygon class="cls-8" points="74.91 66 57.88 66 57.88 83.03 74.91 66 74.91 66"/><polygon class="cls-11" points="57.88 83.03 57.88 83.03 74.91 83.03 74.91 66 57.88 83.03"/><polygon class="cls-9" points="108.96 48.97 91.93 48.97 91.93 65.99 108.96 48.97 108.96 48.97"/><polygon class="cls-12" points="91.93 65.99 91.93 65.99 108.96 65.99 108.96 48.97 91.93 65.99"/><polygon class="cls-5" points="143.01 48.97 125.99 48.97 125.99 65.99 143.01 48.97 143.01 48.97"/><polygon class="cls-10" points="125.99 65.99 125.99 65.99 143.01 65.99 143.01 48.97 125.99 65.99"/><polygon class="cls-8" points="177.07 48.97 160.04 48.97 160.04 65.99 177.07 48.97 177.07 48.97"/><polygon class="cls-9" points="160.04 65.99 160.04 65.99 177.07 65.99 177.07 48.97 160.04 65.99"/><polygon class="cls-5" points="74.91 66 91.93 66 91.93 83.03 74.91 66 74.91 66"/><polygon class="cls-8" points="91.93 83.03 91.93 83.03 74.91 83.03 74.91 66 91.93 83.03"/><polygon class="cls-6" points="91.93 31.94 91.93 40.46 100.44 40.46 91.93 31.94"/><polygon class="cls-6" points="100.44 31.94 91.93 31.94 91.93 31.94 100.44 40.46 100.44 31.94"/><polygon class="cls-6" points="108.96 31.94 108.96 40.46 100.44 40.46 108.96 31.94"/><polygon class="cls-9" points="100.44 31.94 108.96 31.94 108.96 31.94 100.44 40.46 100.44 31.94"/><polygon class="cls-6" points="108.96 31.94 108.96 40.46 117.47 40.46 108.96 31.94"/><polygon class="cls-12" points="117.47 31.94 108.96 31.94 108.96 31.94 117.47 40.46 117.47 31.94"/><polygon class="cls-9" points="125.99 31.94 125.99 40.46 117.47 40.46 125.99 31.94"/><polygon class="cls-6" points="117.47 31.94 125.99 31.94 125.99 31.94 117.47 40.46 117.47 31.94"/><polygon class="cls-6" points="125.99 31.94 125.99 40.46 134.5 40.46 125.99 31.94"/><polygon class="cls-11" points="134.5 31.94 125.99 31.94 125.99 31.94 134.5 40.46 134.5 31.94"/><polygon class="cls-12" points="143.01 31.94 143.01 40.46 134.5 40.46 143.01 31.94"/><polygon class="cls-6" points="134.5 31.94 143.01 31.94 143.01 31.94 134.5 40.46 134.5 31.94"/><polygon class="cls-6" points="143.01 31.94 143.01 40.46 151.53 40.46 143.01 31.94"/><polygon class="cls-11" points="151.53 31.94 143.01 31.94 143.01 31.94 151.53 40.46 151.53 31.94"/><polygon class="cls-6" points="160.04 31.94 160.04 40.46 151.53 40.46 160.04 31.94"/><polygon class="cls-7" points="151.53 31.94 160.04 31.94 160.04 31.94 151.53 40.46 151.53 31.94"/><polygon class="cls-9" points="160.04 31.94 160.04 40.46 168.55 40.46 160.04 31.94"/><polygon class="cls-6" points="168.55 31.94 160.04 31.94 160.04 31.94 168.55 40.46 168.55 31.94"/><polygon class="cls-5" points="177.07 31.94 177.07 40.46 168.55 40.46 177.07 31.94"/><polygon class="cls-11" points="168.55 31.94 177.07 31.94 177.07 31.94 168.55 40.46 168.55 31.94"/><polygon class="cls-6" points="177.07 31.94 177.07 40.46 185.58 40.46 177.07 31.94"/><polygon class="cls-11" points="185.58 31.94 177.07 31.94 177.07 31.94 185.58 40.46 185.58 31.94"/><polygon class="cls-6" points="177.07 48.97 177.07 40.46 185.58 40.46 177.07 48.97"/><polygon class="cls-12" points="185.58 48.97 177.07 48.97 177.07 48.97 185.58 40.46 185.58 48.97"/><polygon class="cls-10" points="177.07 48.96 177.07 57.48 185.58 57.48 177.07 48.96"/><polygon class="cls-5" points="185.58 48.96 177.07 48.96 177.07 48.96 185.58 57.48 185.58 48.96"/><polygon class="cls-6" points="176.07 65.99 176.07 57.48 184.59 57.48 176.07 65.99"/><polygon class="cls-6" points="184.59 65.99 176.07 65.99 176.07 65.99 184.59 57.48 184.59 65.99"/><polygon class="cls-6" points="143.01 48.96 143.01 57.48 151.53 57.48 143.01 48.96"/><polygon class="cls-10" points="151.53 48.96 143.01 48.96 143.01 48.96 151.53 57.48 151.53 48.96"/><polygon class="cls-6" points="160.04 48.96 160.04 57.48 151.53 57.48 160.04 48.96"/><polygon class="cls-6" points="151.53 48.96 160.04 48.96 160.04 48.96 151.53 57.48 151.53 48.96"/><polygon class="cls-12" points="160.04 65.99 160.04 57.48 151.53 57.48 160.04 65.99"/><polygon class="cls-5" points="151.53 65.99 160.04 65.99 160.04 65.99 151.53 57.48 151.53 65.99"/><polygon class="cls-6" points="143.01 65.99 143.01 57.48 151.53 57.48 143.01 65.99"/><polygon class="cls-8" points="151.53 65.99 143.01 65.99 143.01 65.99 151.53 57.48 151.53 65.99"/><polygon class="cls-6" points="108.96 48.96 108.96 57.48 117.47 57.48 108.96 48.96"/><polygon class="cls-9" points="117.47 48.96 108.96 48.96 108.96 48.96 117.47 57.48 117.47 48.96"/><polygon class="cls-6" points="125.99 48.96 125.99 57.48 117.47 57.48 125.99 48.96"/><polygon class="cls-11" points="117.47 48.96 125.99 48.96 125.99 48.96 117.47 57.48 117.47 48.96"/><polygon class="cls-9" points="125.99 65.99 125.99 57.48 117.47 57.48 125.99 65.99"/><polygon class="cls-6" points="117.47 65.99 125.99 65.99 125.99 65.99 117.47 57.48 117.47 65.99"/><polygon class="cls-6" points="108.96 65.99 108.96 57.48 117.47 57.48 108.96 65.99"/><polygon class="cls-12" points="117.47 65.99 108.96 65.99 108.96 65.99 117.47 57.48 117.47 65.99"/><polygon class="cls-7" points="177.07 48.97 177.07 40.46 168.55 40.46 177.07 48.97"/><polygon class="cls-6" points="168.55 48.97 177.07 48.97 177.07 48.97 168.55 40.46 168.55 48.97"/><polygon class="cls-6" points="160.04 48.97 160.04 40.46 168.55 40.46 160.04 48.97"/><polygon class="cls-11" points="168.55 48.97 160.04 48.97 160.04 48.97 168.55 40.46 168.55 48.97"/><polygon class="cls-6" points="160.04 48.97 160.04 40.46 151.53 40.46 160.04 48.97"/><polygon class="cls-7" points="151.53 48.97 160.04 48.97 160.04 48.97 151.53 40.46 151.53 48.97"/><polygon class="cls-5" points="143.01 48.97 143.01 40.46 151.53 40.46 143.01 48.97"/><polygon class="cls-6" points="151.53 48.97 143.01 48.97 143.01 48.97 151.53 40.46 151.53 48.97"/><polygon class="cls-6" points="143.01 48.97 143.01 40.46 134.5 40.46 143.01 48.97"/><polygon class="cls-11" points="134.5 48.97 143.01 48.97 143.01 48.97 134.5 40.46 134.5 48.97"/><polygon class="cls-9" points="125.99 48.97 125.99 40.46 134.5 40.46 125.99 48.97"/><polygon class="cls-6" points="134.5 48.97 125.99 48.97 125.99 48.97 134.5 40.46 134.5 48.97"/><polygon class="cls-6" points="125.99 48.97 125.99 40.46 117.47 40.46 125.99 48.97"/><polygon class="cls-6" points="117.47 48.97 125.99 48.97 125.99 48.97 117.47 40.46 117.47 48.97"/><polygon class="cls-6" points="108.96 48.97 108.96 40.46 117.47 40.46 108.96 48.97"/><polygon class="cls-7" points="117.47 48.97 108.96 48.97 108.96 48.97 117.47 40.46 117.47 48.97"/><polygon class="cls-8" points="108.96 48.97 108.96 40.46 100.44 40.46 108.96 48.97"/><polygon class="cls-6" points="100.44 48.97 108.96 48.97 108.96 48.97 100.44 40.46 100.44 48.97"/><polygon class="cls-8" points="91.93 48.97 91.93 40.46 100.44 40.46 91.93 48.97"/><polygon class="cls-7" points="100.44 48.97 91.93 48.97 91.93 48.97 100.44 40.46 100.44 48.97"/><polygon class="cls-5" points="-10.23 66 -10.23 66 23.82 66 23.82 31.94 -10.23 66"/><polygon class="cls-11" points="143.01 48.96 143.01 48.96 177.07 48.96 177.07 14.91 143.01 48.96"/><polygon class="cls-10" points="125.99 83.02 125.99 83.02 91.93 83.02 91.93 48.97 125.99 83.02"/><polygon class="cls-7" points="108.96 83.03 91.93 83.03 91.93 100.06 108.96 83.03 108.96 83.03"/><polygon class="cls-6" points="91.93 83.03 91.93 91.54 83.42 91.54 91.93 83.03"/><polygon class="cls-6" points="83.42 83.03 91.93 83.03 91.93 83.03 83.42 91.54 83.42 83.03"/><polygon class="cls-9" points="84.83 83.03 76.31 83.03 76.31 83.03 84.83 91.54 84.83 83.03"/><polygon class="cls-5" points="91.93 100.06 91.93 91.54 83.42 91.54 91.93 100.06"/><polygon class="cls-7" points="83.42 100.06 91.93 100.06 91.93 100.06 83.42 91.54 83.42 100.06"/></g></g></svg>