<svg xmlns="http://www.w3.org/2000/svg" width="30" height="30" viewBox="0 0 30 30"><defs><style>.cls-1{fill:#111;}</style></defs><g id="レイヤー_2" data-name="レイヤー 2"><g id="図形"><path class="cls-1" d="M17.79,22.22c.74-.17,1.43-.3,2.11-.48a6,6,0,0,0,4.58-5.41,7.49,7.49,0,0,0-.57-4.53c-.24-.47-.7-.87-.8-1.36s.24-1,.22-1.52A14.41,14.41,0,0,0,23,6.67a.46.46,0,0,0-.37-.25A16.44,16.44,0,0,0,20.5,7,16,16,0,0,0,19,7.83a.85.85,0,0,1-.58.1,13.9,13.9,0,0,0-6.87,0,1,1,0,0,1-.66-.12A9.52,9.52,0,0,0,8.16,6.49c-1-.23-1.14-.11-1.34.86a5.86,5.86,0,0,0,.07,2.91.54.54,0,0,1-.08.43A6.74,6.74,0,0,0,5.49,15.8,7.19,7.19,0,0,0,6.9,19.72a5.9,5.9,0,0,0,3.12,2c.71.2,1.43.33,2.05.47-.24.63-.48,1.29-.74,1.93a.56.56,0,0,1-.25.23,3.07,3.07,0,0,1-4-1.25,3.22,3.22,0,0,0-2.13-1.7l-.09,0L4,21.58a2.07,2.07,0,0,0,.42.6,4.45,4.45,0,0,1,1.7,2.15,3.75,3.75,0,0,0,4.11,2.43c.35,0,.69-.09,1.06-.14,0,.9,0,1.79,0,2.68a.71.71,0,0,1-1.05.63A15.1,15.1,0,0,1,.19,17.67a15.3,15.3,0,0,1,7-15.32,14.26,14.26,0,0,1,15-.43A14.54,14.54,0,0,1,29.82,13,15.33,15.33,0,0,1,20,29.89c-.78.28-1.16,0-1.17-.82,0-1.05,0-2.09,0-3.14C18.78,24.61,18.79,23.28,17.79,22.22Z"/></g></g></svg>