<svg xmlns="http://www.w3.org/2000/svg" xmlns:xlink="http://www.w3.org/1999/xlink" width="200" height="200" viewBox="0 0 200 200"><defs><style>.cls-1{fill:none;}.cls-2{clip-path:url(#clip-path);}.cls-3{fill:#f45a21;}.cls-4{fill:#804036;}.cls-5{fill:#fbb13c;}.cls-6{fill:#ffe1bb;}.cls-7{fill:#588157;}.cls-8{font-size:17.48px;fill:#fff;font-family:Futura-Bol, Futura;}</style><clipPath id="clip-path"><circle class="cls-1" cx="100" cy="100" r="100"/></clipPath></defs><g id="文字"><g class="cls-2"><circle class="cls-3" cx="100.37" cy="100.55" r="100"/><path class="cls-1" d="M78.77,69.15,80.08,69h0Z"/><path class="cls-4" d="M113.28,68.44l1.81.09-1.81-.09Z"/><path class="cls-4" d="M120.14,68.89l-1.56-.12Z"/><path class="cls-4" d="M86.75,68.53l1.41-.07h0Z"/><path class="cls-4" d="M117.6,68.7,116,68.59Z"/><path class="cls-4" d="M121.77,69h0l-.72-.06Z"/><path class="cls-4" d="M117.93,95.71a18.83,18.83,0,0,1-6,11.12l-1.6,1.43h0c0,.82-.05,1.87,0,3.07h0a27.18,27.18,0,0,0,.66,4.75l2.91,6.07a9.09,9.09,0,0,0,1.23,1.17l0,0a8.36,8.36,0,0,0,1.48,1l9.77,3.7-1.91-34.09c-1.18.13-2.37.24-3.58.35A4.45,4.45,0,0,1,117.93,95.71Z"/><path class="cls-4" d="M85.86,68.59l-1.62.11Z"/><path class="cls-4" d="M86.31,123.36l0,0a10.4,10.4,0,0,0,1.22-1.17l2.91-6.07a25.4,25.4,0,0,0,.66-4.75h0c.06-1.2,0-2.25,0-3.07h0l-1.59-1.42a19,19,0,0,1-6-11.13,4.48,4.48,0,0,1-3-1.47l-3.14-.31-1.9,33.93,9.35-3.54A8.44,8.44,0,0,0,86.31,123.36Z"/><path class="cls-4" d="M80.08,69l.7-.06-.7.06Z"/><path class="cls-4" d="M83.25,68.77l-1.55.12Z"/><path class="cls-4" d="M121.77,69l-.72-.06-.91-.08-1.56-.12-1-.07L116,68.59l-.89-.06-1.81-.09a5.42,5.42,0,0,1,.27,1.6h0a10.77,10.77,0,0,0,4,8.41l.63.51c0,.25,0,.49,0,.73v7.43a3.15,3.15,0,0,1,3.23-.26c1.64,1,1.89,3.65.55,6a7.08,7.08,0,0,1-1.08,1.42c1.21-.11,2.4-.22,3.58-.35l-1-17.36A23,23,0,0,0,121.77,69Z"/><path class="cls-4" d="M79.46,92.86c-1.33-2.35-1.09-5,.56-6a3.15,3.15,0,0,1,3.23.26V79.69c0-.24,0-.48,0-.73l.63-.51a10.81,10.81,0,0,0,4-8.41,5.28,5.28,0,0,1,.26-1.58l-1.41.07-.89.06-1.62.11-1,.07-1.55.12-.92.08-.7.06a23,23,0,0,0-1.74,7.54l-1,17.36,3.14.31A7.06,7.06,0,0,1,79.46,92.86Z"/><path class="cls-5" d="M86.31,123.36l0,0Z"/><path class="cls-5" d="M96.42,118.15A5.16,5.16,0,0,1,99.78,122l0,.12h1.85l0-.12a5.16,5.16,0,0,1,3.36-3.89l5.93-2.06h0a27.18,27.18,0,0,1-.66-4.75,15.84,15.84,0,0,1-19.16,0,25.4,25.4,0,0,1-.66,4.75h0Z"/><path class="cls-5" d="M115.1,123.33l0,0Z"/><path class="cls-3" d="M80.51,94.24a4.48,4.48,0,0,0,3,1.47c-.06-.41-.13-.82-.17-1.24Z"/><path class="cls-3" d="M83.25,92.7V87.12A3.15,3.15,0,0,0,80,86.86c-1.65,1-1.89,3.65-.56,6a7.06,7.06,0,0,0,1.05,1.38l2.83.23C83.29,93.88,83.25,93.29,83.25,92.7Z"/><path class="cls-3" d="M117.93,95.71a4.45,4.45,0,0,0,3-1.43l-2.8.22C118.06,94.91,118,95.31,117.93,95.71Z"/><path class="cls-3" d="M118.1,94.5l2.8-.22A7.08,7.08,0,0,0,122,92.86c1.34-2.35,1.09-5-.55-6a3.15,3.15,0,0,0-3.23.26V92.7C118.2,93.3,118.16,93.9,118.1,94.5Z"/><path class="cls-3" d="M91.16,108.27h0c0,.82,0,1.87,0,3.07h0C91.2,110.15,91.19,109.09,91.16,108.27Z"/><path class="cls-3" d="M110.3,111.34h0c-.06-1.2,0-2.25,0-3.07h0C110.25,109.09,110.24,110.15,110.3,111.34Z"/><path class="cls-3" d="M110.3,111.34c-.06-1.19,0-2.25,0-3.07a14.35,14.35,0,0,1-19.13,0c0,.82,0,1.88,0,3.07A15.84,15.84,0,0,0,110.3,111.34Z"/><path class="cls-5" d="M109.15,68.26l-1.87-.05Z"/><path class="cls-5" d="M106.37,68.19l-1.9,0Z"/><path class="cls-5" d="M112.55,68.4,110,68.29Z"/><path class="cls-5" d="M94.56,68.21l-1.87.05Z"/><path class="cls-5" d="M98.2,68.14l2.72,0,2.72,0-2.72,0Z"/><path class="cls-5" d="M88.16,68.46h0l.94,0Z"/><path class="cls-5" d="M112.74,68.41l.54,0h0Z"/><path class="cls-5" d="M97.37,68.15l-1.9,0Z"/><path class="cls-5" d="M91,106.63v-.07h19.37a.51.51,0,0,1,0,.09h0c0,.21-.08.8-.11,1.61h0l1.6-1.43a18.83,18.83,0,0,0,6-11.12,2.37,2.37,0,0,1-2.1-1.06c-4.76.3-9.75.45-14.91.45s-10.41-.16-15.28-.48a2.41,2.41,0,0,1-2.13,1.09,19,19,0,0,0,6,11.13l1.59,1.42h0c0-.81-.09-1.38-.11-1.6Z"/><path class="cls-5" d="M91.87,68.29l-2.58.11Z"/><path class="cls-5" d="M85.41,89.37c1.09,1.9,1.12,4,.23,5.25,4.87.32,10,.48,15.28.48s10.15-.15,14.91-.45c-.91-1.25-.89-3.37.2-5.28a6.19,6.19,0,0,1,2.17-2.25V79.69c0-.24,0-.48,0-.73l-.63-.51a10.77,10.77,0,0,1-4-8.41h0a5.42,5.42,0,0,0-.27-1.6l-.54,0h-.19L110,68.29l-.81,0-1.87-.05-.91,0-1.9,0h-.83l-2.72,0-2.72,0h-.83l-1.9,0-.91,0-1.87.05-.82,0-2.58.11H89.1l-.94,0A5.28,5.28,0,0,0,87.9,70a10.81,10.81,0,0,1-4,8.41l-.63.51c0,.25,0,.49,0,.73v7.43A6.16,6.16,0,0,1,85.41,89.37Z"/><path class="cls-5" d="M110.4,106.65h0Z"/><path class="cls-5" d="M91,106.56v0Z"/><path class="cls-5" d="M91.05,106.67v0Z"/><path class="cls-5" d="M85.64,94.62c-.77,0-1.54-.1-2.3-.15,0,.42.11.83.17,1.24a2.41,2.41,0,0,0,2.13-1.09Z"/><path class="cls-5" d="M83.34,94.47c.76,0,1.53.11,2.3.15.89-1.25.86-3.35-.23-5.25a6.16,6.16,0,0,0-2.16-2.25V92.7C83.25,93.29,83.29,93.88,83.34,94.47Z"/><path class="cls-5" d="M115.83,94.65a2.37,2.37,0,0,0,2.1,1.06c.07-.4.13-.8.17-1.21Z"/><path class="cls-5" d="M116,89.37c-1.09,1.91-1.11,4-.2,5.28l2.27-.15c.06-.6.1-1.2.1-1.8V87.12A6.19,6.19,0,0,0,116,89.37Z"/><path class="cls-5" d="M110.41,106.56v.09A.51.51,0,0,0,110.41,106.56Z"/><path class="cls-5" d="M110.29,108.27h0c0-.81.09-1.4.11-1.61C110.38,106.87,110.32,107.44,110.29,108.27Z"/><path class="cls-5" d="M91.05,106.67c0,.22.07.79.11,1.6h0C91.13,107.45,91.07,106.88,91.05,106.67Z"/><path class="cls-5" d="M91,106.63v0Z"/><path class="cls-5" d="M110.4,106.65v-.09H91v.11c0,.21.08.78.11,1.6a14.35,14.35,0,0,0,19.13,0c0-.83.09-1.4.11-1.61Z"/><path class="cls-4" d="M90,65.74A17.25,17.25,0,0,1,100.72,62h0a17.26,17.26,0,0,1,10.78,3.77,5.4,5.4,0,0,1,1.78,2.7l1.81.09.89.06,1.62.11,1,.07,1.56.12.91.08.72.06a22.61,22.61,0,0,0-20.85-14.09h0A22.6,22.6,0,0,0,80.08,69l.7-.06.92-.08,1.55-.12,1-.07,1.62-.11.89-.06,1.41-.07A5.37,5.37,0,0,1,90,65.74Z"/><path class="cls-6" d="M86.75,68.53l-.89.06Z"/><path class="cls-6" d="M84.24,68.7l-1,.07Z"/><path class="cls-6" d="M116,68.59l-.89-.06Z"/><path class="cls-6" d="M118.58,68.77l-1-.07Z"/><path class="cls-6" d="M81.7,68.89l-.92.08Z"/><path class="cls-6" d="M121.05,69l-.91-.08Z"/><path class="cls-5" d="M111.5,65.74A17.26,17.26,0,0,0,100.72,62h0A17.25,17.25,0,0,0,90,65.74a5.37,5.37,0,0,0-1.79,2.72l.94,0h.19l2.58-.11.82,0,1.87-.05.91,0,1.9,0h.83l2.72,0,2.72,0h.83l1.9,0,.91,0,1.87.05.81,0,2.59.11h.19l.54,0A5.4,5.4,0,0,0,111.5,65.74Z"/><path class="cls-6" d="M110,68.29l-.81,0Z"/><path class="cls-6" d="M95.47,68.19l-.91,0Z"/><path class="cls-6" d="M104.47,68.15h0Z"/><path class="cls-6" d="M92.69,68.26l-.82,0Z"/><path class="cls-6" d="M98.2,68.14h0Z"/><path class="cls-6" d="M107.28,68.21l-.91,0Z"/><path class="cls-6" d="M112.74,68.41h0Z"/><path class="cls-6" d="M89.29,68.4h0Z"/><path class="cls-6" d="M66.15,194.2c-.23,17.38-10.06,51.17-13.38,64.42a12.56,12.56,0,0,0-.2,5.14l2.68.41a20.43,20.43,0,0,1,.33-4.84c3-12,10.88-47.09,11.13-65.07.16-.89,2.45-14,4.3-28-.15-.52-.27-1-.37-1.56C68.69,179.78,66.15,194.2,66.15,194.2Z"/><path class="cls-6" d="M54.16,185.78a57.65,57.65,0,0,0,1.67-13.07c.15-11.91,1.35-31.83,4.11-35.88a13.84,13.84,0,0,1,7.66-5.36v0s3.41-1.14,7.84-2.92l0-.67-8,3-.27.1a14.34,14.34,0,0,0-7.68,5.49c-2.81,4.14-4,23.92-4.2,36.21a57.14,57.14,0,0,1-1.66,12.94c-1.93,8.53-5.16,23.85-5.09,30.61.08,6.49-3.3,25.66-5.32,37.12-.62,3.55-2,8.64-2,8.64l2.21.34c.89-5.62,5.82-37.24,5.72-46.11C49,209.62,52.15,194.64,54.16,185.78Z"/><path class="cls-6" d="M84.82,124.32l-9.35,3.54,0,.67C78.34,127.35,81.69,125.91,84.82,124.32Z"/><path class="cls-6" d="M52.77,258.62c3.32-13.25,13.15-47,13.38-64.42,0,0,2.54-14.42,4.49-29.49a21.73,21.73,0,0,1,1.62-13.22l2.45-5.29a39.72,39.72,0,0,1,0-4.5l.74-13.17c-4.43,1.78-7.84,2.92-7.84,2.92v0a13.84,13.84,0,0,0-7.66,5.36c-2.76,4-4,24-4.11,35.88a57.65,57.65,0,0,1-1.67,13.07c-2,8.86-5.15,23.84-5.07,30.47.1,8.87-4.83,40.49-5.72,46.11l9.2,1.4A12.56,12.56,0,0,1,52.77,258.62Z"/><path class="cls-6" d="M75.43,128.53l-.74,13.17a39.72,39.72,0,0,0,0,4.5l10.11-21.88C81.69,125.91,78.34,127.35,75.43,128.53Z"/><path class="cls-6" d="M134.42,131.62v0a13.67,13.67,0,0,1,7.1,5.18c2.76,4,4,24,4.1,35.88a58.22,58.22,0,0,0,1.67,13.07c2,8.86,5.16,23.84,5.08,30.47-.11,8.87,4.83,40.49,5.71,46.11l2.22-.34s-1.42-5.09-2-8.64c-2-11.46-5.39-30.63-5.32-37.12.08-6.76-3.15-22.08-5.09-30.61a57.72,57.72,0,0,1-1.65-12.94c-.15-12.29-1.39-32.07-4.2-36.21a14.33,14.33,0,0,0-7.69-5.49l-.26-.1L126.39,128l0,.65C130.92,130.45,134.42,131.62,134.42,131.62Z"/><path class="cls-6" d="M148.68,258.62c-3.33-13.25-13.15-47-13.38-64.42,0,0-2.55-14.42-4.49-29.49-.11.52-.23,1-.37,1.56,1.85,14,4.14,27.1,4.29,28,.26,18,8.13,53.06,11.14,65.07a20.43,20.43,0,0,1,.32,4.84l2.68-.41A12.73,12.73,0,0,0,148.68,258.62Z"/><path class="cls-6" d="M126.42,128.67l0-.65-9.77-3.7C119.83,126,123.36,127.45,126.42,128.67Z"/><path class="cls-6" d="M152.36,216.25c.08-6.63-3.07-21.61-5.08-30.47a58.22,58.22,0,0,1-1.67-13.07c-.14-11.91-1.34-31.83-4.1-35.88a13.67,13.67,0,0,0-7.1-5.18v0s-3.5-1.17-8-3l.73,12.88a38.44,38.44,0,0,1-.08,5.37l2.11,4.57a21.73,21.73,0,0,1,1.63,13.22c1.94,15.07,4.49,29.49,4.49,29.49.23,17.38,10,51.17,13.38,64.42a12.73,12.73,0,0,1,.19,5.14l9.2-1.4C157.19,256.74,152.25,225.12,152.36,216.25Z"/><path class="cls-6" d="M127.07,146.92a38.44,38.44,0,0,0,.08-5.37l-.73-12.88c-3.06-1.22-6.59-2.72-9.8-4.35Z"/><path class="cls-6" d="M90.48,116.09l-2.91,6.07h0A14.11,14.11,0,0,0,90.48,116.09Z"/><path class="cls-6" d="M99.8,122.16l0-.12a5.16,5.16,0,0,0-3.36-3.89l-5.93-2.06h0a14.11,14.11,0,0,1-2.91,6.07Z"/><path class="cls-6" d="M113.87,122.16,111,116.09a14.22,14.22,0,0,0,2.91,6.07Z"/><path class="cls-6" d="M105,118.15a5.16,5.16,0,0,0-3.36,3.89l0,.12h12.22a14.22,14.22,0,0,1-2.91-6.07h0Z"/><path class="cls-7" d="M125.41,180.93c1-2.76,3.22-8.21,5-14.52l0-.14c-.24-1.79-.47-3.6-.68-5.4C128.25,169.4,126.65,177.37,125.41,180.93Z"/><path class="cls-7" d="M71,166.27l0,.14c1.78,6.31,4,11.76,5,14.52-1.28-3.64-2.84-12-4.27-20.73C71.53,162.22,71.27,164.25,71,166.27Z"/><path class="cls-7" d="M87.57,122.16h0a10.4,10.4,0,0,1-1.22,1.17A9,9,0,0,0,87.57,122.16Z"/><path class="cls-7" d="M115.14,123.36a8.36,8.36,0,0,0,1.48,1A8.36,8.36,0,0,1,115.14,123.36Z"/><path class="cls-7" d="M84.82,124.32a8.44,8.44,0,0,0,1.49-1A8.44,8.44,0,0,1,84.82,124.32Z"/><path class="cls-7" d="M115.1,123.33a9.09,9.09,0,0,1-1.23-1.17h0A9.09,9.09,0,0,0,115.1,123.33Z"/><path class="cls-7" d="M127.79,208.13c-4.47-6.65-5.66-17.83-2.38-27.2,1.24-3.56,2.84-11.53,4.35-20.06-.11-.86-.21-1.72-.31-2.57l-2.87-7.6a39.05,39.05,0,0,1-9.15,19l-4.55,5.15,5.66,2.55-6.92-1.13-10.88,12.32L89.92,176.15l-7.55,1.23,6.18-2.79-4.31-5A39,39,0,0,1,75.12,150L72,158.3c-.07.63-.14,1.26-.22,1.9,1.43,8.78,3,17.09,4.27,20.73a35.24,35.24,0,0,1,1.45,16.71h0a26.29,26.29,0,0,1-3.83,10.49c-4.47,6.65-10.73,25.08-9.54,42.61s15.06,70.41,13.79,80.08S76,365,79.91,384.61c2.86,14.49,5,30.08,5.3,39.09a57.93,57.93,0,0,0,9.32-1.53c.17-14.42.86-43,1.77-51.76,1.2-11.49-2.38-43.22,0-53.49,2.11-9.08,1.38-50.17,1.18-59.6a17.14,17.14,0,0,0,6.49,0c-.2,9.43-.94,50.52,1.17,59.6,2.39,10.27-1.19,42,0,53.49.91,8.78,1.61,37.34,1.77,51.76a58.29,58.29,0,0,0,9.32,1.53c.32-9,2.44-24.6,5.3-39.09,3.88-19.64,3.28-44.12,2-53.79s12.59-62.55,13.79-80.08S132.26,214.78,127.79,208.13Z"/><path class="cls-7" d="M115.14,123.36l0,0a9.09,9.09,0,0,1-1.23-1.17s3.31,19.48,0,23.45-24.1,2.65-28,0,1.72-23.45,1.72-23.45a9,9,0,0,1-1.22,1.17l0,0a8.44,8.44,0,0,1-1.49,1L75.12,150a39,39,0,0,0,9.12,19.62l4.31,5,5.86-2.65a14.73,14.73,0,0,1,12.09,0l6.38,2.89,4.55-5.15a39.05,39.05,0,0,0,9.15-19l-10-26.38A8.36,8.36,0,0,1,115.14,123.36Z"/><path class="cls-7" d="M95.54,175.24l-5.62.91,10.82,12.42,10.88-12.32-6.25-1A30,30,0,0,0,95.54,175.24Z"/><path class="cls-7" d="M71.44,158.16c-.25,2.17-.52,4.36-.8,6.55.1.52.22,1,.37,1.56.26-2,.52-4.05.76-6.07Z"/><path class="cls-7" d="M72.26,151.49a21.73,21.73,0,0,0-1.62,13.22c.28-2.19.55-4.38.8-6.55l.33,2c.08-.64.15-1.27.22-1.9L75.12,150a37.47,37.47,0,0,1-.41-3.82Z"/><path class="cls-7" d="M74.71,146.2a37.47,37.47,0,0,0,.41,3.82l9.7-25.7Z"/><path class="cls-7" d="M130.1,158.94c-.12.65-.23,1.29-.34,1.93.21,1.8.44,3.61.68,5.4.14-.52.26-1,.37-1.56C130.56,162.79,130.32,160.86,130.1,158.94Z"/><path class="cls-7" d="M129.45,158.3c.1.85.2,1.71.31,2.57.11-.64.22-1.28.34-1.93.22,1.92.46,3.85.71,5.77a21.73,21.73,0,0,0-1.63-13.22l-2.11-4.57a36.85,36.85,0,0,1-.49,3.78Z"/><path class="cls-7" d="M126.58,150.7a36.85,36.85,0,0,0,.49-3.78l-10.45-22.6Z"/><polygon class="cls-4" points="118.54 177.38 112.88 174.83 111.62 176.25 118.54 177.38"/><polygon class="cls-4" points="82.37 177.38 89.92 176.15 88.55 174.59 82.37 177.38"/><path class="cls-4" d="M94.41,171.94l-5.86,2.65,1.37,1.56,5.62-.91a30,30,0,0,1,9.83,0l6.25,1,1.26-1.42-6.38-2.89A14.73,14.73,0,0,0,94.41,171.94Z"/><polygon class="cls-6" points="101.65 122.16 99.8 122.16 100.72 126.89 101.65 122.16"/><path class="cls-6" d="M99.8,122.16H87.57a20.66,20.66,0,0,0,13.15,4.73Z"/><path class="cls-6" d="M113.87,122.16H101.65l-.93,4.73A20.64,20.64,0,0,0,113.87,122.16Z"/><polygon class="cls-6" points="87.58 122.16 87.58 122.16 87.58 122.16 87.58 122.16"/><path class="cls-6" d="M100.72,126.89a20.66,20.66,0,0,1-13.15-4.73h0s-5.63,20.8-1.72,23.45,24.72,4,28,0,0-23.45,0-23.45h0A20.64,20.64,0,0,1,100.72,126.89Z"/><ellipse class="cls-6" cx="100.21" cy="156.2" rx="1.31" ry="1.32"/><ellipse class="cls-6" cx="100.21" cy="165.46" rx="1.31" ry="1.32"/><ellipse class="cls-6" cx="81.28" cy="68.18" rx="3.26" ry="3.31"/><ellipse class="cls-5" cx="83.89" cy="69.5" rx="1.96" ry="1.99"/><ellipse class="cls-6" cx="81.89" cy="72.68" rx="2.66" ry="2.7"/><ellipse class="cls-3" cx="87.16" cy="68.84" rx="2.61" ry="2.65"/><ellipse class="cls-5" cx="79.27" cy="70.01" rx="2.66" ry="2.7"/><ellipse class="cls-6" cx="117.18" cy="68.84" rx="3.92" ry="3.97"/><ellipse class="cls-5" cx="120.82" cy="65.63" rx="2.66" ry="2.7"/><ellipse class="cls-3" cx="122.13" cy="69.6" rx="2.66" ry="2.7"/><text class="cls-8" transform="matrix(0.55, -0.85, 0.84, 0.54, 40.04, 76.06)">G</text><text class="cls-8" transform="matrix(0.66, -0.77, 0.76, 0.65, 48.36, 63.52)">o</text><text class="cls-8" transform="matrix(0.75, -0.68, 0.67, 0.74, 56.46, 54.2)">o</text><text class="cls-8" transform="matrix(0.82, -0.58, 0.58, 0.81, 65.6, 45.99)">d</text><text class="cls-8" transform="matrix(0.88, -0.5, 0.5, 0.87, 75.82, 38.97)">!</text></g></g></svg>