<svg xmlns="http://www.w3.org/2000/svg" width="52.9" height="60" viewBox="0 0 52.9 60"><defs><style>.cls-1{fill:#111;}.cls-2{fill:#4d4d4d;}.cls-3{fill:#fff;}.cls-4{fill:#ebebeb;}</style></defs><g id="レイヤー_2" data-name="レイヤー 2"><g id="図形"><polygon class="cls-1" points="26.42 60 4.82 54 0 0 52.9 0 48.09 53.99 26.42 60"/><polygon class="cls-2" points="43.96 50.55 48.08 4.42 26.45 4.42 26.45 55.41 43.96 50.55"/><polygon class="cls-3" points="26.47 17.66 42.45 17.66 43.04 11.04 26.47 11.04 26.45 11.04 9.86 11.04 11.65 31.07 26.45 31.07 26.47 31.07 34.6 31.07 33.84 39.66 26.45 41.65 26.45 41.65 26.44 41.65 19.07 39.66 18.6 34.38 11.95 34.38 12.88 44.78 26.44 48.54 26.47 48.53 26.47 48.53 40.03 44.78 41.84 24.44 26.47 24.44 26.45 24.44 17.71 24.44 17.1 17.66 26.45 17.66 26.47 17.66"/><polygon class="cls-4" points="26.45 41.65 26.45 41.65 26.45 41.65 26.44 41.65 19.07 39.66 18.6 34.38 11.95 34.38 12.88 44.78 26.44 48.54 26.45 48.54 26.45 41.65"/><polygon class="cls-4" points="26.45 31.07 26.45 24.44 26.45 24.44 17.71 24.44 17.1 17.66 26.45 17.66 26.45 17.66 26.45 11.04 26.45 11.04 9.86 11.04 11.65 31.07 26.45 31.07 26.45 31.07"/></g></g></svg>