<svg xmlns="http://www.w3.org/2000/svg" width="60" height="79.25" viewBox="0 0 60 79.25"><defs><style>.cls-1{fill:#111;}.cls-2{fill:#4d4d4d;}.cls-3{fill:#86b3d3;}</style></defs><g id="レイヤー_2" data-name="レイヤー 2"><g id="図形"><path class="cls-1" d="M29.4,42.77a39.37,39.37,0,0,1-8.47-8.87C18.22,29.77,18.54,26.36,22.2,23c2.59-2.4,5.44-4.54,8.19-6.79s5.49-4.59,7.07-7.91C38.7,5.65,38.5,3,38.15,0a8.61,8.61,0,0,1,2.08,7.22,16.13,16.13,0,0,1-4.83,8.9c-1.92,1.94-4.13,3.61-6.13,5.48a32.6,32.6,0,0,0-4,4.2c-2.72,3.67-1.9,7.31.48,10.83,1.14,1.68,2.29,3.34,3.43,5Z"/><path class="cls-2" d="M12.59,67.37c-2.77.49-5.47.75-7.85,3A35.76,35.76,0,0,0,8.2,71.59,62.57,62.57,0,0,0,23.87,73c6.47-.07,13-.31,19.4-.79A68.15,68.15,0,0,0,53,70.47c1.7-.37,2.17-1.12,2.13-2.53l.37-.36,1.07,1.12a3.91,3.91,0,0,1-2.55,2.67c-3.74,1.75-7.78,2.4-11.82,3a132.3,132.3,0,0,1-34,0A54.79,54.79,0,0,1,2,73.21C1.2,73,0,72.31,0,71.78a2.94,2.94,0,0,1,1.39-2.12,18.33,18.33,0,0,1,10.23-2.77,3.12,3.12,0,0,1,.65.13C12.34,67,12.38,67.14,12.59,67.37Z"/><path class="cls-1" d="M34,44.77c1.75-3,1.68-4.45-.51-7.13-1.79-2.19-3.32-4.47-3.38-7.37-.07-3.65,2.1-6.13,4.84-8.17a31.19,31.19,0,0,1,9.86-4.9l1.69.06c-2.85,2-5.72,3.9-8.52,5.93a9.33,9.33,0,0,0-2,2.13c-1.68,2.32-1.54,4.41.36,7,.6.82,1.21,1.63,1.78,2.47,1.8,2.68,1.79,4.83-.28,7.32a28.23,28.23,0,0,1-3.46,3.06Z"/><path class="cls-2" d="M19.12,44c-4.85,1.37-6,1.87-6.83,3.31a18.17,18.17,0,0,0,3.62.82c5.07.1,10.16.27,15.23,0s9.82-1,14.73-1.59c.29,0,.57,0,1.11-.08a16.59,16.59,0,0,1-8.14,3,106.78,106.78,0,0,1-22.88.9,65.43,65.43,0,0,1-6.67-.87,14.61,14.61,0,0,1-2.69-1c-.53-1.33.43-1.69,1.07-2a27.34,27.34,0,0,1,10-2.81Z"/><path class="cls-2" d="M17.86,61.52l.46-.13.08.73.41.62.65.39.48.09.6.17a53.21,53.21,0,0,0,17.17-.54,1.57,1.57,0,0,1,.91.09c1.32.62,2.63,1.29,4.37,2.15-2.07.63-3.76,1.28-5.52,1.66a37.42,37.42,0,0,1-17.1.13,25.63,25.63,0,0,1-2.91-1c-1-.39-2.07-.9-2.16-2.09s1.05-1.49,1.88-2Z"/><path class="cls-2" d="M12.77,55.67c.61-1.68,1.75-2.44,4.16-2.94l-.86,1.67a9.33,9.33,0,0,0,2.16.92A65.86,65.86,0,0,0,39,54.79c.61-.11,1.23-.19,1.78-.27l3.37,2.06c-1.21.33-2.24.65-3.29.88a59.88,59.88,0,0,1-22.08.9,23.36,23.36,0,0,1-4.71-1.47C13.53,56.68,13.16,56,12.77,55.67Z"/><path class="cls-2" d="M12.72,77a139,139,0,0,0,25.15.34c6.22-.49,12.41-1.3,18.29-3.47A26.45,26.45,0,0,0,59.65,72l.06.72a5.83,5.83,0,0,1-4.05,3.19,78.59,78.59,0,0,1-10.57,2.45A106.5,106.5,0,0,1,23.16,79c-3.79-.24-7.53-1.06-11.29-1.62Z"/><path class="cls-2" d="M50.72,57.25l-1.77.5-.65-.35,0,0,.63-.37a57.93,57.93,0,0,0,6-4.92c1.93-2.05,2.07-4.35.86-6a5.19,5.19,0,0,0-6-2,1.14,1.14,0,0,1-.68,0c1.74-1.51,3.86-1.57,6-1.14a5.74,5.74,0,0,1,4.72,4c.75,2.49-.25,4.47-1.92,6.19A15.67,15.67,0,0,1,51.37,57Z"/><path class="cls-1" d="M46.45,17.26l-1.69-.06,3-1.2.21.44Z"/><path class="cls-2" d="M19.12,44l-1.41-.32,2.57-.48.11.48Z"/><path class="cls-2" d="M48.3,57.4l.65.35-1.69.73-.21-.4Z"/><path class="cls-2" d="M12.72,77l-.85.32-1-.34.15-.46Z"/><path class="cls-1" d="M29.4,42.77l-.25-1.13,1,1.52-.3.2Z"/><path class="cls-2" d="M18.4,62.12l-.08-.73.64-.26.18.23Z"/><path class="cls-1" d="M33.77,45.66l-.88.53-.21-.31.73-.58Z"/><path class="cls-2" d="M59.71,72.7,59.65,72l.34-.22Z"/><path class="cls-2" d="M48.91,57l-.63.37Z"/><path class="cls-2" d="M50.72,57.25l.65-.3Z"/><path class="cls-2" d="M17.86,61.52l-.68.29Z"/><path class="cls-2" d="M19.46,63.13l-.65-.39Z"/><path class="cls-3" d="M20.54,63.39l-.6-.17Z"/><path class="cls-1" d="M34,44.77l.4.4-.48.32-.36-.3Z"/><path class="cls-1" d="M33.77,45.66l-.36-.36a.21.21,0,0,1,.1-.11l.36.3A.33.33,0,0,1,33.77,45.66Z"/></g></g></svg>