<svg xmlns="http://www.w3.org/2000/svg" xmlns:xlink="http://www.w3.org/1999/xlink" width="60" height="60.02" viewBox="0 0 60 60.02"><defs><style>.cls-1{fill:url(#名称未設定グラデーション_34);}.cls-2{fill:url(#名称未設定グラデーション_34-2);}.cls-3{fill:url(#名称未設定グラデーション_36);}</style><linearGradient id="名称未設定グラデーション_34" x1="15" y1="74.99" x2="45.1" y2="44.89" gradientUnits="userSpaceOnUse"><stop offset="0" stop-color="#666"/><stop offset="0.19" stop-color="#5d5d5d"/><stop offset="0.5" stop-color="#454545"/><stop offset="0.89" stop-color="#1d1d1d"/><stop offset="1" stop-color="#111"/></linearGradient><linearGradient id="名称未設定グラデーション_34-2" x1="-7.92" y1="23.77" x2="22.97" y2="-7.12" xlink:href="#名称未設定グラデーション_34"/><linearGradient id="名称未設定グラデーション_36" x1="-7.47" y1="52.54" x2="52.54" y2="-7.46" gradientUnits="userSpaceOnUse"><stop offset="0" stop-color="#333"/><stop offset="0.17" stop-color="#3c3c3c"/><stop offset="0.44" stop-color="#545454"/><stop offset="0.78" stop-color="#7c7c7c"/><stop offset="1" stop-color="#999"/></linearGradient></defs><g id="レイヤー_2" data-name="レイヤー 2"><g id="図形"><path class="cls-1" d="M59.91,59.9l-2.25-2.25c-.74-.76-1.5-1.49-2.23-2.26s-1.5-1.5-2.24-2.25S51.68,51.65,51,50.88s-1.5-1.5-2.24-2.25l-2.25-2.26c-1.72-1.76-3.48-3.48-5.19-5.24l-1.91-1.91-1.9-1.91c-1.49-1.53-3-3-4.51-4.55-.9-.93-1.82-1.82-2.73-2.73l-.09-.11L30,30l-1.11,1.1a1.15,1.15,0,0,1-.23.21,1.62,1.62,0,0,0-.17.19,1.09,1.09,0,0,0-.1.11l-3,3-.09.11-.1.08-1,1-.1.09-.07.08-2.15,2.15-.55.52-.05.07L21,39l-.27.27-.15.16-.09.11-2.78,2.78-.1.11c-.09.09-.2.16-.29.26a.61.61,0,0,1-.16.16l-.09.11L15,45l-.1.11-.11.1-1,1-.11.09-.07.09-.87.87a1.1,1.1,0,0,1-.23.2s-.06.07-.09.1-.32.35-.5.51a2.18,2.18,0,0,0-.22.21l-.09.08-.78.78-.18.19-.09.11L9.1,50.93,9,51l-.09.08-.78.78L8,52,8,52.06c-.63.64-1.26,1.28-1.9,1.89l-1,.95h0v0l-.58.61L.13,59.9,0,60H60C60,60,59.94,59.93,59.91,59.9Z"/><path class="cls-2" d="M30,0H0V31.69a2.59,2.59,0,0,0,.4-.41l.07-.08c.13-.13.27-.26.39-.39s.43-.43.63-.66.33-.34.49-.52.42-.43.62-.66a2.73,2.73,0,0,1,.34-.34v0l.58-.6c.26-.27.53-.54.78-.82s.39-.39.56-.59.38-.38.55-.59.38-.38.56-.58.13-.15.19-.22,0,0,.08,0a.25.25,0,0,1,0-.07c.23-.25.46-.49.7-.73s.49-.5.72-.76.35-.35.51-.54.41-.41.59-.63.38-.38.56-.58l.25-.27a.1.1,0,0,1,.05,0v0l.56-.58c.28-.29.57-.58.83-.88s.38-.37.56-.58.4-.4.58-.61.38-.38.56-.59.38-.38.56-.59.36-.38.54-.57l.07-.06.11-.15.25-.27a.92.92,0,0,0,.26-.26l.11-.12.93-1,.45-.48.24-.27s.06-.05.08-.08c.24-.24.47-.49.7-.73s.38-.39.56-.59v0s.05,0,.06,0l.3-.33.36-.36s.09-.07.11-.12a1.2,1.2,0,0,1,.22-.23c.16-.16.31-.33.46-.5l.12-.16s.06,0,.09,0l.31-.35c.18-.19.37-.37.55-.57s.56-.59.84-.88a3.6,3.6,0,0,0,.37-.41.1.1,0,0,0,.05,0c.15-.16.3-.3.44-.46.29-.32.6-.63.9-.94.1-.11.21-.21.3-.33a3.86,3.86,0,0,1,.53-.54.49.49,0,0,1,.1-.15l.29-.3a.28.28,0,0,0,.11-.08c.21-.21.4-.43.61-.65s.39-.38.56-.59.4-.39.58-.61.38-.38.56-.59.38-.38.55-.59.38-.37.56-.58.4-.4.59-.62.37-.38.55-.58.47-.49.7-.74L30.1,0V0Z"/><path class="cls-3" d="M59.82,0H30.1V0l-.72.74c-.23.25-.48.49-.7.74s-.38.38-.55.58-.41.4-.59.62-.38.38-.56.58-.38.38-.55.59-.39.38-.56.59-.4.39-.58.61-.38.39-.56.59-.4.44-.61.65a.28.28,0,0,1-.11.08l-.29.3a.49.49,0,0,0-.1.15,3.86,3.86,0,0,0-.53.54c-.09.12-.2.22-.3.33-.3.31-.61.62-.9.94-.14.16-.29.3-.44.46a.1.1,0,0,1-.05,0,3.6,3.6,0,0,1-.37.41c-.28.29-.57.58-.84.88s-.37.38-.55.57l-.31.35s0,.05-.09,0l-.12.16c-.15.17-.3.34-.46.5a1.2,1.2,0,0,0-.22.23c0,.05-.07.08-.11.12l-.36.36-.3.33s0,0-.06,0v0c-.18.2-.37.39-.56.59s-.46.49-.7.73c0,0-.06,0-.08.08l-.24.27-.45.48-.93,1-.11.12a.92.92,0,0,1-.26.26l-.25.27-.11.15-.07.06c-.18.19-.37.37-.54.57s-.39.38-.56.59-.38.38-.56.59-.4.39-.58.61-.38.38-.56.58-.55.59-.83.88l-.56.58v0a.1.1,0,0,0-.05,0l-.25.27c-.18.2-.38.38-.56.58s-.41.41-.59.63-.35.35-.51.54-.48.51-.72.76-.47.48-.7.73a.25.25,0,0,0,0,.07s-.06,0-.08,0-.12.15-.19.22-.38.38-.56.58-.38.38-.55.59-.38.38-.56.59-.52.55-.78.82l-.58.6v0A2.73,2.73,0,0,0,2.6,29c-.2.23-.43.43-.62.66s-.34.34-.49.52-.42.44-.63.66-.26.26-.39.39l-.07.08a2.59,2.59,0,0,1-.4.41V60H0l.1-.12,4.36-4.36.58-.61v0h0l1-.95c.64-.61,1.27-1.25,1.9-1.89L8,52l.09-.07.78-.78L9,51l.1-.11,1.49-1.49.09-.11.18-.19.78-.78.09-.08a2.18,2.18,0,0,1,.22-.21c.18-.16.34-.34.5-.51s.05-.08.09-.1a1.1,1.1,0,0,0,.23-.2l.87-.87.07-.09.11-.09,1-1,.11-.1L15,45l2.06-2.06.09-.11a.61.61,0,0,0,.16-.16c.09-.1.2-.17.29-.26l.1-.11,2.78-2.78.09-.11.15-.16L21,39l.28-.26.05-.07.55-.52L24.06,36l.07-.08.1-.09,1-1,.1-.08.09-.11,3-3a1.09,1.09,0,0,1,.1-.11,1.62,1.62,0,0,1,.17-.19,1.15,1.15,0,0,0,.23-.21L30,30l.11-.09.09-.11,3.05-3,.1-.11.16-.18c.77-.76,1.52-1.54,2.3-2.28a4,4,0,0,0,.28-.3c.24-.23.46-.46.7-.68s.68-.67,1-1c0,0,.07-.1.11-.14a4.26,4.26,0,0,0,.53-.51.52.52,0,0,1,.1-.11l2.36-2.37L44.6,15.4,59.9.1,60,0Z"/></g></g></svg>