<svg id="背景" xmlns="http://www.w3.org/2000/svg" xmlns:xlink="http://www.w3.org/1999/xlink" width="200" height="200" viewBox="0 0 200 200"><defs><style>.cls-1{fill:none;}.cls-2{clip-path:url(#clip-path);}.cls-3{fill:#588157;}.cls-4{fill:#f45a21;}.cls-5{fill:#804036;}.cls-6{fill:#ffe1bb;}.cls-7{fill:#fbb13c;}.cls-8{font-size:17.05px;fill:#fff;font-family:Futura-Bol, Futura;}</style><clipPath id="clip-path"><circle class="cls-1" cx="99.71" cy="100.39" r="100"/></clipPath></defs><g class="cls-2"><circle class="cls-3" cx="99.71" cy="100.39" r="100"/><ellipse class="cls-4" cx="99.69" cy="100.92" rx="55.37" ry="12.74"/><path class="cls-5" d="M99.69,75.72h0A21.66,21.66,0,0,0,78.07,96.15l-3.5,61.53a36.68,36.68,0,0,0,9.14,26.39L99.52,202l16-17.84a36.68,36.68,0,0,0,9.3-26.57l-3.49-61.39A21.66,21.66,0,0,0,99.69,75.72Z"/><path class="cls-6" d="M157.35,283.19l-2.78-10.72S148.85,237.3,149,228.1c.08-6.27-2.93-20.41-4.86-28.79A54.07,54.07,0,0,1,142.5,187c-.13-11.26-1.29-30.08-3.93-33.9a13,13,0,0,0-6.8-4.89v0a148.57,148.57,0,0,1-17-6.9c-7.57-3.79-6-16.77-6-16.77H90.22s1.63,13-6,16.77A143.41,143.41,0,0,1,67.77,148v0a13.31,13.31,0,0,0-7.34,5.06c-2.64,3.82-3.79,22.64-3.93,33.9a53,53,0,0,1-1.6,12.33C53,207.69,50,221.83,50,228.1c.11,9.2-5.61,44.37-5.61,44.37l-2.77,10.72a8.62,8.62,0,0,0-.09,4l1.75,8.28a6.57,6.57,0,0,0,1.82,3.33l9.56,9.41a.94.94,0,0,0,1.48-1.13l-4.76-8.39a6.67,6.67,0,0,1-.86-3.26v-5.68a1.07,1.07,0,0,1,1.33-1,1.11,1.11,0,0,1,.77.8l2.1,8.2a1.45,1.45,0,0,0,1.74,1.06,1.5,1.5,0,0,0,1.13-1.48V284.87a10.13,10.13,0,0,0-1.16-4.71l-1.92-3.67a11.74,11.74,0,0,1-1-8.37c3.18-12.51,12.59-44.43,12.81-60.85,0,0,3.2-17.85,5.07-34,1.46,9,3.09,17.8,4.41,21.51,3.14,8.85,2,19.41-2.28,25.69s-10.28,23.69-9.14,40.25,14.42,66.51,13.21,75.65-1.79,32.25,1.92,50.81,6.13,39,4.7,43.32L79.78,450.4a6.28,6.28,0,0,0,6.13,7.66h3.73a7.18,7.18,0,0,0,7.19-7.18v-3.34a45,45,0,0,0-2.28-14.14h0a19.73,19.73,0,0,1-1-6.33c0-11,.75-44,1.73-53.35,1.14-10.85-2.28-40.82,0-50.53,2-8.57,1.32-47.38,1.12-56.29a16.82,16.82,0,0,0,6.22,0c-.19,8.91-.89,47.72,1.13,56.29,2.28,9.71-1.15,39.68,0,50.53,1,9.35,1.7,42.38,1.73,53.35a20,20,0,0,1-1,6.33,45,45,0,0,0-2.28,14.14v3.34a7.18,7.18,0,0,0,7.18,7.18h3.74a6.28,6.28,0,0,0,6.13-7.66l-4.5-19.94c-1.43-4.28,1-24.77,4.71-43.32s3.14-41.68,1.92-50.81,12.06-59.09,13.2-75.65-4.85-34-9.13-40.25-5.42-16.84-2.28-25.69c1.28-3.62,3-12.06,4.49-20.77,1.89,16,5,33.3,5,33.3.22,16.42,9.63,48.34,12.82,60.85a11.8,11.8,0,0,1-1,8.37l-1.91,3.67a10,10,0,0,0-1.16,4.71v12.47a1.49,1.49,0,0,0,1.13,1.48,1.46,1.46,0,0,0,1.74-1.06l2.1-8.2a1.1,1.1,0,0,1,.77-.8,1.07,1.07,0,0,1,1.33,1v5.68a6.67,6.67,0,0,1-.86,3.26l-4.76,8.39a.94.94,0,0,0,1.48,1.13l9.55-9.41a6.58,6.58,0,0,0,1.83-3.33l1.75-8.28A8.89,8.89,0,0,0,157.35,283.19Z"/><ellipse class="cls-7" cx="81.99" cy="109.9" rx="3.29" ry="4.64" transform="translate(-43.96 55.72) rotate(-30)"/><ellipse class="cls-7" cx="117.02" cy="109.9" rx="4.64" ry="3.29" transform="translate(-36.66 156.29) rotate(-60)"/><path class="cls-7" d="M108.68,129a28.15,28.15,0,0,1,.1-4.51H90.22a28.78,28.78,0,0,1,.11,4.51A15.35,15.35,0,0,0,108.68,129Z"/><path class="cls-6" d="M116.23,98.42c-16.35,0-23.66-4.31-26.92-8a17.26,17.26,0,0,1-6.53,8c0,.23,0,.45,0,.69v12.28a17.77,17.77,0,0,0,6,13.35l1.53,1.35a13.88,13.88,0,0,0,18.35,0l1.53-1.35a17.79,17.79,0,0,0,6-13.35V99.11C116.24,98.87,116.23,98.65,116.23,98.42Z"/><path class="cls-4" d="M67.6,147.49l-.25.09A13.75,13.75,0,0,0,60,152.77c-2.7,3.91-3.89,22.59-4,34.2a53.83,53.83,0,0,1-1.58,12.22c-1.86,8.06-5,22.54-4.88,28.92.07,6.13-3.16,24.24-5.1,35.06-.6,3.36-1.95,8.17-1.95,8.17l13.5,2a18.66,18.66,0,0,1,.31-4.56c2.88-11.35,10.42-44.49,10.67-61.48.17-1,3.24-18.34,5-34l12.29-32.1Z"/><path class="cls-4" d="M131.41,147.49l.25.09a13.75,13.75,0,0,1,7.36,5.19c2.69,3.91,3.88,22.59,4,34.2a52.73,52.73,0,0,0,1.58,12.22c1.85,8.06,5,22.54,4.87,28.92-.07,6.13,3.17,24.24,5.1,35.06.6,3.36,2,8.17,2,8.17l-13.5,2a19.17,19.17,0,0,0-.31-4.56c-2.89-11.35-10.43-44.49-10.67-61.48-.18-1-3.24-18.34-5.06-34l-12.29-32.1Z"/><path class="cls-4" d="M98.59,139.11a4.88,4.88,0,0,0-3.21-3.68l-5.68-1.94-2.79,5.73a19.92,19.92,0,0,0,12.59,4.47Z"/><path class="cls-4" d="M100.41,139.11a4.92,4.92,0,0,1,3.22-3.68l5.68-1.94,2.79,5.73a19.93,19.93,0,0,1-12.6,4.47Z"/><path class="cls-4" d="M131.09,421.94l4-161.26c1.14-16.56-4.86-34-9.14-40.25s-6-16.84-2.82-25.69c.92-2.61,3.08-7.76,4.79-13.72a20.15,20.15,0,0,0-1.18-14.1l-12-25.66a8.76,8.76,0,0,1-2.63-2,20,20,0,0,1-25.19,0,8.8,8.8,0,0,1-2.64,2l-12,25.66A20.2,20.2,0,0,0,71.07,181c1.7,6,3.86,11.11,4.79,13.72,3.14,8.85,1.46,19.41-2.82,25.69s-10.28,23.69-9.14,40.25l4,161.26c5.73,0,10.06,2.17,15.79,2.17s10.06-2.17,15.79-2.17,10.06,2.17,15.79,2.17S125.36,421.94,131.09,421.94Z"/><path class="cls-5" d="M105,186.25l11.53,5.14-12.62-2a29.7,29.7,0,0,0-9.41,0l-12.61,2,11.52-5.14A14.27,14.27,0,0,1,105,186.25Z"/><path class="cls-7" d="M99.69,88.18c24.41,0,45.11,3.63,52.48,8.68L101.65,59.5a3.29,3.29,0,0,0-3.91,0L47.21,96.86C54.58,91.81,75.28,88.18,99.69,88.18Z"/><text class="cls-8" transform="matrix(0.61, -0.79, 0.8, 0.6, 35.38, 81.23)">M</text><text class="cls-8" transform="matrix(0.72, -0.7, 0.7, 0.71, 45.9, 67.99)">o</text><text class="cls-8" transform="matrix(0.79, -0.62, 0.62, 0.78, 54.63, 59.79)">r</text><text class="cls-8" transform="matrix(0.85, -0.54, 0.54, 0.84, 61.28, 54.6)">e</text><text class="cls-8" transform="matrix(0.9, -0.45, 0.46, 0.88, 70.86, 48.75)">!</text></g></svg>