<svg xmlns="http://www.w3.org/2000/svg" width="195.03" height="40.85" viewBox="0 0 195.03 40.85"><defs><style>.cls-1{fill:#1d1d1b;}.cls-2{fill:#ffc9c6;}</style></defs><g id="レイヤー_2" data-name="レイヤー 2"><g id="文字"><path class="cls-1" d="M50.78,18.15l1,.61a.88.88,0,0,0,1-.13c2.46-2.29,6-2.79,9.21-3.27a.83.83,0,0,0,.58-1,.86.86,0,0,0-1-.59c-3.53.53-7.25,1.18-10,3.7l1-.13-1-.61a.83.83,0,0,0-.84,1.44Z"/><path class="cls-1" d="M56,34l1.7,1.68a.84.84,0,0,0,1.42-.59q-.39-14.92-1.37-29.81a.85.85,0,0,0-.83-.83l-1.29,0a.83.83,0,0,0,0,1.66l1.29,0L56,5.24q1,14.89,1.37,29.81l1.43-.59-1.7-1.68C56.38,32,55.2,33.21,56,34Z"/><path class="cls-1" d="M47.74,33.29a36.52,36.52,0,0,0,10.4-11.62.83.83,0,0,0-1.44-.84,34.62,34.62,0,0,1-9.8,11c-.86.62,0,2.07.84,1.44Z"/><path class="cls-1" d="M64.46,21.7a18,18,0,0,0-5-1.91A.84.84,0,1,0,59,21.4a16.27,16.27,0,0,1,4.62,1.74.83.83,0,0,0,1.14-.3.84.84,0,0,0-.3-1.14Z"/><path class="cls-1" d="M66.5,11.41a50.38,50.38,0,0,0,7.39-6.76.85.85,0,0,0,.13-1,1.37,1.37,0,0,0-1.51-.58c-1,.25-.6,1.86.45,1.6a.34.34,0,0,1-.38-.18l.13-1A47.8,47.8,0,0,1,65.65,10a.85.85,0,0,0-.29,1.14.82.82,0,0,0,1.14.3Z"/><path class="cls-1" d="M80.45,9.42A86.67,86.67,0,0,0,71.71,11a34.29,34.29,0,0,0-4.17,1.34c-.62.25-1.26.64-1.91.83-.45.12-.62-.12-1-.23a1.67,1.67,0,0,0-.86,0c-1.06.17-.61,1.78.44,1.6,0,0,.51.27.62.3a2.07,2.07,0,0,0,1,0,12.15,12.15,0,0,0,1.91-.78A30.92,30.92,0,0,1,72,12.69,86.4,86.4,0,0,1,80.9,11c1-.16.6-1.77-.45-1.61Z"/><path class="cls-1" d="M63.63,25.14a50.17,50.17,0,0,0,9-15.72.84.84,0,0,0-.81-1.05l-1.12-.08c-1.07-.07-1.07,1.59,0,1.67l1.12.07L71,9a48.09,48.09,0,0,1-8.58,15c-.69.81.48,2,1.18,1.18Z"/><path class="cls-1" d="M71.65,12.08l7.95,4.48,3.92,2.21a12.27,12.27,0,0,0,3.69,1.46c1.05.19,1.5-1.41.44-1.61a12,12,0,0,1-3.76-1.56L80.18,15l-7.69-4.33a.83.83,0,0,0-.84,1.44Z"/><path class="cls-1" d="M68.25,18.72a5.42,5.42,0,0,0,2.43,3.63.84.84,0,1,0,.85-1.44l-.2-.14-.1-.07c-.08-.06.17.14,0,0l-.34-.31c-.11-.1-.21-.22-.31-.33s-.11-.14,0,0,0,0,0,0-.09-.13-.14-.2-.15-.25-.22-.38-.07-.15-.11-.22,0-.17,0,.05l0-.09a4.69,4.69,0,0,1-.24-.91.84.84,0,0,0-1.53-.2,1,1,0,0,0-.08.64Z"/><path class="cls-1" d="M75,21.82l1.28-2.77.63-1.36c.23-.52.52-1.07.2-1.62a1.39,1.39,0,0,0-1.39-.56c-.53,0-1.06.08-1.59.15a11.75,11.75,0,0,0-2.63.64,3.07,3.07,0,0,0-2.07,2,.83.83,0,0,0,1.61.44.94.94,0,0,1,0-.16c0,.06,0,.07,0,0s.17-.23.08-.13a1.36,1.36,0,0,1,.27-.25,3.51,3.51,0,0,1,.93-.42,13.13,13.13,0,0,1,2.79-.55l.69,0H76c-.15,0-.23-.12-.25-.32-.23-.38-.13-.4-.26-.11l-.66,1.41L73.54,21a.85.85,0,0,0,.3,1.14.84.84,0,0,0,1.14-.3Z"/><path class="cls-1" d="M75.74,19.72a10.29,10.29,0,0,0-4.84,1.59.84.84,0,0,0-.3,1.14.86.86,0,0,0,1.14.3,10,10,0,0,1,1-.57l.28-.13.08,0,.54-.2a8.34,8.34,0,0,1,1.09-.29l.53-.1.16,0,.31,0a.85.85,0,0,0,.83-.84.83.83,0,0,0-.83-.83Z"/><path class="cls-1" d="M64.12,26.78c.17.14.15.29.15.51,0,.38,0,.75-.06,1.13a17.66,17.66,0,0,0,1.31,7,.87.87,0,0,0,1,.58.84.84,0,0,0,.58-1,16.29,16.29,0,0,1-1.2-4.9,17.11,17.11,0,0,1,0-2.48,2.24,2.24,0,0,0-.63-2,.83.83,0,0,0-1.17,1.18Z"/><path class="cls-1" d="M78.35,36.43l1.31,2a3.49,3.49,0,0,0,1.12,1.32c1.09.57,2.14-.28,2.64-1.22a20.33,20.33,0,0,0,1.42-4.46,43.57,43.57,0,0,0,.92-4.95,41.56,41.56,0,0,0,.36-5,2.61,2.61,0,0,0-1.7-2.86,6.39,6.39,0,0,0-3.87.06c-1.69.43-3.37.94-5,1.44-1.82.55-3.64,1.13-5.43,1.8a25.42,25.42,0,0,1-5.61,1.84c-1,.13-1.07,1.8,0,1.67,3.19-.4,6.18-2,9.22-3,1.63-.53,3.28-1,4.92-1.48,1.41-.4,3.09-1.13,4.58-.93.94.12,1.26.54,1.26,1.46s0,1.8-.12,2.69a40.17,40.17,0,0,1-.72,5.12,41.17,41.17,0,0,1-1.3,4.84c-.22.67-.42,1.75-1.11,1a18.08,18.08,0,0,1-1.41-2.15c-.59-.9-2-.06-1.44.84Z"/><path class="cls-1" d="M69.72,29.45a6.41,6.41,0,0,0,2.16,3.36.93.93,0,0,0,.59.25.86.86,0,0,0,.59-.25.84.84,0,0,0,0-1.18,6.16,6.16,0,0,1-.65-.6,2.09,2.09,0,0,1-.14-.17l-.08-.09s-.09-.11,0,0,0,0,0,0l-.06-.08L72,30.46a5.46,5.46,0,0,1-.41-.75s-.07-.17,0,0,0,0,0,0,0-.13-.07-.2-.09-.28-.13-.43a.84.84,0,0,0-1-.58.85.85,0,0,0-.58,1Z"/><path class="cls-1" d="M76.83,32.35,78,28.42a.85.85,0,0,0-.58-1,5.75,5.75,0,0,0-6.24,1.72.85.85,0,0,0,0,1.18.84.84,0,0,0,1.18,0,4.33,4.33,0,0,1,.46-.5l.14-.12s.16-.13,0,0l.29-.2a5.76,5.76,0,0,1,.6-.33l.05,0,.15-.05a2.53,2.53,0,0,1,.36-.12l.34-.08c.06,0,.36-.06.2,0a5.32,5.32,0,0,1,.69,0l.39,0h0l.19,0a4.29,4.29,0,0,1,.7.2l-.58-1-1.15,3.93a.84.84,0,0,0,.58,1,.85.85,0,0,0,1-.59Z"/><path class="cls-1" d="M78.38,30.78a10.88,10.88,0,0,0-4.16.55c-.36.12-.71.26-1,.41a2.56,2.56,0,0,0-.85.52,1.36,1.36,0,0,0-.39,1,1,1,0,0,0,1,.94.83.83,0,0,0,.83-.83.85.85,0,0,0-.83-.84h.13l.37.22a.71.71,0,0,1,.17.58c-.06.11-.06.12,0,0-.07.08-.08.1,0,0-.1.08-.09.09,0,0s.44-.21.58-.27a9.62,9.62,0,0,1,1.38-.44,8.94,8.94,0,0,1,2.84-.23.84.84,0,1,0,0-1.67Z"/><path class="cls-2" d="M105.67,17.55a2.57,2.57,0,0,0,2.43.69,7.67,7.67,0,0,0,1.37-.62l1.49-.7a59,59,0,0,1,6.17-2.37l1.58-.48a1.7,1.7,0,0,0,1.12-.63,1.36,1.36,0,0,0-.49-1.86,1.18,1.18,0,0,0-1.73,1A1.29,1.29,0,0,0,118.89,14a.83.83,0,0,0,0-1.66c.65.41.48.58-.53.52.26-.41.23-.54-.1-.38a3.72,3.72,0,0,0-.9.27c-.53.17-1,.33-1.57.51-1.08.36-2.15.76-3.2,1.18s-2.09.88-3.11,1.35c-.72.34-1.91,1.31-2.63.6a.83.83,0,0,0-1.18,1.18Z"/><path class="cls-2" d="M114.63,37.28c-.3-2.8-.28-5.64-.41-8.45q-.19-4.53-.45-9T113.2,11a40.3,40.3,0,0,0-.33-4.26c-.13-.75-.53-1.36-1.35-1.34a.84.84,0,0,0,0,1.67c-.49,0,0,3.25,0,3.69l.27,3.9q.25,3.8.45,7.58c.27,5,.2,10.08.73,15.06.12,1.06,1.79,1.07,1.67,0Z"/><path class="cls-2" d="M104.24,33.13a32.91,32.91,0,0,0,5.81-6.38,31.24,31.24,0,0,0,2.16-3.65c.31-.61.6-1.24.87-1.87a1.53,1.53,0,0,0-.17-1.78c-.75-.78-1.93.4-1.18,1.17-.15-.15,0-.29-.15-.11a2.17,2.17,0,0,0-.15.35c-.12.28-.25.56-.38.84-.27.56-.56,1.11-.86,1.66a31.4,31.4,0,0,1-2,3.14A30.79,30.79,0,0,1,103.06,32c-.82.69.37,1.87,1.18,1.18Z"/><path class="cls-2" d="M119.22,23.05a26.32,26.32,0,0,0-4.31-2.48.85.85,0,0,0-1.14.3.83.83,0,0,0,.3,1.14,26.75,26.75,0,0,1,4.31,2.48.83.83,0,0,0,1.14-.3.85.85,0,0,0-.3-1.14Z"/><path class="cls-2" d="M120.87,9.31a2.91,2.91,0,0,1,.3.31l.13.16c-.1-.13,0,.08.06.08.16.23.3.47.44.71.27.49.52,1,.82,1.48a4.74,4.74,0,0,0,2.65,2.25.83.83,0,0,0,1-.58.86.86,0,0,0-.58-1l-.17,0c-.07,0-.15-.06,0,0l-.32-.17-.18-.12c.1.06,0,0,0,0a3.07,3.07,0,0,1-.26-.25,3.2,3.2,0,0,1-.25-.27s-.1-.13,0,0l-.11-.15c-.15-.21-.28-.43-.41-.65a12,12,0,0,0-1.86-2.83.84.84,0,0,0-1.18,0,.85.85,0,0,0,0,1.18Z"/><path class="cls-2" d="M127.78,7.93a6.1,6.1,0,0,0,2.79,4.21.83.83,0,0,0,1.14-.3.84.84,0,0,0-.3-1.14,1.88,1.88,0,0,1-.23-.16l-.12-.08c-.09-.06.16.13,0,0l-.4-.36-.36-.4,0-.05c.08.1,0,0,0-.05s-.11-.16-.16-.24a4.25,4.25,0,0,1-.27-.46l-.12-.26c-.05-.1.08.2,0,0l0-.1a5.11,5.11,0,0,1-.27-1.09A.85.85,0,0,0,129,7a.87.87,0,0,0-.65-.09.9.9,0,0,0-.5.38,1,1,0,0,0-.08.65Z"/><path class="cls-2" d="M129.39,18.63,134.84,12l2.64-3.23c.46-.55.91-1.11,1.36-1.66a3.08,3.08,0,0,0,.86-1.71c.05-.47-.43-.81-.84-.83l-1.65-.1c-1.07-.07-1.07,1.6,0,1.66l1.65.1L138,5.38c0,.25-.38.55-.53.72l-.64.79-1.28,1.56-2.4,2.94-5,6.06c-.68.82.5,2,1.18,1.18Z"/><path class="cls-2" d="M127.86,19.52a17.51,17.51,0,0,1-3.67,9.57.83.83,0,0,0,.3,1.14,140.59,140.59,0,0,1,15.15,8.61c.9.59,1.73-.86.84-1.44a140.59,140.59,0,0,0-15.15-8.61l.3,1.14a19,19,0,0,0,3.9-10.41c.07-1.07-1.6-1.06-1.67,0Z"/><path class="cls-2" d="M127.2,36.79a55.38,55.38,0,0,0,6.63-7.71q1.44-2,2.67-4.17c.81-1.4,1.93-3,2-4.67a.84.84,0,0,0-1.67,0,5.42,5.42,0,0,1-.88,2.26q-.56,1-1.14,2-1.2,2-2.56,3.93A52.81,52.81,0,0,1,126,35.61c-.78.75.4,1.93,1.18,1.18Z"/><path class="cls-2" d="M146.93,20.82c-.51-1.91-3.23-1.28-4.65-1.13a53,53,0,0,0-7.19,1.24,51.27,51.27,0,0,0-13.42,5.47l.64-.08c-.74-.18-1.47-.33-2.22-.47-1-.2-1.49,1.4-.44,1.6.88.17,2,.66,2.86.39a23.76,23.76,0,0,0,3.09-1.67,46.85,46.85,0,0,1,6.32-2.59,50.8,50.8,0,0,1,6.42-1.65c.64-.12,6.82-1.28,7-.67a.84.84,0,0,0,1.61-.44Z"/><path class="cls-1" d="M176.64,5.71A4.32,4.32,0,0,0,178,5.6a.85.85,0,0,0,.19-1.53c-1.55-1-3.42-.5-5.12-.21-2.13.37-4.26.75-6.37,1.22a53.5,53.5,0,0,0-6.21,1.75c-.88.31-2.32,1.23-3.25,1-.7-.19-1.05-.47-1.78-.11-1,.49-.11,1.93.84,1.44a5.72,5.72,0,0,0,.82.4,2.26,2.26,0,0,0,.82,0,15.13,15.13,0,0,0,2.62-1,49.26,49.26,0,0,1,5.6-1.65c1.84-.44,3.7-.8,5.56-1.14,1.58-.28,4.18-1.21,5.63-.26l.2-1.53a1.91,1.91,0,0,1-.89,0c-1.07-.09-1.07,1.58,0,1.67Z"/><path class="cls-1" d="M161.32,3.84c.35,1.39.76,2.77,1.24,4.12.23.67.48,1.33.75,2s.75,1.33,1.54,1.26a.87.87,0,0,0,.84-.84.84.84,0,0,0-.84-.83c-.28,0,.19,0,.16.09s-.12-.2-.14-.25c-.11-.23-.19-.48-.28-.72-.22-.58-.43-1.16-.63-1.75-.39-1.16-.74-2.33-1-3.51a.83.83,0,0,0-1.61.44Z"/><path class="cls-1" d="M169.28,11.29l3.42-9.95a.82.82,0,0,0-.58-1l-1.3-.3c-1-.23-1.49,1.38-.44,1.61l1.3.29-.59-1-3.42,9.94c-.35,1,1.26,1.46,1.61.45Z"/><path class="cls-1" d="M156.53,18.78a118.51,118.51,0,0,0,15.88-9.13.84.84,0,0,0,.42-.72,1.34,1.34,0,0,0-1.44-1.32c-1.06.08-1.07,1.75,0,1.67l-.23-.35.41-.72a118.51,118.51,0,0,1-15.88,9.13c-1,.47-.12,1.91.84,1.44Z"/><path class="cls-1" d="M159.46,17.89a5.43,5.43,0,0,0,3.94,4,.84.84,0,0,0,.45-1.61,6,6,0,0,1-.6-.19c-.08,0,.19.08,0,0l-.13-.07-.27-.14-.27-.17-.12-.09,0,0,0,0a2.11,2.11,0,0,0-.23-.19l-.22-.21-.2-.22-.09-.12c-.12-.13.11.16,0,0a3.84,3.84,0,0,1-.32-.5c-.05-.09-.1-.18-.14-.27a.36.36,0,0,0,0-.09l.05.11a.75.75,0,0,0-.06-.13,4.37,4.37,0,0,1-.17-.62.84.84,0,0,0-1-.58.86.86,0,0,0-.58,1Z"/><path class="cls-1" d="M166.52,16.71a5.55,5.55,0,0,0,2.5,2.63.92.92,0,0,0,.65.08.81.81,0,0,0,.49-.38.83.83,0,0,0-.3-1.14,5.77,5.77,0,0,1-.74-.47l.17.13a5.06,5.06,0,0,1-.89-.9l.13.17a4.67,4.67,0,0,1-.57-1,.84.84,0,0,0-1.14-.3.88.88,0,0,0-.39.5l0,.22a.79.79,0,0,0,.12.42Z"/><path class="cls-1" d="M165.16,24.19q3.43-2.75,6.6-5.78,1.55-1.47,3-3c.94-1,2.21-2.06,1.86-3.57a.82.82,0,0,0-.59-.58,3.74,3.74,0,0,0-2,.16c-1,.37-.57,2,.44,1.6a2.1,2.1,0,0,1,1.08-.15l-.58-.58c.11.48-.55,1-.84,1.32-.46.49-.93,1-1.4,1.46-.93.94-1.87,1.87-2.83,2.77C168,19.63,166,21.36,164,23a.85.85,0,0,0,0,1.18.85.85,0,0,0,1.18,0Z"/><path class="cls-1" d="M182.32,19.45a59.43,59.43,0,0,0-14,2.29,61,61,0,0,0-6.56,2.36c-1.1.47-2.19,1-3.27,1.51-.74.38-2.84,1.93-3.39.69-.43-1-1.87-.14-1.44.84.95,2.13,3.38,1.11,4.88.32a56.57,56.57,0,0,1,23.79-6.35c1.07,0,1.07-1.71,0-1.66Z"/><path class="cls-1" d="M164.61,36.44a17.36,17.36,0,0,0,3.25,2.92.84.84,0,0,0,1.25-.72c0-3.15,0-6.3,0-9.45a44.5,44.5,0,0,0-.14-4.47c-.15-1.42-.49-2.84,0-4.23a.83.83,0,0,0-.8-1h-.72a.84.84,0,0,0,0,1.67h.72l-.81-1.05a8.73,8.73,0,0,0-.15,4.19,37.18,37.18,0,0,1,.2,4.6c0,3.27,0,6.53-.05,9.8l1.26-.72a15.65,15.65,0,0,1-2.91-2.66c-.7-.82-1.87.36-1.18,1.18Z"/><path class="cls-1" d="M157.29,35.27a37.71,37.71,0,0,0,6-4.41c1.76-1.6,3.23-3.6,5.26-4.86.91-.57.07-2-.84-1.44-2.06,1.27-3.55,3.22-5.31,4.85a35.34,35.34,0,0,1-5.9,4.42.83.83,0,0,0,.84,1.44Z"/><path class="cls-1" d="M169.83,24.79c2.23.05,3.77,2.74,5.18,4.16a23.94,23.94,0,0,0,5.63,4.44c4.31,2.27,9.24,1.39,13.79.46,1-.21.6-1.82-.45-1.6-4.94,1-9.93,1.74-14.27-1.41a33,33,0,0,1-5.2-4.9c-1.27-1.43-2.66-2.77-4.68-2.82a.84.84,0,0,0,0,1.67Z"/><path class="cls-1" d="M19.49,4l.06-.86-1.25.72C19.13,4.48,15,8.4,14.44,9L9.65,14.17,5,19.18a18.84,18.84,0,0,1-4.6,4.13c-.94.51-.1,2,.85,1.44,2.2-1.19,3.81-3.18,5.49-5l5.77-6.24L18.3,7.29c1.22-1.32,2.89-3.39.84-4.84-.56-.39-1.21.15-1.25.72L17.83,4c-.08,1.07,1.59,1.07,1.66,0Z"/><path class="cls-1" d="M20.31,6.39A192.59,192.59,0,0,0,41.6,17.69c1,.44,1.82-1,.85-1.44A192.73,192.73,0,0,1,21.15,5c-.91-.56-1.75.88-.84,1.44Z"/><path class="cls-1" d="M15.55,15a3,3,0,0,0,2.32.68,8.22,8.22,0,0,0,2.58-1,12,12,0,0,1,5.36-1.2.84.84,0,0,0,0-1.67,13.71,13.71,0,0,0-5.06.93c-.75.29-1.45.7-2.2,1-.52.22-1.32.45-1.82,0A.83.83,0,0,0,15.55,15Z"/><path class="cls-1" d="M27.27,24.33a35.37,35.37,0,0,0,1.17-8.12.86.86,0,0,0-.62-.8,8.26,8.26,0,0,0-5.58.39A22.73,22.73,0,0,0,19.71,17a4.5,4.5,0,0,1-2.65.83.86.86,0,0,0-1,.58.84.84,0,0,0,.58,1c2.06.31,3.65-.94,5.42-1.77A7.25,7.25,0,0,1,27.38,17l-.61-.81a32.58,32.58,0,0,1-1.11,7.67.84.84,0,0,0,1.61.45Z"/><path class="cls-1" d="M26.8,21.82a1.35,1.35,0,0,0-1.31-1.95,5.86,5.86,0,0,0-1.25.16c-.43.08-.86.18-1.28.29a16.81,16.81,0,0,0-4.68,2.09c-.9.59-.06,2,.84,1.44a15,15,0,0,1,3.29-1.62,17.63,17.63,0,0,1,1.76-.49l.89-.17c.12,0,.27,0,.37,0s.14,0,.11,0c-.24-.1-.3-.29-.18-.56-.52.94.92,1.78,1.44.84Z"/><path class="cls-1" d="M27.8,24.93l0-.05-.58.58h-.4l.07,0-.37-.21-.05-.06-.09-.64,0,.06.39-.5-.1.06.42-.11a1.71,1.71,0,0,1-.47-.12,5,5,0,0,0-.66-.1,4.86,4.86,0,0,0-1.2.09,8.84,8.84,0,0,0-2.25.83c-1.23.59-2.67,1.56-4.1,1.33a.86.86,0,0,0-1,.58.84.84,0,0,0,.58,1c2.19.35,4-.89,5.88-1.73a3.94,3.94,0,0,1,2.39-.41,2.53,2.53,0,0,0,.86.17,1,1,0,0,0,.9-.68,1,1,0,0,0-1.2-1.21.83.83,0,0,0-.58.58v.06a.83.83,0,0,0,1.6.44Z"/><path class="cls-1" d="M7.48,40.72c1.89-1.17,3.09-3.06,4.29-4.88,1.43-2.16,2.78-4.39,4-6.66a34.82,34.82,0,0,0,3.09-6.46,4.31,4.31,0,0,0-1.41-4.95c-.87-.63-1.7.82-.84,1.44,1.69,1.22.5,3.62-.19,5.05-.89,1.85-1.85,3.68-2.87,5.47s-2,3.44-3.13,5.1-2.12,3.4-3.8,4.45c-.91.57-.07,2,.84,1.44Z"/><path class="cls-1" d="M16.3,31.75a24.25,24.25,0,0,0,6.55,7.06A.83.83,0,0,0,24,38.52a.86.86,0,0,0-.3-1.15,22.07,22.07,0,0,1-5.94-6.46.84.84,0,0,0-1.45.84Z"/><path class="cls-1" d="M28.33,36.89c1-1.85,2-3.69,3-5.53a2.68,2.68,0,0,0,.4-2.48c-.41-.8-1.7-.64-2.48-.64A18.41,18.41,0,0,0,18.88,31.4c-.88.61-.05,2.05.84,1.44A17,17,0,0,1,30.9,30l-.72-.41c.16.3-.34,1-.48,1.23l-.95,1.78L26.89,36c-.5,1,.94,1.79,1.44.85Z"/><path class="cls-1" d="M30.73,36.28a10.13,10.13,0,0,0-9.63,2.33c-.78.74.4,1.92,1.18,1.18a8.39,8.39,0,0,1,8-1.9.84.84,0,0,0,.45-1.61Z"/></g></g></svg>