<svg xmlns="http://www.w3.org/2000/svg" width="60" height="60" viewBox="0 0 60 60"><defs><style>.cls-1{fill:#111;}.cls-2{fill:#e16585;}.cls-3{fill:#df4d75;}.cls-4{fill:#dc1e55;}.cls-5{fill:#db174e;}.cls-6{fill:#db1950;}.cls-7{fill:#db1550;}.cls-8{fill:#dc1b55;}.cls-9{fill:#db164f;}</style></defs><g id="レイヤー_2" data-name="レイヤー 2"><g id="図形"><path class="cls-1" d="M.27,0H59.73q0,24.84,0,49.67,0,5,0,10H.28c0-.27,0-.54,0-.81ZM49,22.53l-1.44-.28L46.94,24l2.54,1L48,27.26l1.53,1.18,1.7-2.12,1.72,2.18,1.6-1.16-1.57-2.29,2.58-.94-.66-1.85L52.22,23V20.36a5.54,5.54,0,0,0-2.11.11v2Zm-17.5,7.2.22-4.81.34-.35,10.32-.1v-4H27.52l-.29.42L27,21l.19.14L27,29.72l-.2.14L27,30v4.83c.5-.18.87-.33,1.25-.45a14.37,14.37,0,0,1,5.47-.91c3.87.25,5.4,2.62,5.29,5.4-.08,2.31-1.23,4.12-3.27,4.68a5.23,5.23,0,0,1-5.94-1.89c-.27-.39-.51-.81-.79-1.26l-3.17,3a7.87,7.87,0,0,0,3.77,3.39A10.67,10.67,0,0,0,39,46.4a8.89,8.89,0,0,0,4.58-8.95,7.64,7.64,0,0,0-5.6-7,17.56,17.56,0,0,0-2.2-.49c0-.12-.1-.34-.15-.35-.79,0-1.57,0-2.36,0,0,0-.1.22-.15.34L31.74,30ZM10.1,45.54a8.45,8.45,0,0,0,13.47-4.08,11,11,0,0,0,0-7,8.75,8.75,0,0,0-3-4.31c-3.84-3-9.07-1.86-11.09.87-.08.11-.24.16-.53.33V29h-4C4.7,30.79,4.77,55,5,55.88H9.3V54.36l.06-8.83Z"/><path class="cls-2" d="M.27,0V58.91c0,.27,0,.54,0,.81V60H0c0-.36,0-.72,0-1.07V1.07C0,.36,0,.36.27,0Z"/><path class="cls-2" d="M59.72,59.72q0-5,0-10,0-24.83,0-49.67H60c0,.36,0,.72,0,1.07V58.93c0,.71,0,.71-.27,1.07Z"/><path class="cls-3" d="M59.72,59.72V60H.27v-.28H59.72Z"/><path class="cls-4" d="M35.73,29.92H33.07c0-.12.1-.34.15-.34.79,0,1.57,0,2.36,0C35.63,29.58,35.68,29.8,35.73,29.92Z"/><path class="cls-5" d="M9.36,45.53v-.91l.74.92Z"/><path class="cls-6" d="M50.11,22.5V23L49,22.53Z"/><path class="cls-7" d="M27.23,20.89v.28L27,21Z"/><path class="cls-8" d="M31.68,24.92l.34-.35Z"/><path class="cls-9" d="M27,29.72V30l-.19-.15Z"/><path class="cls-4" d="M31.74,30l-.28-.31Z"/><path class="cls-1" d="M19.53,37.62a6,6,0,0,1-1.81,4.88A5,5,0,0,1,10,41.1a6.18,6.18,0,0,1,.33-6.79,5,5,0,0,1,5.37-2.06,5.22,5.22,0,0,1,3.82,4.62A7.25,7.25,0,0,1,19.53,37.62Z"/></g></g></svg>